<svg xmlns="http://www.w3.org/2000/svg" xmlns:xlink="http://www.w3.org/1999/xlink" width="16" height="16" viewBox="0 0 16 16">
  <defs>
    <clipPath id="clip-path">
      <rect id="Rectángulo_3403" data-name="Rectángulo 3403" width="16" height="16" transform="translate(0 -0.001)" fill="#fff"/>
    </clipPath>
  </defs>
  <g id="Grupo_9478" data-name="Grupo 9478" transform="translate(0 0)">
    <g id="Grupo_9477" data-name="Grupo 9477" transform="translate(0 0)" clip-path="url(#clip-path)">
      <path id="Trazado_6130" data-name="Trazado 6130" d="M15.726,5.863a5.09,5.09,0,0,1,.385-1.75A6.121,6.121,0,0,1,20.432.294a6.224,6.224,0,1,1,2.677,12.151c-.234.046-.473.061-.71.09l0,0V9.647A3.347,3.347,0,0,0,22.2,3a3.206,3.206,0,0,0-2.132.559,3.358,3.358,0,0,0-1.452,2.3H15.721Z" transform="translate(-11.823 -0.078)" fill="#fff"/>
      <path id="Trazado_6131" data-name="Trazado 6131" d="M21.445,32.9a5.033,5.033,0,0,1-1.7-.368,6.152,6.152,0,0,1-3.9-4.516,8.165,8.165,0,0,1-.113-.834l-.005,0H18.6a3.41,3.41,0,0,0,2.839,2.838v2.881Z" transform="translate(-11.823 -20.443)" fill="#fff"/>
      <path id="Trazado_6132" data-name="Trazado 6132" d="M2.11,47.387.121,45.4l4.087-4.086A7.305,7.305,0,0,0,6.2,43.3L2.11,47.387" transform="translate(-0.091 -31.07)" fill="#fff"/>
      <path id="Trazado_6133" data-name="Trazado 6133" d="M3.9,6.739c-.325,0-.649.005-.974,0a.172.172,0,0,0-.19.117,1.432,1.432,0,0,1-2.733-.7A1.378,1.378,0,0,1,.84,4.965a.173.173,0,0,0,.121-.187q-.006-.91,0-1.82a.171.171,0,0,0-.119-.188,1.426,1.426,0,0,1-.8-1.636A1.466,1.466,0,0,1,1.477,0a1.466,1.466,0,0,1,1.36,1.128A1.434,1.434,0,0,1,2.1,2.741c-.057.029-.115.055-.179.086,0,.669,0,1.339,0,2.009a.157.157,0,0,0,.084.11,1.462,1.462,0,0,1,.751.749.187.187,0,0,0,.14.084c.335.008.671.005,1.006.006l-.005,0v.963Z" transform="translate(0 -0.001)" fill="#fff"/>
      <path id="Trazado_6134" data-name="Trazado 6134" d="M36.845,50.248c0,.325,0,.65,0,.974a.17.17,0,0,0,.117.19,1.411,1.411,0,0,1,.717.717c.02.043.076.1.115.1.681.006,1.363,0,2.04,0a1.437,1.437,0,1,1,0,.959c-.673,0-1.348,0-2.024,0-.108,0-.115.073-.145.136a1.432,1.432,0,0,1-2.685-.246,1.417,1.417,0,0,1,.781-1.659.194.194,0,0,0,.132-.212c-.006-.319,0-.639,0-.958l0,.005h.963Z" transform="translate(-26.269 -37.791)" fill="#fff"/>
      <path id="Trazado_6135" data-name="Trazado 6135" d="M31.343,17.5a2.371,2.371,0,0,1,2.442-1.912,2.412,2.412,0,0,1,2.283,2.381,2.356,2.356,0,0,1-1.911,2.343v-.971a1.47,1.47,0,0,0,.942-1.528,1.439,1.439,0,0,0-1.242-1.253,1.467,1.467,0,0,0-1.543.939Z" transform="translate(-23.573 -11.72)" fill="#fff"/>
      <path id="Trazado_6136" data-name="Trazado 6136" d="M33.188,29.043a2.345,2.345,0,0,1-1.85-1.852c.308,0,.616,0,.923,0,.032,0,.077.048.093.084a1.449,1.449,0,0,0,.751.747.156.156,0,0,1,.079.113c.007.3,0,.595,0,.9" transform="translate(-23.569 -20.45)" fill="#fff"/>
      <path id="Trazado_6137" data-name="Trazado 6137" d="M39.76,23.818a.479.479,0,1,1-.462-.492.484.484,0,0,1,.462.492" transform="translate(-29.182 -17.543)" fill="#fff"/>
    </g>
  </g>
</svg>
