<svg xmlns="http://www.w3.org/2000/svg" xmlns:xlink="http://www.w3.org/1999/xlink" width="18.38" height="18.38" viewBox="0 0 18.38 18.38">
  <defs>
    <clipPath id="clip-path">
      <rect id="Rectángulo_4071" data-name="Rectángulo 4071" width="18.38" height="18.38" fill="none"/>
    </clipPath>
  </defs>
  <g id="Grupo_10702" data-name="Grupo 10702" transform="translate(0 0)">
    <g id="Grupo_10702-2" data-name="Grupo 10702" transform="translate(0 0)" clip-path="url(#clip-path)">
      <path id="Trazado_7219" data-name="Trazado 7219" d="M6.783,8.732,6.73,14.907a1.4,1.4,0,0,0,1.391,1.414l.606.006a1.4,1.4,0,0,0,1.416-1.391L10.2,8.761l-1.3-.01.031-3.74.255-.145.5-1.277L9.227,1.606,8.549,1.6,7.872,1.6,7.391,3.568l.477,1.286L8.119,5l-.032,3.74Z" transform="translate(0.965 0.229)" fill="#fff"/>
      <path id="Trazado_7220" data-name="Trazado 7220" d="M17.737,4.9,13.335.5H4.9L.5,4.9v8.432l4.4,4.4h8.432l4.4-4.4Z" transform="translate(0.072 0.072)" fill="none" stroke="#fff" stroke-width="1"/>
    </g>
  </g>
</svg>
