<svg xmlns="http://www.w3.org/2000/svg" width="128" height="127"><defs><filter id="a" x="0" y="0" width="128" height="127" filterUnits="userSpaceOnUse"><feOffset/><feGaussianBlur stdDeviation="6" result="b"/><feFlood flood-opacity=".161"/><feComposite operator="in" in2="b"/><feComposite in="SourceGraphic"/></filter><style>.d{fill:#3f2e63}</style></defs><g transform="translate(18 18)"><g transform="translate(-18 -18)" filter="url(#a)"><ellipse cx="46" cy="45.5" rx="46" ry="45.5" transform="translate(18 18)" fill="#fff"/></g><circle cx="35.211" cy="35.211" r="35.211" transform="translate(16.777 9.909)" fill="#aac2f4"/><g fill="none"><path d="M46.5 10A35.5 35.5 0 1111 45.5 35.5 35.5 0 0146.5 10z"/><path d="M46.5 12a33.39 33.39 0 00-23.688 9.812A33.39 33.39 0 0013 45.5a33.391 33.391 0 009.812 23.688A33.391 33.391 0 0046.5 79a33.391 33.391 0 0023.688-9.812A33.391 33.391 0 0080 45.5a33.391 33.391 0 00-9.812-23.688A33.391 33.391 0 0046.5 12m0-2C66.106 10 82 25.894 82 45.5S66.106 81 46.5 81 11 65.106 11 45.5 26.894 10 46.5 10z" fill="#3f2e63"/></g></g><path class="d" d="M61.435 55.807h-3.7a.926.926 0 00-.926.926v11.105a.926.926 0 00.926.926h3.7a.926.926 0 00.926-.926V56.733a.926.926 0 00-.926-.926zM54.031 61.361h-3.7a.926.926 0 00-.926.926v5.553a.926.926 0 00.926.926h3.7a.926.926 0 00.926-.926v-5.553a.926.926 0 00-.926-.926zM68.84 50.254h-3.7a.926.926 0 00-.926.926v16.659a.926.926 0 00.926.926h3.7a.926.926 0 00.926-.926V51.18a.926.926 0 00-.926-.926z"/><path class="d" d="M85.882 82.265L74.833 71.216a18.541 18.541 0 10-2.617 2.617l11.049 11.049a1.851 1.851 0 102.617-2.617zM60.51 74.318A14.808 14.808 0 1175.318 59.51 14.826 14.826 0 0160.51 74.318z"/></svg>