<svg xmlns="http://www.w3.org/2000/svg" width="128" height="127"><defs><filter id="a" x="0" y="0" width="128" height="127" filterUnits="userSpaceOnUse"><feOffset/><feGaussianBlur stdDeviation="6" result="b"/><feFlood flood-opacity=".161"/><feComposite operator="in" in2="b"/><feComposite in="SourceGraphic"/></filter><style>.d{fill:#3f2e63}</style></defs><g transform="translate(18 18)"><g transform="translate(-18 -18)" filter="url(#a)"><ellipse cx="46" cy="45.5" rx="46" ry="45.5" transform="translate(18 18)" fill="#fff"/></g><circle cx="35.211" cy="35.211" r="35.211" transform="translate(16.777 9.909)" fill="#aac2f4"/><g fill="none"><path d="M46.5 10A35.5 35.5 0 1111 45.5 35.5 35.5 0 0146.5 10z"/><path d="M46.5 12a33.39 33.39 0 00-23.688 9.812A33.39 33.39 0 0013 45.5a33.391 33.391 0 009.812 23.688A33.391 33.391 0 0046.5 79a33.391 33.391 0 0023.688-9.812A33.391 33.391 0 0080 45.5a33.391 33.391 0 00-9.812-23.688A33.391 33.391 0 0046.5 12m0-2C66.106 10 82 25.894 82 45.5S66.106 81 46.5 81 11 65.106 11 45.5 26.894 10 46.5 10z" fill="#3f2e63"/></g></g><path class="d" d="M84.589 48.715c-.675.584-2.075 1.681-1.468 1.347a23.447 23.447 0 01-23.106 37.39.993.993 0 00-.39 1.948 25.629 25.629 0 005.013.494 25.423 25.423 0 0019.951-41.179zM44.189 80.676c.665-.596 2.045-1.717 1.444-1.373a23.436 23.436 0 0117.82-38.163 23.607 23.607 0 014.63.376.993.993 0 00.354-1.955 25.629 25.629 0 00-5.02-.406 25.257 25.257 0 00-17.845 7.758 25.257 25.257 0 00-7.131 18.105 25.471 25.471 0 005.748 15.658z"/><path class="d" d="M75.692 73.118l-6.294-12.644v-8.016a1.175 1.175 0 00-.156-2.34H61.52a1.175 1.175 0 00-.157 2.34v8.016l-6.297 12.644a1.022 1.022 0 00.915 1.478h18.795a1.022 1.022 0 00.915-1.478zm-14.163-8.385l1.879-3.775v-8.484h3.945v1.164h-1.587a.784.784 0 100 1.567h1.583v2.522h-1.583a.784.784 0 100 1.567h1.583v1.666l1.879 3.775zM77.09 48.768a1.071 1.071 0 01-1.07-1.07v-.048a.877.877 0 00-.578-.808.882.882 0 00-.974.177l-.032.032a1.064 1.064 0 01-.757.314 1.077 1.077 0 01-.757-.314 1.064 1.064 0 01-.314-.757 1.077 1.077 0 01.314-.757l.032-.032a.89.89 0 00-.63-1.506h-.091a1.07 1.07 0 010-2.14h.048a.878.878 0 00.808-.578.878.878 0 00-.177-.974l-.032-.032a1.077 1.077 0 01-.317-.759 1.071 1.071 0 011.831-.757l.032.032a.883.883 0 00.974.177h.043a.882.882 0 00.535-.808v-.091a1.07 1.07 0 012.14 0v.048a.889.889 0 001.509.631l.032-.032a1.064 1.064 0 01.756-.317 1.072 1.072 0 011.071 1.071 1.064 1.064 0 01-.314.757l-.032.032a.878.878 0 00-.177.974v.043a.882.882 0 00.808.535h.092a1.07 1.07 0 010 2.14h-.048a.89.89 0 00-.631 1.509l.032.032a1.07 1.07 0 11-1.514 1.514l-.032-.032a.89.89 0 00-1.507.633v.092a1.071 1.071 0 01-1.073 1.069zm-.043-7.49a1.6 1.6 0 101.6 1.6 1.607 1.607 0 00-1.6-1.6zM51.188 90.669a1.071 1.071 0 01-1.07-1.07v-.048a.877.877 0 00-.578-.808.882.882 0 00-.974.177l-.032.032a1.064 1.064 0 01-.757.314 1.077 1.077 0 01-.757-.314 1.064 1.064 0 01-.314-.757 1.077 1.077 0 01.314-.757l.032-.032a.89.89 0 00-.63-1.506h-.091a1.07 1.07 0 010-2.14h.048a.878.878 0 00.808-.578.878.878 0 00-.177-.974l-.032-.032a1.077 1.077 0 01-.317-.759 1.071 1.071 0 011.831-.757l.032.032a.883.883 0 00.974.177h.043a.882.882 0 00.535-.808v-.091a1.07 1.07 0 012.14 0v.048a.889.889 0 001.509.631l.032-.032a1.064 1.064 0 01.756-.317 1.072 1.072 0 011.071 1.071 1.064 1.064 0 01-.314.757l-.032.032a.878.878 0 00-.177.974v.043a.882.882 0 00.808.535h.092a1.07 1.07 0 010 2.14h-.048a.89.89 0 00-.631 1.509l.032.032a1.07 1.07 0 11-1.514 1.514l-.032-.032a.89.89 0 00-1.507.633v.092a1.071 1.071 0 01-1.073 1.069zm-.043-7.49a1.6 1.6 0 101.6 1.6 1.607 1.607 0 00-1.6-1.6z"/></svg>