<svg xmlns="http://www.w3.org/2000/svg" width="24.989" height="27.776" viewBox="0 0 24.989 27.776">
  <g id="Grupo_9566" data-name="Grupo 9566" transform="translate(20006.998 10554.15)">
    <path id="Trazado_6196" data-name="Trazado 6196" d="M29.238,27.587H5.711V23.4a1.053,1.053,0,0,1,1.052-1.052H28.37a.868.868,0,0,1,.868.868Z" transform="translate(-20012.088 -10574.078)" fill="#6378f8"/>
    <path id="Trazado_6176" data-name="Trazado 6176" d="M3.768,1.857C3.758,1.278,3.7.688,4.209.316a1.87,1.87,0,0,1,.815-.3A1.21,1.21,0,0,1,6.207.526c.3.394.2.862.232,1.316H18.555c0-.2,0-.4,0-.594A1.227,1.227,0,0,1,19.818,0a1.257,1.257,0,0,1,1.4,1.224c.009.2,0,.395,0,.63.361,0,.7,0,1.041,0a8.6,8.6,0,0,1,1,.038,2,2,0,0,1,1.72,1.878c.006.108.007.217.007.325q0,10.725,0,21.45a2.135,2.135,0,0,1-.74,1.756,1.978,1.978,0,0,1-1.3.469c-.786,0-1.573,0-2.359,0q-9.234,0-18.467,0a2.024,2.024,0,0,1-2.074-1.6A2.731,2.731,0,0,1,0,25.586Q0,14.82,0,4.055a2.045,2.045,0,0,1,2.2-2.2H3.768m15.613.881c0,.328,0,.678,0,1.028s.082.449.444.521a.415.415,0,0,1-.075.827,1.2,1.2,0,0,1-1.193-1.046,10.723,10.723,0,0,1-.029-1.11c0-.179-.052-.266-.246-.261-.28.007-.56-.013-.84-.013H4.968c-.063,0-.127,0-.19,0-.143-.011-.19.057-.187.193.006.289,0,.579,0,.868,0,.367.092.47.458.544a.427.427,0,0,1,.372.456.419.419,0,0,1-.456.37A1.235,1.235,0,0,1,3.752,3.9c-.009-.316-.011-.633,0-.949.006-.181-.044-.261-.24-.258-.461.005-.922-.016-1.382-.012a1.208,1.208,0,0,0-1.3,1.3c0,1.13,0,2.26,0,3.39,0,.087.01.174.017.283h.346q1.9,0,3.8,0a1.37,1.37,0,0,1,.322.025.361.361,0,0,1,.3.39.375.375,0,0,1-.331.4,1.693,1.693,0,0,1-.3.016H.833c-.007.1-.016.174-.016.245q0,7.647,0,15.294a1.212,1.212,0,0,0,1.306,1.3q7.823,0,15.647,0a.929.929,0,0,0,1.013-1.011c0-.823,0-1.645,0-2.468a1.752,1.752,0,0,1,1.907-1.9c.8,0,1.591,0,2.386,0,.746,0,1.09-.346,1.09-1.1q0-5.017,0-10.034V8.491H7.117a2.311,2.311,0,0,1-.351-.016A.377.377,0,0,1,6.435,8.1a.359.359,0,0,1,.285-.405,1.624,1.624,0,0,1,.4-.034q8.325,0,16.65,0h.374c0-1.348.018-2.649-.009-3.949a1.069,1.069,0,0,0-1.02-1C21.89,2.679,20.662,2.7,19.434,2.7c-.007,0-.015.01-.053.037m4.692,18.668a2.6,2.6,0,0,1-.192.246q-1.905,1.911-3.813,3.819a2.106,2.106,0,0,1-1.539.686q-8.257,0-16.514-.011a3.972,3.972,0,0,1-.983-.252A1.605,1.605,0,0,1,.827,25.8a2.346,2.346,0,0,0,.037.245,1.229,1.229,0,0,0,1.287.906h20.69c.063,0,.127,0,.19,0a1.163,1.163,0,0,0,1.109-1.042c.023-1.473.006-2.946,0-4.419,0-.006-.01-.012-.071-.081M19.6,24.679l3.911-3.91H22.442c-.642,0-1.283-.007-1.925,0a.89.89,0,0,0-.909.887c-.014,1.01,0,2.02,0,3.018M4.578,1.841h1.04c-.055-.332.153-.719-.2-.933a.73.73,0,0,0-.629,0c-.357.208-.161.6-.212.934m15.843.016c-.075-.355.134-.748-.23-.953a.732.732,0,0,0-.629.006c-.348.216-.142.6-.195.932.081.006.133.014.185.014.27,0,.54,0,.868,0" transform="translate(-20006.998 -10554.151)" fill="#3a49a5"/>
    <path id="Trazado_6177" data-name="Trazado 6177" d="M13.971,78.1a2.31,2.31,0,0,0,.351.016H31.374v.326q0,5.017,0,10.033c0,.752-.344,1.1-1.09,1.1-.8,0-1.591,0-2.386,0a1.751,1.751,0,0,0-1.906,1.9c0,.822,0,1.645,0,2.468a.929.929,0,0,1-1.013,1.011q-7.824,0-15.647,0a1.212,1.212,0,0,1-1.306-1.3q0-7.647,0-15.294c0-.071.009-.142.016-.245h4.153a1.692,1.692,0,0,0,.3-.016Zm4.73,3.416c0-.3,0-.6,0-.894a.805.805,0,0,0-.875-.881q-.894-.014-1.787,0a.791.791,0,0,0-.864.859q-.014.907,0,1.814a.792.792,0,0,0,.869.853q.894.011,1.787,0a.805.805,0,0,0,.869-.885c0-.289,0-.578,0-.867m3.762,1.753c.3,0,.6.005.894,0a.8.8,0,0,0,.866-.857q.012-.907,0-1.814a.788.788,0,0,0-.842-.854q-.92-.019-1.841,0a.783.783,0,0,0-.84.829q-.023.934,0,1.868a.788.788,0,0,0,.842.827c.307.008.614,0,.921,0m-5.545,5.027c.316,0,.632,0,.948,0a.774.774,0,0,0,.827-.782c.019-.649.017-1.3,0-1.95a.765.765,0,0,0-.77-.787q-.988-.031-1.977,0a.75.75,0,0,0-.766.757q-.028,1,0,2a.761.761,0,0,0,.816.759c.307,0,.614,0,.921,0m5.534,0c.307,0,.614,0,.921,0a.78.78,0,0,0,.848-.815q.017-.948,0-1.9a.778.778,0,0,0-.8-.812q-.961-.023-1.923,0a.751.751,0,0,0-.785.739c-.025.685-.025,1.372,0,2.057a.747.747,0,0,0,.791.726c.316.006.632,0,.948,0M16.931,89.8c-.307,0-.614,0-.921,0a.779.779,0,0,0-.834.8q-.023.961,0,1.923a.779.779,0,0,0,.839.8q.921.007,1.842,0a.78.78,0,0,0,.835-.777q.03-.988,0-1.977a.776.776,0,0,0-.813-.771c-.316-.007-.632,0-.948,0M9.647,81.485h0q0,.46,0,.921c0,.018,0,.036,0,.054a.77.77,0,0,0,.78.8c.649.017,1.3.016,1.95,0a.762.762,0,0,0,.79-.765c.021-.658.02-1.318,0-1.977a.752.752,0,0,0-.754-.77c-.667-.022-1.336-.023-2,0a.754.754,0,0,0-.76.788c-.011.316,0,.632,0,.948m20.1.036V80.6c0-.018,0-.036,0-.054a.759.759,0,0,0-.754-.8c-.667-.024-1.336-.022-2,0a.735.735,0,0,0-.756.735c-.026.676-.026,1.354,0,2.03a.747.747,0,0,0,.775.747q.975.023,1.95,0a.772.772,0,0,0,.789-.819c.007-.307,0-.614,0-.921m0,5.158c0-.325.007-.65,0-.975a.761.761,0,0,0-.774-.8c-.658-.021-1.318-.02-1.976,0a.745.745,0,0,0-.765.757c-.023.667-.024,1.336,0,2a.746.746,0,0,0,.77.751c.659.016,1.318.017,1.977,0a.761.761,0,0,0,.766-.785c.011-.316,0-.632,0-.948M11.4,88.295c.307,0,.614,0,.921,0a.784.784,0,0,0,.844-.8c.017-.641.016-1.282,0-1.923a.779.779,0,0,0-.787-.8q-.974-.028-1.95,0a.767.767,0,0,0-.783.8q-.018.961,0,1.923a.772.772,0,0,0,.834.8c.307,0,.614,0,.921,0m-.018,5.037c.316,0,.632,0,.948,0a.788.788,0,0,0,.832-.783c.02-.649.018-1.3,0-1.95a.783.783,0,0,0-.822-.792c-.632-.007-1.264-.008-1.9,0a.766.766,0,0,0-.8.78q-.021.975,0,1.95a.777.777,0,0,0,.815.794c.307.006.614,0,.921,0m11.995-.821c-.591,0-1.151,0-1.71-.006a.283.283,0,0,1-.186-.137.4.4,0,0,0-.5-.217.394.394,0,0,0-.278.467.79.79,0,0,0,.815.712c.614.006,1.229,0,1.843,0a.792.792,0,0,0,.856-.841q.014-.921,0-1.843a.791.791,0,0,0-.855-.842c-.488,0-.977.022-1.464-.006-1.057-.059-1.261.406-1.209,1.259,0,.018,0,.036,0,.054.019.282.163.441.407.449s.4-.153.415-.435c.01-.159,0-.318,0-.488h1.862Z" transform="translate(-20014.148 -10623.778)" fill="#aac2f4"/>
    <path id="Trazado_6178" data-name="Trazado 6178" d="M30.868,197.323c.061.069.071.075.071.081,0,1.473.018,2.946,0,4.419a1.163,1.163,0,0,1-1.109,1.042c-.063.005-.126,0-.19,0H8.946a1.229,1.229,0,0,1-1.287-.906,2.375,2.375,0,0,1-.037-.245,1.609,1.609,0,0,0,.206.093,3.97,3.97,0,0,0,.983.252q8.257.023,16.514.011a2.107,2.107,0,0,0,1.539-.686q1.9-1.913,3.813-3.818a2.588,2.588,0,0,0,.192-.246" transform="translate(-20013.795 -10730.067)" fill="#6378f8"/>
    <path id="Trazado_6179" data-name="Trazado 6179" d="M180.694,195.349c0-1-.01-2.008,0-3.018a.89.89,0,0,1,.909-.887c.641-.011,1.283,0,1.925,0H184.6l-3.911,3.91" transform="translate(-20168.086 -10724.821)" fill="#fff"/>
    <path id="Trazado_6180" data-name="Trazado 6180" d="M42.129,8.7c.051-.338-.145-.726.212-.935a.73.73,0,0,1,.629,0c.352.213.144.6.2.933Z" transform="translate(-20044.551 -10561.016)" fill="#fff"/>
    <path id="Trazado_6181" data-name="Trazado 6181" d="M179.475,8.72c-.329,0-.6,0-.868,0-.052,0-.1-.008-.185-.014.052-.331-.153-.717.195-.932a.732.732,0,0,1,.629-.006c.364.206.155.6.23.953" transform="translate(-20166.053 -10561.013)" fill="#fff"/>
    <path id="Trazado_6182" data-name="Trazado 6182" d="M76.917,94.965c0,.289,0,.578,0,.867a.805.805,0,0,1-.87.885q-.894.012-1.787,0a.792.792,0,0,1-.87-.853q-.015-.907,0-1.814a.791.791,0,0,1,.864-.859q.894-.015,1.787,0a.806.806,0,0,1,.875.881c.005.3,0,.6,0,.894m-.83.914c0-.59,0-1.149-.006-1.707a.2.2,0,0,0-.136-.146c-.566-.01-1.132-.007-1.707-.007v1.86Z" transform="translate(-20072.42 -10637.226)" fill="#3a49a5"/>
    <path id="Trazado_6183" data-name="Trazado 6183" d="M126.062,96.708c-.307,0-.614.007-.921,0a.788.788,0,0,1-.842-.827q-.023-.934,0-1.868a.783.783,0,0,1,.84-.829q.92-.019,1.841,0a.788.788,0,0,1,.841.854q.012.907,0,1.814a.8.8,0,0,1-.866.857c-.3.006-.6,0-.894,0m.921-2.7c-.592,0-1.151,0-1.71.005-.05,0-.14.073-.141.113-.009.575-.006,1.149-.006,1.729h1.857Z" transform="translate(-20117.803 -10637.215)" fill="#3a49a5"/>
    <path id="Trazado_6184" data-name="Trazado 6184" d="M75.146,143.059c-.307,0-.614,0-.921,0a.761.761,0,0,1-.816-.759q-.029-1,0-2a.75.75,0,0,1,.766-.757q.988-.029,1.977,0a.765.765,0,0,1,.77.787c.017.65.018,1.3,0,1.95a.774.774,0,0,1-.827.782c-.316,0-.632,0-.948,0m-.9-.838h1.835v-1.852H74.247Z" transform="translate(-20072.432 -10678.537)" fill="#3a49a5"/>
    <path id="Trazado_6185" data-name="Trazado 6185" d="M126.088,143.06c-.316,0-.632,0-.948,0a.747.747,0,0,1-.791-.726c-.027-.685-.026-1.372,0-2.057a.751.751,0,0,1,.785-.739q.961-.024,1.923,0a.778.778,0,0,1,.8.812q.018.948,0,1.9a.78.78,0,0,1-.848.815c-.307,0-.614,0-.921,0m.928-.832v-1.873c-.583,0-1.148,0-1.713.008-.049,0-.133.108-.137.17-.015.269-.007.54-.007.81,0,.292,0,.585,0,.885Z" transform="translate(-20117.838 -10678.54)" fill="#3a49a5"/>
    <path id="Trazado_6186" data-name="Trazado 6186" d="M75.141,186.007c.316,0,.632-.005.948,0a.776.776,0,0,1,.813.771q.031.988,0,1.977a.78.78,0,0,1-.835.777q-.921.007-1.842,0a.778.778,0,0,1-.839-.8q-.024-.961,0-1.923a.778.778,0,0,1,.834-.8c.307-.005.614,0,.921,0m-.918,2.686h1.836v-1.85H74.223Z" transform="translate(-20072.41 -10719.976)" fill="#3a49a5"/>
    <path id="Trazado_6187" data-name="Trazado 6187" d="M22.48,94.939c0-.316-.009-.632,0-.948a.754.754,0,0,1,.76-.788c.667-.022,1.336-.021,2,0a.753.753,0,0,1,.754.77c.018.658.02,1.318,0,1.976a.762.762,0,0,1-.789.765c-.65.015-1.3.016-1.95,0a.77.77,0,0,1-.78-.8c0-.018,0-.036,0-.054v-.921h0m.835.934h1.85V94.042h-1.85Z" transform="translate(-20027.035 -10637.229)" fill="#3a49a5"/>
    <path id="Trazado_6188" data-name="Trazado 6188" d="M178.78,94.976c0,.307.006.614,0,.921a.772.772,0,0,1-.789.819q-.974.023-1.95,0a.747.747,0,0,1-.775-.747c-.025-.676-.025-1.354,0-2.03a.734.734,0,0,1,.756-.735c.667-.02,1.336-.022,2,0a.759.759,0,0,1,.754.8c0,.018,0,.036,0,.054q0,.46,0,.921m-2.679.9h1.832V94.039H176.1Z" transform="translate(-20163.232 -10637.229)" fill="#3a49a5"/>
    <path id="Trazado_6189" data-name="Trazado 6189" d="M178.773,142.474c0,.316.008.632,0,.948a.761.761,0,0,1-.766.784q-.988.027-1.977,0a.747.747,0,0,1-.77-.751c-.025-.667-.024-1.336,0-2a.745.745,0,0,1,.765-.757q.987-.031,1.976,0a.761.761,0,0,1,.774.8c.009.325,0,.65,0,.975m-2.683.89h1.84v-1.836h-1.84Z" transform="translate(-20163.227 -10679.568)" fill="#3a49a5"/>
    <path id="Trazado_6190" data-name="Trazado 6190" d="M24.213,143.057c-.307,0-.614,0-.921,0a.772.772,0,0,1-.834-.8q-.018-.961,0-1.923a.767.767,0,0,1,.783-.8q.974-.027,1.95,0a.779.779,0,0,1,.787.8c.015.641.016,1.282,0,1.923a.784.784,0,0,1-.844.8c-.307,0-.614,0-.921,0m-.923-.835h1.841v-1.852H23.289Z" transform="translate(-20027.01 -10678.536)" fill="#3a49a5"/>
    <path id="Trazado_6191" data-name="Trazado 6191" d="M24.2,189.519c-.307,0-.614,0-.921,0a.777.777,0,0,1-.815-.794q-.019-.975,0-1.95a.766.766,0,0,1,.8-.78c.632-.009,1.264-.008,1.9,0a.783.783,0,0,1,.822.792c.017.65.019,1.3,0,1.95a.788.788,0,0,1-.833.782c-.316,0-.632,0-.948,0m.947-2.694H23.3v1.861h1.842Z" transform="translate(-20027.01 -10719.964)" fill="#3a49a5"/>
    <path id="Trazado_6192" data-name="Trazado 6192" d="M126.973,188.647v-1.873h-1.862c0,.17.008.329,0,.488-.017.282-.176.442-.415.435s-.388-.167-.407-.449c0-.018,0-.036,0-.054-.052-.853.152-1.318,1.209-1.259.486.027.976,0,1.464.006a.791.791,0,0,1,.855.842q.014.922,0,1.843a.792.792,0,0,1-.856.841c-.614,0-1.229.005-1.843,0a.79.79,0,0,1-.815-.712.394.394,0,0,1,.278-.467.4.4,0,0,1,.5.217.283.283,0,0,0,.186.137c.559.011,1.119.006,1.71.006" transform="translate(-20117.793 -10719.911)" fill="#3a49a5"/>
    <path id="Trazado_6193" data-name="Trazado 6193" d="M83.12,102.739H81.271v-1.86c.575,0,1.141,0,1.707.007a.2.2,0,0,1,.136.146c.01.558.006,1.117.006,1.707" transform="translate(-20079.453 -10644.088)" fill="#fff"/>
    <path id="Trazado_6194" data-name="Trazado 6194" d="M133.873,100.875v1.847h-1.857c0-.579,0-1.154.006-1.729,0-.04.091-.113.141-.113.559-.008,1.118-.005,1.71-.005" transform="translate(-20124.689 -10644.084)" fill="#fff"/>
    <rect id="Rectángulo_3451" data-name="Rectángulo 3451" width="1.835" height="1.852" transform="translate(-19998.184 -10538.171)" fill="#fff"/>
    <path id="Trazado_6195" data-name="Trazado 6195" d="M133.817,149.036h-1.858c0-.3,0-.593,0-.885,0-.27-.008-.541.007-.81,0-.062.088-.169.137-.17.565-.012,1.13-.008,1.713-.008Z" transform="translate(-20124.641 -10685.347)" fill="#fff"/>
    <rect id="Rectángulo_3452" data-name="Rectángulo 3452" width="1.836" height="1.85" transform="translate(-19998.191 -10533.136)" fill="#fff"/>
    <rect id="Rectángulo_3453" data-name="Rectángulo 3453" width="1.85" height="1.831" transform="translate(-20003.719 -10543.186)" fill="#fff"/>
    <rect id="Rectángulo_3454" data-name="Rectángulo 3454" width="1.832" height="1.839" transform="translate(-19987.135 -10543.19)" fill="#fff"/>
    <rect id="Rectángulo_3455" data-name="Rectángulo 3455" width="1.84" height="1.836" transform="translate(-19987.139 -10538.039)" fill="#fff"/>
    <rect id="Rectángulo_3456" data-name="Rectángulo 3456" width="1.841" height="1.852" transform="translate(-20003.719 -10538.167)" fill="#fff"/>
    <rect id="Rectángulo_3457" data-name="Rectángulo 3457" width="1.842" height="1.861" transform="translate(-20003.713 -10533.138)" fill="#fff"/>
  </g>
</svg>
