<svg xmlns="http://www.w3.org/2000/svg" width="52.204" height="58.025" viewBox="0 0 52.204 58.025">
  <g id="Grupo_9566" data-name="Grupo 9566" transform="translate(20006.998 10554.152)">
    <path id="Trazado_6196" data-name="Trazado 6196" d="M54.86,33.288H5.711V24.551a2.2,2.2,0,0,1,2.2-2.2H53.046a1.814,1.814,0,0,1,1.814,1.814Z" transform="translate(-20011.412 -10571.437)" fill="#6378f8"/>
    <path id="Trazado_6176" data-name="Trazado 6176" d="M7.872,3.879c-.021-1.21-.143-2.442.92-3.219a3.907,3.907,0,0,1,1.7-.63A2.527,2.527,0,0,1,12.966,1.1c.628.823.41,1.8.485,2.749H38.763c0-.424-.008-.833,0-1.242A2.564,2.564,0,0,1,41.4.007a2.626,2.626,0,0,1,2.918,2.557c.018.412,0,.824,0,1.315.754,0,1.464-.009,2.174,0a17.97,17.97,0,0,1,2.09.08,4.167,4.167,0,0,1,3.594,3.923c.012.226.015.453.015.68q0,22.405.009,44.811a4.46,4.46,0,0,1-1.546,3.667,4.132,4.132,0,0,1-2.712.98c-1.643.006-3.286,0-4.929,0q-19.289,0-38.579,0A4.228,4.228,0,0,1,.105,54.687,5.706,5.706,0,0,1,0,53.45Q0,30.96,0,8.47A4.273,4.273,0,0,1,4.6,3.88c1.057,0,2.113,0,3.268,0m32.616,1.84c0,.684,0,1.416,0,2.147,0,.748.171.938.928,1.088a.867.867,0,0,1-.158,1.727A2.5,2.5,0,0,1,38.767,8.5a22.4,22.4,0,0,1-.06-2.319c0-.374-.108-.555-.514-.545-.584.014-1.17-.028-1.755-.028q-13.029,0-26.059,0c-.132,0-.265.01-.4,0-.3-.024-.4.119-.391.4.012.6,0,1.209,0,1.813.008.766.193.981.957,1.137a.891.891,0,0,1,.776.954.875.875,0,0,1-.952.772A2.58,2.58,0,0,1,7.838,8.154c-.02-.66-.022-1.322,0-1.983.013-.379-.093-.544-.5-.54-.962.011-1.925-.033-2.888-.024A2.523,2.523,0,0,0,1.73,8.33c-.007,2.361,0,4.721,0,7.081,0,.182.021.363.035.591h.724q3.966,0,7.931,0a2.862,2.862,0,0,1,.674.053.754.754,0,0,1,.635.815.783.783,0,0,1-.691.833,3.537,3.537,0,0,1-.62.033q-3.994,0-7.988,0H1.74c-.015.215-.034.364-.034.512q0,15.975,0,31.951a2.531,2.531,0,0,0,2.728,2.72q16.344,0,32.687,0a1.941,1.941,0,0,0,2.117-2.112c.005-1.718,0-3.437,0-5.155a3.659,3.659,0,0,1,3.983-3.978c1.662,0,3.323,0,4.985,0,1.558,0,2.277-.723,2.277-2.294q0-10.481,0-20.961v-.68H14.867a4.828,4.828,0,0,1-.734-.034.787.787,0,0,1-.691-.781.749.749,0,0,1,.6-.847,3.392,3.392,0,0,1,.84-.07q17.392,0,34.783,0h.782c0-2.817.038-5.534-.019-8.249a2.233,2.233,0,0,0-2.131-2.079c-2.563-.078-5.13-.03-7.7-.032-.015,0-.031.02-.11.077m9.8,39a5.435,5.435,0,0,1-.4.513q-3.98,3.991-7.965,7.977a4.4,4.4,0,0,1-3.214,1.433q-17.249,0-34.5-.023a8.3,8.3,0,0,1-2.053-.526,3.354,3.354,0,0,1-.431-.194,4.9,4.9,0,0,0,.077.513A2.567,2.567,0,0,0,4.494,56.3q21.612,0,43.223,0c.132,0,.265,0,.4-.008a2.43,2.43,0,0,0,2.316-2.177c.048-3.076.013-6.154.01-9.231,0-.013-.022-.026-.148-.17m-9.334,6.838,8.171-8.168H46.884c-1.34,0-2.681-.014-4.021.01a1.859,1.859,0,0,0-1.9,1.854c-.029,2.11-.009,4.221-.009,6.3M9.564,3.844h2.173c-.115-.694.319-1.5-.417-1.949a1.525,1.525,0,0,0-1.314,0c-.745.435-.337,1.247-.443,1.952m33.1.034c-.156-.742.279-1.562-.48-1.992a1.53,1.53,0,0,0-1.315.013c-.727.451-.3,1.256-.406,1.948.169.013.278.029.387.03.564,0,1.127,0,1.814,0" transform="translate(-20006.998 -10554.152)" fill="#3a49a5"/>
    <path id="Trazado_6177" data-name="Trazado 6177" d="M20.45,78.1a4.826,4.826,0,0,0,.734.034q17.392,0,34.783,0h.838v.68q0,10.48,0,20.961c0,1.571-.719,2.293-2.277,2.294-1.662,0-3.323,0-4.985,0a3.659,3.659,0,0,0-3.983,3.978c0,1.718,0,3.437,0,5.155a1.941,1.941,0,0,1-2.117,2.112q-16.344,0-32.687,0a2.531,2.531,0,0,1-2.729-2.72q-.008-15.975,0-31.951c0-.148.019-.3.033-.511h.689q3.994,0,7.988,0a3.537,3.537,0,0,0,.621-.033Zm9.881,7.137c0-.622.009-1.245,0-1.867a1.683,1.683,0,0,0-1.827-1.84q-1.867-.03-3.734,0a1.653,1.653,0,0,0-1.806,1.794q-.03,1.894,0,3.79a1.654,1.654,0,0,0,1.816,1.781q1.867.022,3.734,0a1.682,1.682,0,0,0,1.816-1.848c.01-.6,0-1.207,0-1.81M38.19,88.9c.622,0,1.245.011,1.867,0a1.662,1.662,0,0,0,1.81-1.79q.025-1.895,0-3.79a1.645,1.645,0,0,0-1.758-1.784q-1.922-.04-3.847,0a1.635,1.635,0,0,0-1.755,1.732q-.047,1.951,0,3.9a1.647,1.647,0,0,0,1.76,1.728c.64.017,1.282,0,1.923,0M26.607,99.4c.66,0,1.32.007,1.98,0a1.617,1.617,0,0,0,1.728-1.633c.039-1.357.036-2.716,0-4.073a1.6,1.6,0,0,0-1.608-1.645q-2.063-.064-4.129,0a1.567,1.567,0,0,0-1.6,1.581q-.059,2.092,0,4.186a1.589,1.589,0,0,0,1.7,1.586c.641.009,1.282,0,1.924,0m11.561,0c.641,0,1.282,0,1.923,0a1.63,1.63,0,0,0,1.772-1.7q.036-1.979,0-3.96a1.625,1.625,0,0,0-1.675-1.7q-2.007-.049-4.016,0a1.568,1.568,0,0,0-1.639,1.543c-.052,1.431-.053,2.866,0,4.3A1.561,1.561,0,0,0,36.187,99.4c.66.012,1.32,0,1.98,0m-11.534,3.153c-.641,0-1.283-.009-1.924,0a1.626,1.626,0,0,0-1.742,1.68q-.048,2.007,0,4.017a1.627,1.627,0,0,0,1.752,1.669q1.924.014,3.848,0a1.63,1.63,0,0,0,1.745-1.624q.063-2.063,0-4.13a1.622,1.622,0,0,0-1.7-1.611c-.66-.015-1.32,0-1.98,0M11.417,85.174h0q0,.962,0,1.923c0,.038,0,.075,0,.113a1.609,1.609,0,0,0,1.63,1.672c1.357.035,2.716.032,4.073,0a1.592,1.592,0,0,0,1.649-1.6c.044-1.375.041-2.754,0-4.129a1.572,1.572,0,0,0-1.576-1.608c-1.394-.047-2.791-.047-4.185,0a1.575,1.575,0,0,0-1.588,1.646c-.023.659,0,1.32,0,1.98m42,.076V83.326c0-.038,0-.075,0-.113a1.586,1.586,0,0,0-1.575-1.663c-1.393-.049-2.791-.046-4.185,0a1.535,1.535,0,0,0-1.58,1.536c-.055,1.412-.055,2.829,0,4.241a1.56,1.56,0,0,0,1.619,1.56q2.036.049,4.073,0a1.613,1.613,0,0,0,1.648-1.711c.016-.641,0-1.282,0-1.924m0,10.776c0-.679.015-1.358,0-2.037a1.59,1.59,0,0,0-1.616-1.681c-1.375-.043-2.753-.042-4.128,0a1.556,1.556,0,0,0-1.6,1.582c-.048,1.394-.049,2.791,0,4.185a1.559,1.559,0,0,0,1.609,1.57c1.376.034,2.754.036,4.129,0a1.59,1.59,0,0,0,1.6-1.639c.022-.659,0-1.32.006-1.98M15.088,99.4c.641,0,1.282.006,1.924,0a1.638,1.638,0,0,0,1.762-1.662c.035-1.338.033-2.678,0-4.017a1.627,1.627,0,0,0-1.644-1.675q-2.035-.058-4.073,0a1.6,1.6,0,0,0-1.635,1.669q-.038,2.008,0,4.017a1.614,1.614,0,0,0,1.742,1.67c.641.007,1.282,0,1.924,0m-.037,10.523c.66,0,1.321.007,1.981,0a1.645,1.645,0,0,0,1.739-1.635c.041-1.357.038-2.717,0-4.074a1.636,1.636,0,0,0-1.718-1.655c-1.32-.015-2.641-.017-3.961,0a1.6,1.6,0,0,0-1.668,1.63q-.045,2.036,0,4.074a1.622,1.622,0,0,0,1.7,1.658c.641.012,1.283,0,1.924,0m25.058-1.714c-1.235,0-2.4.01-3.572-.013a.592.592,0,0,1-.389-.286.836.836,0,0,0-1.044-.452.822.822,0,0,0-.58.975,1.65,1.65,0,0,0,1.7,1.487c1.284.012,2.568.009,3.851,0a1.655,1.655,0,0,0,1.787-1.757q.029-1.925,0-3.851a1.653,1.653,0,0,0-1.786-1.758c-1.019-.01-2.041.045-3.057-.012-2.208-.124-2.634.848-2.526,2.63,0,.038,0,.075,0,.113.04.589.342.921.85.937s.831-.32.867-.909c.02-.331,0-.664,0-1.019h3.89Z" transform="translate(-20013.197 -10614.554)" fill="#aac2f4"/>
    <path id="Trazado_6178" data-name="Trazado 6178" d="M56.185,197.323c.127.144.149.157.149.17,0,3.077.038,6.154-.01,9.231a2.43,2.43,0,0,1-2.316,2.177c-.131.011-.264.008-.4.008q-21.611,0-43.223,0a2.567,2.567,0,0,1-2.69-1.892,4.962,4.962,0,0,1-.077-.513,3.364,3.364,0,0,0,.431.194,8.292,8.292,0,0,0,2.053.526q17.249.049,34.5.023a4.4,4.4,0,0,0,3.214-1.433q3.974-4,7.965-7.977a5.412,5.412,0,0,0,.4-.514" transform="translate(-20012.895 -10706.757)" fill="#6378f8"/>
    <path id="Trazado_6179" data-name="Trazado 6179" d="M180.7,199.609c0-2.083-.02-4.194.009-6.3a1.859,1.859,0,0,1,1.9-1.854c1.34-.024,2.681-.009,4.021-.01h2.243l-8.171,8.168" transform="translate(-20146.736 -10702.205)" fill="#fff"/>
    <path id="Trazado_6180" data-name="Trazado 6180" d="M42.139,9.8c.106-.705-.3-1.517.443-1.952a1.526,1.526,0,0,1,1.314,0c.735.445.3,1.254.417,1.949Z" transform="translate(-20039.578 -10560.105)" fill="#fff"/>
    <path id="Trazado_6181" data-name="Trazado 6181" d="M180.638,9.832c-.687,0-1.25,0-1.814,0-.109,0-.218-.016-.387-.03.109-.692-.321-1.5.406-1.948a1.53,1.53,0,0,1,1.315-.013c.76.43.324,1.25.48,1.992" transform="translate(-20144.977 -10560.104)" fill="#fff"/>
    <path id="Trazado_6182" data-name="Trazado 6182" d="M80.767,96.905c0,.6.009,1.207,0,1.81a1.683,1.683,0,0,1-1.817,1.849q-1.867.025-3.734,0A1.654,1.654,0,0,1,73.4,98.783q-.032-1.895,0-3.79A1.653,1.653,0,0,1,75.2,93.2q1.867-.031,3.734,0a1.683,1.683,0,0,1,1.827,1.84c.011.622,0,1.245,0,1.867m-1.733,1.909c0-1.233.008-2.4-.013-3.567a.428.428,0,0,0-.284-.3c-1.182-.022-2.365-.014-3.566-.014v3.885Z" transform="translate(-20063.75 -10626.219)" fill="#3a49a5"/>
    <path id="Trazado_6183" data-name="Trazado 6183" d="M128,100.559c-.641,0-1.283.014-1.923,0a1.647,1.647,0,0,1-1.76-1.728q-.049-1.951,0-3.9a1.635,1.635,0,0,1,1.755-1.732q1.922-.04,3.847,0a1.645,1.645,0,0,1,1.758,1.784q.025,1.895,0,3.79a1.662,1.662,0,0,1-1.81,1.79c-.622.013-1.244,0-1.867,0m1.924-5.64c-1.236,0-2.4-.006-3.572.011-.1,0-.293.153-.294.237-.02,1.2-.013,2.4-.013,3.612h3.879Z" transform="translate(-20103.119 -10626.209)" fill="#3a49a5"/>
    <path id="Trazado_6184" data-name="Trazado 6184" d="M77.052,146.908c-.641,0-1.283.007-1.924,0a1.589,1.589,0,0,1-1.7-1.586q-.06-2.091,0-4.185a1.567,1.567,0,0,1,1.6-1.581q2.063-.06,4.129,0a1.6,1.6,0,0,1,1.608,1.645c.035,1.357.038,2.716,0,4.073a1.618,1.618,0,0,1-1.729,1.633c-.66.009-1.32,0-1.98,0m-1.878-1.751h3.833v-3.87H75.175Z" transform="translate(-20063.76 -10662.053)" fill="#3a49a5"/>
    <path id="Trazado_6185" data-name="Trazado 6185" d="M128,146.91c-.66,0-1.32.01-1.98,0a1.56,1.56,0,0,1-1.653-1.516c-.056-1.43-.055-2.866,0-4.3a1.568,1.568,0,0,1,1.639-1.543q2.007-.05,4.017,0a1.625,1.625,0,0,1,1.675,1.7q.038,1.98,0,3.96a1.63,1.63,0,0,1-1.772,1.7c-.641.006-1.282,0-1.924,0m1.939-1.738v-3.914c-1.219,0-2.4-.009-3.579.016-.1,0-.279.227-.286.356-.032.563-.015,1.128-.016,1.693,0,.611,0,1.222,0,1.849Z" transform="translate(-20103.148 -10662.056)" fill="#3a49a5"/>
    <path id="Trazado_6186" data-name="Trazado 6186" d="M77.064,186.009c.66,0,1.321-.011,1.98,0a1.622,1.622,0,0,1,1.7,1.611q.064,2.063,0,4.13A1.63,1.63,0,0,1,79,193.376q-1.924.015-3.848,0a1.626,1.626,0,0,1-1.752-1.669q-.05-2.008,0-4.017a1.626,1.626,0,0,1,1.742-1.68c.641-.011,1.282,0,1.924,0m-1.917,5.612h3.837v-3.865H75.147Z" transform="translate(-20063.742 -10698)" fill="#3a49a5"/>
    <path id="Trazado_6187" data-name="Trazado 6187" d="M22.484,96.847c0-.66-.019-1.321,0-1.98a1.575,1.575,0,0,1,1.588-1.646c1.394-.045,2.791-.045,4.185,0a1.572,1.572,0,0,1,1.576,1.609c.038,1.375.041,2.754,0,4.129a1.592,1.592,0,0,1-1.649,1.6c-1.357.03-2.716.033-4.073,0a1.61,1.61,0,0,1-1.63-1.672c0-.038,0-.075,0-.113V96.847h0M24.228,98.8h3.865V94.973H24.228Z" transform="translate(-20024.381 -10626.219)" fill="#3a49a5"/>
    <path id="Trazado_6188" data-name="Trazado 6188" d="M182.629,96.924c0,.641.012,1.283,0,1.924a1.612,1.612,0,0,1-1.648,1.711q-2.035.049-4.073,0A1.56,1.56,0,0,1,175.285,99c-.052-1.412-.052-2.829,0-4.241a1.534,1.534,0,0,1,1.58-1.536c1.394-.043,2.791-.046,4.185,0a1.585,1.585,0,0,1,1.575,1.663c0,.038,0,.075,0,.113q0,.962,0,1.923m-5.6,1.884h3.827V94.965h-3.827Z" transform="translate(-20142.525 -10626.22)" fill="#3a49a5"/>
    <path id="Trazado_6189" data-name="Trazado 6189" d="M182.621,144.428c0,.66.017,1.32-.005,1.98a1.59,1.59,0,0,1-1.6,1.639q-2.063.055-4.129,0a1.56,1.56,0,0,1-1.61-1.57c-.051-1.393-.05-2.791,0-4.185a1.556,1.556,0,0,1,1.6-1.582q2.063-.065,4.129,0a1.59,1.59,0,0,1,1.616,1.681c.018.678,0,1.358,0,2.037m-5.605,1.859h3.843v-3.836h-3.843Z" transform="translate(-20142.521 -10662.949)" fill="#3a49a5"/>
    <path id="Trazado_6190" data-name="Trazado 6190" d="M26.133,146.906c-.641,0-1.283.006-1.924,0a1.614,1.614,0,0,1-1.742-1.67q-.038-2.008,0-4.017A1.6,1.6,0,0,1,24.1,139.55q2.036-.056,4.073,0a1.627,1.627,0,0,1,1.644,1.676c.032,1.338.034,2.678,0,4.017a1.638,1.638,0,0,1-1.762,1.662c-.641.007-1.282,0-1.924,0m-1.928-1.744h3.847v-3.869H24.205Z" transform="translate(-20024.355 -10662.052)" fill="#3a49a5"/>
    <path id="Trazado_6191" data-name="Trazado 6191" d="M26.1,193.365c-.641,0-1.283.009-1.924,0a1.623,1.623,0,0,1-1.7-1.658q-.04-2.036,0-4.074A1.6,1.6,0,0,1,24.142,186c1.32-.018,2.641-.016,3.961,0a1.636,1.636,0,0,1,1.718,1.656c.036,1.357.039,2.717,0,4.074a1.646,1.646,0,0,1-1.739,1.635c-.66.009-1.32,0-1.98,0m1.978-5.628H24.229v3.887h3.847Z" transform="translate(-20024.355 -10697.991)" fill="#3a49a5"/>
    <path id="Trazado_6192" data-name="Trazado 6192" d="M129.907,191.606v-3.913h-3.89c0,.354.017.688,0,1.019-.036.589-.368.924-.867.909s-.81-.348-.85-.937c0-.038,0-.075,0-.113-.108-1.782.318-2.753,2.526-2.63,1.016.057,2.038,0,3.058.012a1.653,1.653,0,0,1,1.786,1.758q.029,1.925,0,3.851a1.655,1.655,0,0,1-1.787,1.757c-1.284.008-2.567.01-3.851,0a1.65,1.65,0,0,1-1.7-1.487.822.822,0,0,1,.58-.975.837.837,0,0,1,1.044.452.592.592,0,0,0,.389.286c1.168.022,2.337.013,3.572.013" transform="translate(-20103.107 -10697.945)" fill="#3a49a5"/>
    <path id="Trazado_6193" data-name="Trazado 6193" d="M85.134,104.765H81.271v-3.885c1.2,0,2.384-.008,3.566.014a.428.428,0,0,1,.284.3c.021,1.167.013,2.334.013,3.567" transform="translate(-20069.854 -10632.172)" fill="#fff"/>
    <path id="Trazado_6194" data-name="Trazado 6194" d="M135.9,100.875v3.859h-3.879c0-1.211-.006-2.411.013-3.612,0-.084.191-.236.294-.237,1.168-.017,2.336-.011,3.572-.011" transform="translate(-20109.088 -10632.168)" fill="#fff"/>
    <rect id="Rectángulo_3451" data-name="Rectángulo 3451" width="3.833" height="3.87" transform="translate(-19988.586 -10520.769)" fill="#fff"/>
    <path id="Trazado_6195" data-name="Trazado 6195" d="M135.842,151.077h-3.881c0-.628,0-1.238,0-1.849,0-.565-.017-1.13.016-1.693.008-.129.184-.353.286-.356,1.18-.025,2.361-.016,3.579-.016Z" transform="translate(-20109.051 -10667.962)" fill="#fff"/>
    <rect id="Rectángulo_3452" data-name="Rectángulo 3452" width="3.837" height="3.865" transform="translate(-19988.602 -10510.248)" fill="#fff"/>
    <rect id="Rectángulo_3453" data-name="Rectángulo 3453" width="3.865" height="3.825" transform="translate(-20000.146 -10531.245)" fill="#fff"/>
    <rect id="Rectángulo_3454" data-name="Rectángulo 3454" width="3.827" height="3.842" transform="translate(-19965.498 -10531.255)" fill="#fff"/>
    <rect id="Rectángulo_3455" data-name="Rectángulo 3455" width="3.843" height="3.836" transform="translate(-19965.508 -10520.493)" fill="#fff"/>
    <rect id="Rectángulo_3456" data-name="Rectángulo 3456" width="3.847" height="3.869" transform="translate(-20000.146 -10520.761)" fill="#fff"/>
    <rect id="Rectángulo_3457" data-name="Rectángulo 3457" width="3.847" height="3.887" transform="translate(-20000.135 -10510.254)" fill="#fff"/>
  </g>
</svg>
