<svg xmlns="http://www.w3.org/2000/svg" width="128" height="127"><defs><filter id="a" x="0" y="0" width="128" height="127" filterUnits="userSpaceOnUse"><feOffset/><feGaussianBlur stdDeviation="6" result="b"/><feFlood flood-opacity=".161"/><feComposite operator="in" in2="b"/><feComposite in="SourceGraphic"/></filter></defs><g transform="translate(18 18)"><g transform="translate(-18 -18)" filter="url(#a)"><ellipse cx="46" cy="45.5" rx="46" ry="45.5" transform="translate(18 18)" fill="#fff"/></g><circle cx="35.211" cy="35.211" r="35.211" transform="translate(16.777 9.909)" fill="#aac2f4"/><g fill="none"><path d="M46.5 10A35.5 35.5 0 1111 45.5 35.5 35.5 0 0146.5 10z"/><path d="M46.5 12a33.39 33.39 0 00-23.688 9.812A33.39 33.39 0 0013 45.5a33.391 33.391 0 009.812 23.688A33.391 33.391 0 0046.5 79a33.391 33.391 0 0023.688-9.812A33.391 33.391 0 0080 45.5a33.391 33.391 0 00-9.812-23.688A33.391 33.391 0 0046.5 12m0-2C66.106 10 82 25.894 82 45.5S66.106 81 46.5 81 11 65.106 11 45.5 26.894 10 46.5 10z" fill="#3f2e63"/></g></g><path d="M69.035 49.952a8.743 8.743 0 014.069 6.5 7.054 7.054 0 10-4.069-6.5zm-4.623 14.446a7.056 7.056 0 10-7.058-7.056 7.056 7.056 0 007.058 7.056zm2.993.481h-5.987a9.046 9.046 0 00-9.035 9.036v7.323l.019.115.5.158A41.127 41.127 0 0065.19 83.49c6.64 0 10.489-1.893 10.727-2.014l.471-.238h.05v-7.324a9.043 9.043 0 00-9.033-9.035zm11.675-7.285h-5.942a8.7 8.7 0 01-2.684 6.058 10.736 10.736 0 017.668 10.274v2.256a24.314 24.314 0 009.47-1.989l.471-.239h.05v-7.326a9.045 9.045 0 00-9.033-9.034zm-27.05-.48a7.01 7.01 0 003.753-1.089 8.733 8.733 0 013.283-5.57c.007-.132.02-.263.02-.4a7.056 7.056 0 10-7.055 7.055zm6.337 6.538a8.7 8.7 0 01-2.682-6.024c-.22-.016-.438-.034-.663-.034h-5.987A9.045 9.045 0 0040 66.628v7.324l.019.113.5.159A42.361 42.361 0 0050.7 76.137v-2.212a10.738 10.738 0 017.667-10.273z" fill="#3f2e63"/></svg>