<svg xmlns="http://www.w3.org/2000/svg" width="42.918" height="40.402" viewBox="0 0 42.918 40.402">
  <g id="Grupo_9841" data-name="Grupo 9841" transform="translate(9575 -19015)">
    <circle id="Elipse_161" data-name="Elipse 161" cx="20.037" cy="20.037" r="20.037" transform="translate(-9572.155 19015.164)" fill="#aac2f4"/>
    <g id="Exclusi칩n_5" data-name="Exclusi칩n 5" transform="translate(-9575 19015)" fill="none">
      <path d="M20.2,0A20.2,20.2,0,1,1,0,20.2,20.2,20.2,0,0,1,20.2,0Z" stroke="none"/>
      <path d="M 20.20107841491699 1 C 17.6085090637207 1 15.09401893615723 1.507530212402344 12.72745895385742 2.508506774902344 C 10.44112777709961 3.475540161132812 8.387577056884766 4.860149383544922 6.623867034912109 6.623867034912109 C 4.860149383544922 8.387577056884766 3.475540161132812 10.44112777709961 2.508506774902344 12.72745895385742 C 1.507530212402344 15.09401893615723 1 17.6085090637207 1 20.20107841491699 C 1 22.79364776611328 1.507530212402344 25.30813980102539 2.508506774902344 27.67469787597656 C 3.475540161132812 29.96102905273438 4.860149383544922 32.01456832885742 6.623867034912109 33.77828979492188 C 8.387577056884766 35.54200744628906 10.44112777709961 36.92661666870117 12.72745895385742 37.89365005493164 C 15.09401893615723 38.89462661743164 17.6085090637207 39.40215682983398 20.20107841491699 39.40215682983398 C 22.79364776611328 39.40215682983398 25.30813980102539 38.89462661743164 27.67469787597656 37.89365005493164 C 29.96102905273438 36.92661666870117 32.01456832885742 35.54200744628906 33.77828979492188 33.77828979492188 C 35.54200744628906 32.01456832885742 36.92661666870117 29.96102905273438 37.89365005493164 27.67469787597656 C 38.89462661743164 25.30813980102539 39.40215682983398 22.79364776611328 39.40215682983398 20.20107841491699 C 39.40215682983398 17.6085090637207 38.89462661743164 15.09401893615723 37.89365005493164 12.72745895385742 C 36.92661666870117 10.44112777709961 35.54200744628906 8.387577056884766 33.77828979492188 6.623867034912109 C 32.01456832885742 4.860149383544922 29.96102905273438 3.475540161132812 27.67469787597656 2.508506774902344 C 25.30813980102539 1.507530212402344 22.79364776611328 1 20.20107841491699 1 M 20.20107841491699 0 C 31.35781860351562 0 40.40215682983398 9.044328689575195 40.40215682983398 20.20107841491699 C 40.40215682983398 31.35781860351562 31.35781860351562 40.40215682983398 20.20107841491699 40.40215682983398 C 9.044328689575195 40.40215682983398 0 31.35781860351562 0 20.20107841491699 C 0 9.044328689575195 9.044328689575195 0 20.20107841491699 0 Z" stroke="none" fill="#3f2e63"/>
    </g>
    <path id="Trazado_6395" data-name="Trazado 6395" d="M50.589,30.6a8.873,8.873,0,0,1,2.756,2.087,7.913,7.913,0,0,1,.043,10.848A10.366,10.366,0,0,1,47.864,46.7c-1.069.252-2.092.664-3.139,1-.874.277-1.744.568-2.667.87l.329-.942c.049.147.143.044.2.024,1.093-.354,2.182-.719,3.276-1.068.4-.129.822-.212,1.229-.331A10.525,10.525,0,0,0,50.82,44.3a9.15,9.15,0,0,0,2.524-3.162,8.411,8.411,0,0,0,.788-2.906,8,8,0,0,0-.875-4.413,8.77,8.77,0,0,0-2.5-3.022.436.436,0,0,1-.166-.19" transform="translate(-9603.97 18997.646)" fill="#aac2f4"/>
    <path id="Trazado_6399" data-name="Trazado 6399" d="M27.389,68.71a.881.881,0,0,1,.905.905.9.9,0,0,1-.894.9.916.916,0,0,1-.912-.913.9.9,0,0,1,.9-.892" transform="translate(-9582.141 18966.25)" fill="#aac2f4"/>
    <path id="Trazado_6400" data-name="Trazado 6400" d="M56.359,69.6a.879.879,0,0,1,.893-.892.9.9,0,0,1,.913.906.918.918,0,0,1-.927.9.9.9,0,0,1-.879-.913" transform="translate(-9612.011 18966.246)" fill="#aac2f4"/>
    <path id="Trazado_6401" data-name="Trazado 6401" d="M87.043,68.71a.882.882,0,0,1,.905.879.9.9,0,1,1-1.8.039.892.892,0,0,1,.9-.918" transform="translate(-9641.798 18966.25)" fill="#aac2f4"/>
    <rect id="Rect치ngulo_3587" data-name="Rect치ngulo 3587" width="26.242" height="24.213" transform="translate(-9568.17 19022.861)" fill="none"/>
    <g id="Grupo_9789" data-name="Grupo 9789" transform="translate(-9566.465 19026.381)">
      <path id="Trazado_6409" data-name="Trazado 6409" d="M30.19,73.041c-1.535,0-3.069,0-4.6,0a.377.377,0,0,0-.414.254,2.77,2.77,0,0,1-5.057-.006.36.36,0,0,0-.393-.247q-2.73.01-5.46,0a.908.908,0,0,1-1.008-.674.866.866,0,0,1,.655-1.074,2.133,2.133,0,0,1,.411-.028c1.8,0,3.6,0,5.4,0a.362.362,0,0,0,.393-.248A2.771,2.771,0,0,1,25.172,71a.38.38,0,0,0,.408.265q4.618-.012,9.237-.005a.9.9,0,0,1,1.01.667A.865.865,0,0,1,35.2,73a1.917,1.917,0,0,1-.439.04q-2.287,0-4.574,0" transform="translate(-13.217 -58.279)" fill="#3f2e63"/>
      <path id="Trazado_6410" data-name="Trazado 6410" d="M28.281,20.2c-2.174,0-4.348,0-6.522,0a.359.359,0,0,0-.391.244,2.77,2.77,0,0,1-5.057.021.4.4,0,0,0-.439-.266c-.59.014-1.181.019-1.77,0a.872.872,0,0,1-.808-1.26.9.9,0,0,1,.89-.512c.58,0,1.161-.008,1.741,0a.336.336,0,0,0,.371-.233,2.772,2.772,0,0,1,5.083.017c.094.2.209.213.382.213q6.271,0,12.542,0c.187,0,.374,0,.561,0a.916.916,0,0,1,.989.905.9.9,0,0,1-.989.871q-3.29.006-6.581,0" transform="translate(-13.199 -16.532)" fill="#3f2e63"/>
      <path id="Trazado_6411" data-name="Trazado 6411" d="M20.74,44.859q3.277,0,6.553,0a.355.355,0,0,0,.385-.241,2.78,2.78,0,0,1,5.087.02.312.312,0,0,0,.343.221c.6-.011,1.2-.007,1.8,0a.886.886,0,1,1,0,1.769c-.61,0-1.22.006-1.83,0a.274.274,0,0,0-.3.194,2.779,2.779,0,0,1-5.12-.008c-.082-.181-.185-.183-.336-.183q-6.568,0-13.136,0a.922.922,0,0,1-.929-.583.886.886,0,0,1,.871-1.186c1.486,0,2.971,0,4.457,0H20.74" transform="translate(-13.201 -37.42)" fill="#3f2e63"/>
      <path id="Trazado_6412" data-name="Trazado 6412" d="M42.543,76.543a1,1,0,0,1,.993-1.02,1.012,1.012,0,1,1-.993,1.02" transform="translate(-34.118 -62.663)" fill="#f5f6f7"/>
      <path id="Trazado_6413" data-name="Trazado 6413" d="M30.327,22.673a1.013,1.013,0,1,1-.011,2.026,1.013,1.013,0,0,1,.011-2.026" transform="translate(-24.688 -20.909)" fill="#f5f6f7"/>
      <path id="Trazado_6414" data-name="Trazado 6414" d="M70.948,50.123a1,1,0,0,1-1,1.01,1.005,1.005,0,1,1-.01-2.01,1,1,0,0,1,1.01,1" transform="translate(-52.927 -41.804)" fill="#f5f6f7"/>
    </g>
  </g>
</svg>
