<svg xmlns="http://www.w3.org/2000/svg" xmlns:xlink="http://www.w3.org/1999/xlink" width="78.444" height="71.744" viewBox="0 0 78.444 71.744">
  <defs>
    <clipPath id="clip-path">
      <rect id="Rectángulo_3609" data-name="Rectángulo 3609" width="46.222" height="46.209" fill="none"/>
    </clipPath>
  </defs>
  <g id="Grupo_9851" data-name="Grupo 9851" transform="translate(10727.891 -19935.854)">
    <ellipse id="Elipse_161" data-name="Elipse 161" cx="35.582" cy="35.581" rx="35.582" ry="35.581" transform="translate(-10720.609 19936.143)" fill="#aac2f4"/>
    <g id="Exclusión_5" data-name="Exclusión 5" transform="translate(-10727.891 19935.854)" fill="none">
      <path d="M35.873,0A35.872,35.872,0,1,1,0,35.872,35.873,35.873,0,0,1,35.873,0Z" stroke="none"/>
      <path d="M 35.87344360351562 2 C 31.29966735839844 2 26.86376571655273 2.895309448242188 22.68896484375 4.661056518554688 C 18.65557861328125 6.366973876953125 15.03281021118164 8.809589385986328 11.9212760925293 11.9210205078125 C 8.809764862060547 15.03245544433594 6.367088317871094 18.65512084960938 4.661109924316406 22.68837738037109 C 2.895332336425781 26.86304473876953 2 31.29879760742188 2 35.87242126464844 C 2 40.446044921875 2.895332336425781 44.88179779052734 4.661109924316406 49.05646514892578 C 6.367088317871094 53.0897216796875 8.809764862060547 56.71238708496094 11.9212760925293 59.82382202148438 C 15.03281021118164 62.93525695800781 18.65557861328125 65.37786865234375 22.68896484375 67.08378601074219 C 26.86376571655273 68.84953308105469 31.29966735839844 69.74484252929688 35.87344360351562 69.74484252929688 C 40.44721984863281 69.74484252929688 44.88312149047852 68.84953308105469 49.05792236328125 67.08378601074219 C 53.09130859375 65.37786865234375 56.71407699584961 62.93525695800781 59.82561111450195 59.82382202148438 C 62.9371223449707 56.71238708496094 65.37979888916016 53.0897216796875 67.08577728271484 49.05646514892578 C 68.85155487060547 44.88179779052734 69.74688720703125 40.446044921875 69.74688720703125 35.87242126464844 C 69.74688720703125 31.29879760742188 68.85155487060547 26.86304473876953 67.08577728271484 22.68837738037109 C 65.37979888916016 18.65512084960938 62.9371223449707 15.03245544433594 59.82561111450195 11.9210205078125 C 56.71407699584961 8.809589385986328 53.09130859375 6.366973876953125 49.05792236328125 4.661056518554688 C 44.88312149047852 2.895309448242188 40.44721984863281 2 35.87344360351562 2 M 35.87344360351562 0 C 55.68579864501953 0 71.74688720703125 16.06063079833984 71.74688720703125 35.87242126464844 C 71.74688720703125 55.68421173095703 55.68579864501953 71.74484252929688 35.87344360351562 71.74484252929688 C 16.06108856201172 71.74484252929688 0 55.68421173095703 0 35.87242126464844 C 0 16.06063079833984 16.06108856201172 0 35.87344360351562 0 Z" stroke="none" fill="#3f2e63"/>
    </g>
    <path id="Trazado_6395" data-name="Trazado 6395" d="M57.208,30.6A15.757,15.757,0,0,1,62.1,34.309a14.052,14.052,0,0,1,.076,19.263,18.409,18.409,0,0,1-9.81,5.616c-1.9.448-3.716,1.179-5.574,1.768-1.552.493-3.1,1.009-4.737,1.545l.585-1.673c.088.261.253.078.36.043,1.941-.628,3.874-1.277,5.818-1.9.717-.228,1.459-.377,2.183-.589a18.69,18.69,0,0,0,6.615-3.467A16.248,16.248,0,0,0,62.1,49.305a14.935,14.935,0,0,0,1.4-5.16,14.2,14.2,0,0,0-1.554-7.837A15.574,15.574,0,0,0,57.5,30.941a.775.775,0,0,1-.294-.338" transform="translate(-10746.708 19928.779)" fill="#aac2f4"/>
    <path id="Trazado_6399" data-name="Trazado 6399" d="M28.088,68.71A1.564,1.564,0,0,1,29.7,70.317a1.605,1.605,0,0,1-1.587,1.6,1.626,1.626,0,0,1-1.62-1.621,1.6,1.6,0,0,1,1.6-1.584" transform="translate(-10720.021 19902.588)" fill="#aac2f4"/>
    <path id="Trazado_6400" data-name="Trazado 6400" d="M56.359,70.292a1.56,1.56,0,0,1,1.585-1.583,1.605,1.605,0,0,1,1.622,1.608,1.63,1.63,0,0,1-1.646,1.6,1.6,1.6,0,0,1-1.562-1.621" transform="translate(-10749.891 19902.588)" fill="#aac2f4"/>
    <path id="Trazado_6401" data-name="Trazado 6401" d="M87.739,68.71a1.566,1.566,0,0,1,1.608,1.561,1.6,1.6,0,1,1-3.2.068,1.583,1.583,0,0,1,1.592-1.629" transform="translate(-10779.678 19902.588)" fill="#aac2f4"/>
    <rect id="Rectángulo_3587" data-name="Rectángulo 3587" width="46.602" height="42.997" transform="translate(-10715.763 19949.82)" fill="none"/>
    <g id="Grupo_9806" data-name="Grupo 9806" transform="translate(-10713.441 19949.82)">
      <g id="Grupo_9805" data-name="Grupo 9805" clip-path="url(#clip-path)">
        <path id="Trazado_6434" data-name="Trazado 6434" d="M101.82,94.44l1.641.544c.142.662.624.9,1.222,1.085,4.876,1.535,9.724,3.157,14.6,4.706A2.475,2.475,0,0,1,121.2,102.6a2.191,2.191,0,0,1-1.02,2.364c-.787.439-1.6.823-2.384,1.276a31.46,31.46,0,0,0-12.382,13.128c-.1.187-.193.374-.285.564a2.093,2.093,0,0,1-2.086,1.228,2.065,2.065,0,0,1-1.974-1.4c-.479-1.249-.872-2.53-1.268-3.807-.423-1.364-.877-2.719-1.319-4.076-1.316-4.046-2.613-8.1-3.941-12.14Q94,98.11,93.476,96.479a2.524,2.524,0,0,1,.009-1.891,2.231,2.231,0,0,1,2.679-1.275c1.379.376,2.717.882,4.079,1.313a1.415,1.415,0,0,0,1.577-.185" transform="translate(-76.431 -76.375)" fill="#3f2e63"/>
        <path id="Trazado_6435" data-name="Trazado 6435" d="M95.418,87.964c-.356.549-.59.634-1.2.436-1.412-.456-2.826-.9-4.234-1.373a2.124,2.124,0,0,0-2.366.491,2.149,2.149,0,0,0-.449,2.338q3.111,9.576,6.211,19.156c.434,1.34.856,2.684,1.309,4.017a2.132,2.132,0,0,0,2.707,1.447,2.229,2.229,0,0,0,1.357-1.294,30.312,30.312,0,0,1,3.617-5.795,30.961,30.961,0,0,1,10.9-8.753,2.271,2.271,0,0,0,1.374-1.5,2.042,2.042,0,0,0-1.253-2.493c-1.722-.611-3.468-1.152-5.206-1.717q-5.194-1.688-10.391-3.37c-.627-.2-.777-.424-.738-1.047.343-.529.58-.623,1.165-.434q7.738,2.508,15.473,5.024a3.587,3.587,0,0,1,2.55,3.221,3.506,3.506,0,0,1-2.052,3.558,30.294,30.294,0,0,0-9.461,7.078,29.449,29.449,0,0,0-4.646,6.987,3.524,3.524,0,0,1-3.31,2.165,3.569,3.569,0,0,1-3.525-2.506c-.906-2.745-1.791-5.5-2.683-8.247q-2.434-7.5-4.865-15a3.68,3.68,0,0,1,2.773-4.959,3.392,3.392,0,0,1,1.736.1c1.525.493,3.051.982,4.575,1.479.505.165.628.372.63.994" transform="translate(-70.03 -69.898)" fill="#221739"/>
        <path id="Trazado_6436" data-name="Trazado 6436" d="M69.855,1.567c-.241,0-.481.008-.722,0a.728.728,0,0,1-.755-.681.716.716,0,0,1,.606-.819,6.5,6.5,0,0,1,1.842,0,.745.745,0,0,1,.637.8.751.751,0,0,1-.752.695c-.285.013-.571,0-.857,0" transform="translate(-56.015 0)" fill="#2a2a2a"/>
        <path id="Trazado_6437" data-name="Trazado 6437" d="M35.524,8.636a.756.756,0,0,1-.418.617c-.426.248-.849.5-1.281.74a.756.756,0,0,1-1.06-.255A.726.726,0,0,1,33,8.714a12.893,12.893,0,0,1,1.434-.831.769.769,0,0,1,1.09.754" transform="translate(-26.744 -6.394)" fill="#3f2e63"/>
        <path id="Trazado_6438" data-name="Trazado 6438" d="M135.281,34.568a.826.826,0,0,1-.547.793.68.68,0,0,1-.836-.267c-.315-.489-.6-1-.873-1.514a.668.668,0,0,1,.2-.851.631.631,0,0,1,.827-.112,4.633,4.633,0,0,1,1.233,1.951" transform="translate(-108.912 -26.63)" fill="#3f2e63"/>
        <path id="Trazado_6439" data-name="Trazado 6439" d="M8.6,35.534a.741.741,0,0,1-.691-1.009,6.487,6.487,0,0,1,.916-1.587.715.715,0,0,1,.972-.149.73.73,0,0,1,.278.978c-.257.489-.535.968-.825,1.439a.681.681,0,0,1-.65.329" transform="translate(-6.436 -26.76)" fill="#3f2e63"/>
        <path id="Trazado_6440" data-name="Trazado 6440" d="M34.735,135.273a1.448,1.448,0,0,1-.322-.1c-.47-.262-.946-.517-1.4-.811a.732.732,0,0,1-.234-1.059.76.76,0,0,1,1.028-.242c.459.251.913.512,1.357.789a.709.709,0,0,1,.327.856.787.787,0,0,1-.76.563" transform="translate(-26.747 -108.925)" fill="#3f2e63"/>
        <path id="Trazado_6441" data-name="Trazado 6441" d="M107.9,9.354a.751.751,0,0,1-1.066.7,13.418,13.418,0,0,1-1.477-.846.684.684,0,0,1-.263-.908.677.677,0,0,1,.874-.435,5.25,5.25,0,0,1,1.735,1,.608.608,0,0,1,.2.486" transform="translate(-86.033 -6.41)" fill="#3f2e63"/>
        <path id="Trazado_6442" data-name="Trazado 6442" d="M146.417,69.853c0,.254.013.509,0,.762a.783.783,0,0,1-.779.768.766.766,0,0,1-.75-.786c-.01-.508-.011-1.017,0-1.525a.732.732,0,0,1,.723-.756.754.754,0,0,1,.8.729c.02.268,0,.538,0,.807" transform="translate(-118.689 -55.967)" fill="#3f2e63"/>
        <path id="Trazado_6443" data-name="Trazado 6443" d="M69.923,144.833c.254,0,.509-.009.763,0a.762.762,0,0,1,.754.736.746.746,0,0,1-.663.778,14.286,14.286,0,0,1-1.748,0,.761.761,0,0,1,.086-1.515c.269-.011.538,0,.808,0" transform="translate(-56.014 -118.65)" fill="#3f2e63"/>
        <path id="Trazado_6444" data-name="Trazado 6444" d="M9.271,107.851a.714.714,0,0,1-.522-.36c-.281-.459-.562-.919-.8-1.4a.761.761,0,0,1,1.348-.707c.264.434.525.871.762,1.319a.781.781,0,0,1-.785,1.147" transform="translate(-6.437 -86.001)" fill="#3f2e63"/>
        <path id="Trazado_6445" data-name="Trazado 6445" d="M1.574,69.852c0,.271.011.542,0,.811a.731.731,0,0,1-.673.72.682.682,0,0,1-.79-.523,4.789,4.789,0,0,1,0-2.009.668.668,0,0,1,.831-.512.687.687,0,0,1,.634.7c.016.27,0,.541,0,.811h0" transform="translate(0 -55.977)" fill="#2a2a2a"/>
        <path id="Trazado_6446" data-name="Trazado 6446" d="M107.465,115.129c.518.027.712.359.842.774q.975,3.109,1.958,6.216,1.232,3.9,2.467,7.8c.036.114.072.228.1.345a.752.752,0,0,1-.522.99.738.738,0,0,1-.933-.552c-.289-.867-.559-1.74-.835-2.611q-1.855-5.871-3.712-11.74a.889.889,0,0,1,.166-1.035.868.868,0,0,1,.471-.185" transform="translate(-87.444 -94.318)" fill="#f5f6f7"/>
      </g>
    </g>
  </g>
</svg>
