<svg id="Componente_105_1" data-name="Componente 105 – 1" xmlns="http://www.w3.org/2000/svg" width="12.224" height="16.065" viewBox="0 0 12.224 16.065">
  <g id="Grupo_10654" data-name="Grupo 10654" transform="translate(-677.62 -425)">
    <path id="Trazado_7191" data-name="Trazado 7191" d="M29.844,4.05V14.528a.58.58,0,0,0-.029.086,1.651,1.651,0,0,1-.878,1.24,4.109,4.109,0,0,1-.6.211H19.121a.337.337,0,0,0-.056-.024A1.706,1.706,0,0,1,17.621,14.3q0-6.257,0-12.512A1.712,1.712,0,0,1,19.4,0q3.118,0,6.236,0a.333.333,0,0,1,.258.111q.85.856,1.707,1.706L29.844,4.05m-4.455-3c-.05,0-.081-.008-.111-.008q-2.94,0-5.879.007a.668.668,0,0,0-.727.749q0,6.235,0,12.47a.675.675,0,0,0,.759.751h8.606a.674.674,0,0,0,.75-.759q-.009-4.807-.019-9.615V4.462h-.2c-.7,0-1.4.011-2.1-.008a1.08,1.08,0,0,1-.906-.563,1.253,1.253,0,0,1-.171-.69c0-.711,0-1.422,0-2.149" transform="translate(660 425)" fill="#3f2e63"/>
    <path id="Trazado_7192" data-name="Trazado 7192" d="M25.216,8.264c.368,0,.7,0,1.027,0a.514.514,0,0,1,.544.289.523.523,0,0,1-.179.608c-.822.816-1.638,1.637-2.459,2.454a.506.506,0,0,1-.847-.006c-.82-.818-1.636-1.639-2.457-2.455a.518.518,0,0,1-.177-.59.506.506,0,0,1,.538-.3c.336,0,.671,0,1.039,0v-.25q0-1.506,0-3.013c0-.545.23-.775.776-.777.483,0,.967,0,1.45,0a.652.652,0,0,1,.744.741c0,1.012,0,2.024,0,3.035Z" transform="translate(660 425)" fill="#3f2e63"/>
  </g>
</svg>
