<svg xmlns="http://www.w3.org/2000/svg" xmlns:xlink="http://www.w3.org/1999/xlink" width="28.3" height="27.033" viewBox="0 0 28.3 27.033">
  <defs>
    <clipPath id="clip-path">
      <rect id="Rectángulo_4050" data-name="Rectángulo 4050" width="28.3" height="27.033" transform="translate(0 0)" fill="none"/>
    </clipPath>
  </defs>
  <g id="Grupo_10607" data-name="Grupo 10607" transform="translate(0 0)">
    <path id="Trazado_7082" data-name="Trazado 7082" d="M8.6,1.9,5.83,3.016l-5.2.455V26.3H20.081V3.471l-5.163-.455-2.524-.934L10.136.375Z" fill="#6378f8"/>
    <path id="Trazado_7083" data-name="Trazado 7083" d="M17.257,5.643H14.493l-1.114.744-5.632.035L6.269,5.57l-3.487.264V23.4l1.276.71L18,23.927V6.765Z" fill="#aac2f4"/>
    <g id="Grupo_10601" data-name="Grupo 10601">
      <g id="Grupo_10600" data-name="Grupo 10600" clip-path="url(#clip-path)">
        <path id="Trazado_7084" data-name="Trazado 7084" d="M10.136.375h.513A.186.186,0,0,0,10.693.4,1.821,1.821,0,0,1,12.2,1.943a.251.251,0,0,0,.19.139c.281.016.564.006.846.008a1.226,1.226,0,0,1,1.171.642.487.487,0,0,0,.508.285c1.376-.008,2.753,0,4.129,0A1.208,1.208,0,0,1,20.41,4.369q0,10.472,0,20.942a1.2,1.2,0,0,1-1.342,1.347H1.729A1.2,1.2,0,0,1,.376,25.322q0-10.484,0-20.967A1.832,1.832,0,0,1,.42,3.9,1.193,1.193,0,0,1,1.7,3.014c1.376,0,2.753,0,4.129,0a.529.529,0,0,0,.542-.286,1.144,1.144,0,0,1,.995-.624c.333-.015.666-.019,1-.015.149,0,.2-.049.235-.2a2.34,2.34,0,0,1,.2-.575A1.911,1.911,0,0,1,10.136.375ZM18,16.714V11.236Q18,9,18,6.765a1.1,1.1,0,0,0-1.194-1.191c-.772,0-1.544,0-2.316,0a.364.364,0,0,0-.371.223,1.11,1.11,0,0,1-1.034.628q-2.67.008-5.342,0a1.138,1.138,0,0,1-1.082-.63.378.378,0,0,0-.395-.222c-.764.007-1.528,0-2.292,0a1.532,1.532,0,0,0-.352.03,1.1,1.1,0,0,0-.842,1.16q0,1.915,0,3.831m0,4.234v7.994a1.131,1.131,0,0,0,1.276,1.282H16.727A1.132,1.132,0,0,0,18,22.824V21.015" fill="none" stroke="#3a49a5" stroke-linecap="round" stroke-width="0.75"/>
        <path id="Trazado_7085" data-name="Trazado 7085" d="M9.638,11.283h5.177c.085,0,.171,0,.256,0,.333.022.543.217.538.5a.514.514,0,0,1-.525.489c-.068.006-.137,0-.2,0q-5.254,0-10.508,0a1.5,1.5,0,0,1-.354-.035.479.479,0,0,1,.036-.933,1.925,1.925,0,0,1,.331-.022H9.638" fill="#3a49a5"/>
        <path id="Trazado_7086" data-name="Trazado 7086" d="M9.649,18.76H4.365a2.04,2.04,0,0,1-.282-.01.486.486,0,0,1-.021-.96,1.745,1.745,0,0,1,.307-.014H15.014c.364.006.6.2.6.5s-.23.488-.6.488q-2.681,0-5.361,0" fill="#3a49a5"/>
        <path id="Trazado_7087" data-name="Trazado 7087" d="M8.5,9.028q-2.064,0-4.128,0A1.656,1.656,0,0,1,4.043,9,.479.479,0,0,1,4,8.073a1.209,1.209,0,0,1,.329-.038q4.193,0,8.385,0c.416,0,.634.151.658.452A.458.458,0,0,1,12.987,9a1.824,1.824,0,0,1-.331.024q-2.078,0-4.154,0" fill="#3a49a5"/>
        <path id="Trazado_7088" data-name="Trazado 7088" d="M8.531,14.533q2.128,0,4.256,0c.337,0,.534.136.581.386a.474.474,0,0,1-.376.577,1.486,1.486,0,0,1-.306.02H4.354a1.975,1.975,0,0,1-.231-.005A.482.482,0,0,1,3.662,15a.463.463,0,0,1,.485-.459c.649-.011,1.3-.006,1.948-.006H8.531" fill="#3a49a5"/>
        <path id="Trazado_7089" data-name="Trazado 7089" d="M13.556,22c-.521,0-1.042.01-1.561,0a.469.469,0,0,1-.469-.454.5.5,0,0,1,.415-.506.711.711,0,0,1,.153-.018c.982,0,1.963,0,2.944,0a.514.514,0,0,1,.571.5c0,.291-.215.486-.569.491-.495.008-.99,0-1.484,0V22" fill="#3a49a5"/>
        <path id="Trazado_7090" data-name="Trazado 7090" d="M27.787,19.815c.548-.052.677-.412.288-.8L18.8,9.741a1.436,1.436,0,0,0-2.03,0L7.5,19.014c-.389.389-.259.749.288.8l3.149.3a2.747,2.747,0,0,1,1.733,2.554v.023a1.391,1.391,0,0,0,1.391,1.391h7.453a1.391,1.391,0,0,0,1.391-1.391v-.023a2.749,2.749,0,0,1,1.733-2.554Z" fill="#1dce4b"/>
      </g>
    </g>
  </g>
</svg>
