<svg xmlns="http://www.w3.org/2000/svg" xmlns:xlink="http://www.w3.org/1999/xlink" width="20.34" height="25.781" viewBox="0 0 20.34 25.781">
  <defs>
    <clipPath id="clip-path">
      <rect id="Rectángulo_4052" data-name="Rectángulo 4052" width="20.34" height="25.781" transform="translate(0 0)" fill="none"/>
    </clipPath>
  </defs>
  <g id="Grupo_10611" data-name="Grupo 10611" transform="translate(0 0)">
    <g id="Grupo_10608" data-name="Grupo 10608" clip-path="url(#clip-path)">
      <path id="Trazado_7100" data-name="Trazado 7100" d="M5.059.054S.692-.24.382,3.531.375,20.1.375,20.1s-.775,3.581,4.213,3.58,15.377-.043,15.377-.043V.375Z" fill="#6378f8"/>
      <path id="Trazado_7101" data-name="Trazado 7101" d="M2.585,2.2l15.8-.282v15.6H2.894l-1.176.751.2-14.611Z" fill="#aac2f4"/>
      <path id="Trazado_7102" data-name="Trazado 7102" d="M1.918,19.523l1.445-.459,15.028-.009v3.072L2.939,22.032,1.718,20.909Z" fill="#fff"/>
      <path id="Trazado_7103" data-name="Trazado 7103" d="M6.442,20.6H4.319v5.185l2.123-1.537,2.123,1.537V20.6Z" fill="#3a49a5"/>
      <path id="Trazado_7104" data-name="Trazado 7104" d="M3.081.375a7.07,7.07,0,0,0-1.12.407A2.976,2.976,0,0,0,.382,3.531q-.01,8.5,0,16.994a3.072,3.072,0,0,0,3.2,3.156c.385,0,13.092,0,16.059,0a2.562,2.562,0,0,0,.324-.041V.375ZM15.152,1.916h3.236v15.6h-.346q-6.978,0-13.956,0a3.885,3.885,0,0,0-2.152.417c-.007-.133-.015-.221-.015-.309V14.532m0-3.25q0-3.813,0-7.626a1.575,1.575,0,0,1,1.752-1.74h7.518m7.2,20.212s-14.753.04-15.293-.052a1.478,1.478,0,0,1-1.162-1.591,1.517,1.517,0,0,1,1.428-1.42c.111-.007.222-.008.333-.008H18.391Z" fill="none" stroke="#3a49a5" stroke-linecap="round" stroke-width="0.75"/>
      <path id="Trazado_7105" data-name="Trazado 7105" d="M10.2,13.8a.806.806,0,0,1-.8-.805v-.037a.664.664,0,0,0-.433-.605A.635.635,0,0,0,8.7,12.3a.66.66,0,0,0-.464.188l-.023.025a.814.814,0,0,1-.566.237.8.8,0,0,1-.568-.237.815.815,0,0,1-.237-.567.8.8,0,0,1,.237-.569l.021-.025a.666.666,0,0,0-.473-1.132h-.07a.8.8,0,1,1,0-1.606h.038a.7.7,0,0,0,.472-1.169L7.04,7.42A.8.8,0,0,1,8.177,6.282L8.2,6.3a.669.669,0,0,0,.465.19.632.632,0,0,0,.267-.057h.034a.656.656,0,0,0,.4-.605V5.765a.8.8,0,1,1,1.609,0V5.8a.671.671,0,0,0,1.136.472l.024-.024a.8.8,0,0,1,1.367.565v0a.8.8,0,0,1-.233.568l-.026.024a.659.659,0,0,0-.131.731v.034a.661.661,0,0,0,.6.4h.068a.8.8,0,0,1,0,1.609h-.036a.666.666,0,0,0-.473,1.133l.025.022a.822.822,0,0,1,.238.568.8.8,0,0,1-1.369.571l0,0-.025-.023a.669.669,0,0,0-1.133.473v.068a.8.8,0,0,1-.8.808h0M10.17,8.173A1.205,1.205,0,1,0,11.376,9.38,1.2,1.2,0,0,0,10.17,8.173Z" fill="#3a49a5"/>
    </g>
  </g>
</svg>
