<svg xmlns="http://www.w3.org/2000/svg" width="25.873" height="17.249" viewBox="0 0 25.873 17.249">
  <path id="Icon_awesome-eye" data-name="Icon awesome-eye" d="M25.717,12.469A14.407,14.407,0,0,0,12.937,4.5,14.41,14.41,0,0,0,.156,12.469a1.453,1.453,0,0,0,0,1.311,14.407,14.407,0,0,0,12.78,7.969,14.41,14.41,0,0,0,12.78-7.969A1.453,1.453,0,0,0,25.717,12.469Zm-12.78,7.124a6.468,6.468,0,1,1,6.468-6.468A6.468,6.468,0,0,1,12.937,19.593Zm0-10.781a4.281,4.281,0,0,0-1.137.17,2.149,2.149,0,0,1-3.005,3.005,4.3,4.3,0,1,0,4.142-3.175Z" transform="translate(0 -4.5)" fill="#3850eb"/>
</svg>
