<svg id="Grupo_9567" data-name="Grupo 9567" xmlns="http://www.w3.org/2000/svg" width="31.632" height="31.632" viewBox="0 0 31.632 31.632">
  <circle id="Elipse_155" data-name="Elipse 155" cx="15.816" cy="15.816" r="15.816" transform="translate(0 0)" fill="#3850eb"/>
  <path id="Icon_awesome-eraser" data-name="Icon awesome-eraser" d="M21.133,12.518a2.037,2.037,0,0,0,0-2.881l-6.79-6.79a2.037,2.037,0,0,0-2.881,0L.6,13.711a2.037,2.037,0,0,0,0,2.881l4.074,4.074a2.037,2.037,0,0,0,1.44.6H21.22a.509.509,0,0,0,.509-.509v-1.7a.509.509,0,0,0-.509-.509H15.1l6.029-6.029ZM8.289,9.86l5.83,5.83-2.857,2.857H6.393L3,15.152,8.289,9.86Z" transform="translate(4.546 3.787)" fill="#fff" stroke="#3850eb" stroke-width="0.75"/>
</svg>
