<svg xmlns="http://www.w3.org/2000/svg" xmlns:xlink="http://www.w3.org/1999/xlink" width="47.896" height="44.5" viewBox="0 0 47.896 44.5">
  <defs>
    <clipPath id="clip-path">
      <rect id="Rect치ngulo_3103" data-name="Rect치ngulo 3103" width="29.166" height="30.069" fill="#6b4b8b"/>
    </clipPath>
  </defs>
  <g id="Grupo_9385" data-name="Grupo 9385" transform="translate(-13.063 -224.499)">
    <g id="Grupo_8822" data-name="Grupo 8822" transform="translate(-479.938 -3.501)">
      <circle id="Elipse_161" data-name="Elipse 161" cx="22.228" cy="22.228" r="22.228" transform="translate(496.439 228.043)" fill="#e1dbe8"/>
      <g id="Exclusi칩n_5" data-name="Exclusi칩n 5" transform="translate(493 228)" fill="none">
        <path d="M22,0A22,22,0,1,1,0,22,22,22,0,0,1,22,0Z" stroke="none"/>
        <path d="M 22 2 C 19.29912948608398 2 16.68012046813965 2.528518676757812 14.2157096862793 3.570880889892578 C 11.83435821533203 4.578098297119141 9.695270538330078 6.020450592041016 7.857860565185547 7.857860565185547 C 6.020450592041016 9.695270538330078 4.578098297119141 11.83435821533203 3.570880889892578 14.2157096862793 C 2.528518676757812 16.68012046813965 2 19.29912948608398 2 22 C 2 24.70085906982422 2.528518676757812 27.31987953186035 3.570880889892578 29.7842903137207 C 4.578098297119141 32.16563034057617 6.020450592041016 34.30471801757812 7.857860565185547 36.14212799072266 C 9.695270538330078 37.97954940795898 11.83435821533203 39.42189788818359 14.2157096862793 40.42911911010742 C 16.68012046813965 41.47148132324219 19.29912948608398 42 22 42 C 24.70085906982422 42 27.31986999511719 41.47148132324219 29.7842903137207 40.42911911010742 C 32.16563034057617 39.42189788818359 34.30471801757812 37.97954940795898 36.14212799072266 36.14212799072266 C 37.97954940795898 34.30471801757812 39.42189788818359 32.16563034057617 40.42911911010742 29.7842903137207 C 41.47148132324219 27.31986999511719 42 24.70085906982422 42 22 C 42 19.29912948608398 41.47148132324219 16.68012046813965 40.42911911010742 14.2157096862793 C 39.42189788818359 11.83435821533203 37.97954940795898 9.695270538330078 36.14212799072266 7.857860565185547 C 34.30471801757812 6.020450592041016 32.16563034057617 4.578098297119141 29.7842903137207 3.570880889892578 C 27.31987953186035 2.528518676757812 24.70085906982422 2 22 2 M 22 0 C 34.15026092529297 0 44 9.8497314453125 44 22 C 44 34.15026092529297 34.15026092529297 44 22 44 C 9.8497314453125 44 0 34.15026092529297 0 22 C 0 9.8497314453125 9.8497314453125 0 22 0 Z" stroke="none" fill="#6b4b8b"/>
      </g>
    </g>
    <g id="Grupo_9088" data-name="Grupo 9088" transform="translate(20.063 231.714)">
      <g id="Grupo_9089" data-name="Grupo 9089" transform="translate(0 0)" clip-path="url(#clip-path)">
        <path id="Trazado_6030" data-name="Trazado 6030" d="M39.377,30.242q0,2.866,0,5.732a.922.922,0,0,1-1.017,1.035q-1.6.013-3.2,0a.834.834,0,0,1-.937-.949q0-5.838,0-11.677a.832.832,0,0,1,.94-.945q1.6-.01,3.2,0a.922.922,0,0,1,1.013,1.037q0,2.884,0,5.768" transform="translate(-22.176 -15.187)" fill="#6b4b8b"/>
        <path id="Trazado_6031" data-name="Trazado 6031" d="M52.281,41.109c0-1.151,0-2.3,0-3.452a.884.884,0,0,1,.982-.994c1.044,0,2.088-.011,3.132,0a.951.951,0,0,1,1.076,1.062q-.021,3.4,0,6.8a.948.948,0,0,1-1.043,1.057q-1.584.008-3.167,0a.867.867,0,0,1-.981-.985c0-1.163,0-2.325,0-3.488" transform="translate(-33.883 -23.758)" fill="#6b4b8b"/>
        <path id="Trazado_6032" data-name="Trazado 6032" d="M9.1,1.876c-.627-.264-1.184-.494-1.737-.733C6.948.964,6.8.708,6.917.378s.419-.476.847-.3c.856.344,1.7.729,2.542,1.1.184.08.37.157.557.23a.574.574,0,0,1,.366.826c-.472,1.041-.962,2.075-1.456,3.106a.57.57,0,0,1-.754.278.562.562,0,0,1-.271-.756c.26-.62.541-1.232.838-1.905-.147.05-.244.075-.334.114A13.842,13.842,0,0,0,5.008,5.925a13.339,13.339,0,0,0-3.323,5.661,11.387,11.387,0,0,0-.232,6.2,13.058,13.058,0,0,0,3.029,5.941c.51.556,1.1,1.037,1.664,1.542a.6.6,0,0,1,.232.748c-.166.378-.57.435-.952.147A13.007,13.007,0,0,1,2.679,23.3,13.951,13.951,0,0,1,1.44,8.9a13.667,13.667,0,0,1,3-4.065A14.429,14.429,0,0,1,8.672,2.068c.12-.048.236-.106.428-.192" transform="translate(0 0)" fill="#6b4b8b"/>
        <path id="Trazado_6033" data-name="Trazado 6033" d="M52.641,33.98a12.011,12.011,0,0,0,3.167-1.739,12.276,12.276,0,0,0,3.489-3.93,12.512,12.512,0,0,0,.283-12.518A12.135,12.135,0,0,0,56.5,11.931c-.144-.121-.317-.207-.458-.33a.568.568,0,0,1-.114-.819.611.611,0,0,1,.833-.106,4.549,4.549,0,0,1,.683.568c.612.644,1.227,1.288,1.8,1.964a12.7,12.7,0,0,1,2.877,6.946,13.722,13.722,0,0,1-2.534,9.892,12.356,12.356,0,0,1-3.079,3.124c-1.038.7-2.144,1.291-3.183,1.909.454.2,1,.445,1.547.693.423.192.579.51.418.836s-.469.39-.891.206l-2.866-1.247c-.524-.228-.634-.5-.408-1.01.422-.953.849-1.9,1.27-2.857a.609.609,0,0,1,.62-.437.551.551,0,0,1,.531.812c-.159.376-.369.731-.548,1.1-.118.243-.219.494-.357.807" transform="translate(-33.063 -6.843)" fill="#6b4b8b"/>
        <path id="Trazado_6034" data-name="Trazado 6034" d="M21.186,48.441c0,.652,0,1.3,0,1.956a.846.846,0,0,1-.92.935q-1.636.014-3.272,0a.829.829,0,0,1-.912-.874q-.027-2.027,0-4.054a.83.83,0,0,1,.92-.865q1.636-.009,3.272,0a.843.843,0,0,1,.91.91c.007.664,0,1.328,0,1.992" transform="translate(-10.413 -29.511)" fill="#6b4b8b"/>
        <path id="Trazado_6035" data-name="Trazado 6035" d="M21.53,75.579c-.011.508-.375.79-.747.632a13.838,13.838,0,0,1-1.541-.789.558.558,0,0,1,.53-.973,16.563,16.563,0,0,1,1.506.779c.139.082.207.285.251.351" transform="translate(-12.312 -48.216)" fill="#6b4b8b"/>
        <path id="Trazado_6036" data-name="Trazado 6036" d="M59.2,6.947c.012.541-.408.823-.811.627q-.763-.371-1.5-.8a.484.484,0,0,1-.155-.66.651.651,0,0,1,.829-.269c.365.166.714.365,1.068.555a1.239,1.239,0,0,1,.326.209,2.285,2.285,0,0,1,.24.339" transform="translate(-36.731 -3.753)" fill="#6b4b8b"/>
        <path id="Trazado_6037" data-name="Trazado 6037" d="M27.977,78.1c.519.146.949.235,1.353.391a.491.491,0,0,1,.282.649.5.5,0,0,1-.584.4,7.237,7.237,0,0,1-1.19-.316.471.471,0,0,1-.291-.64c.082-.2.3-.34.432-.485" transform="translate(-17.826 -50.619)" fill="#6b4b8b"/>
        <path id="Trazado_6038" data-name="Trazado 6038" d="M50.2,3.2a10.873,10.873,0,0,1,1.138.387.492.492,0,0,1,.2.68.489.489,0,0,1-.6.324,10.216,10.216,0,0,1-1.023-.279.524.524,0,0,1-.376-.638c.056-.29.251-.443.654-.474" transform="translate(-32.101 -2.077)" fill="#6b4b8b"/>
        <path id="Trazado_6039" data-name="Trazado 6039" d="M44.01,2.236c.081.012.246.029.408.065a.521.521,0,0,1,.437.567.52.52,0,0,1-.515.536,1.971,1.971,0,0,1-.668-.065.525.525,0,0,1-.393-.63c.046-.312.283-.481.731-.473" transform="translate(-28.044 -1.449)" fill="#6b4b8b"/>
        <path id="Trazado_6040" data-name="Trazado 6040" d="M35.94,81.049c-.068-.011-.221-.026-.37-.06a.568.568,0,0,1-.465-.614.593.593,0,0,1,.627-.505c.118.005.235.028.352.039.336.034.706.364.675.6a.759.759,0,0,1-.82.536" transform="translate(-22.748 -51.763)" fill="#6b4b8b"/>
      </g>
    </g>
  </g>
</svg>
