<svg xmlns="http://www.w3.org/2000/svg" xmlns:xlink="http://www.w3.org/1999/xlink" width="398.322" height="296.837" viewBox="0 0 398.322 296.837">
  <defs>
    <clipPath id="clip-path">
      <rect id="Rectángulo_3524" data-name="Rectángulo 3524" width="398.322" height="296.837" fill="none"/>
    </clipPath>
    <clipPath id="clip-path-5">
      <rect id="Rectángulo_3501" data-name="Rectángulo 3501" width="19.437" height="23.942" fill="none"/>
    </clipPath>
    <clipPath id="clip-path-6">
      <rect id="Rectángulo_3502" data-name="Rectángulo 3502" width="5.21" height="14.227" fill="none"/>
    </clipPath>
    <clipPath id="clip-path-7">
      <rect id="Rectángulo_3503" data-name="Rectángulo 3503" width="40.042" height="140.951" fill="none"/>
    </clipPath>
    <clipPath id="clip-path-8">
      <rect id="Rectángulo_3504" data-name="Rectángulo 3504" width="8.25" height="44.935" fill="none"/>
    </clipPath>
    <clipPath id="clip-path-9">
      <rect id="Rectángulo_3505" data-name="Rectángulo 3505" width="20.991" height="140.951" fill="none"/>
    </clipPath>
    <clipPath id="clip-path-10">
      <rect id="Rectángulo_3506" data-name="Rectángulo 3506" width="6.83" height="130.562" fill="none"/>
    </clipPath>
    <clipPath id="clip-path-11">
      <rect id="Rectángulo_3507" data-name="Rectángulo 3507" width="21.158" height="24.546" fill="none"/>
    </clipPath>
    <clipPath id="clip-path-12">
      <rect id="Rectángulo_3508" data-name="Rectángulo 3508" width="35.662" height="52.405" fill="none"/>
    </clipPath>
    <clipPath id="clip-path-14">
      <rect id="Rectángulo_3510" data-name="Rectángulo 3510" width="40.906" height="40.905" fill="none"/>
    </clipPath>
    <clipPath id="clip-path-15">
      <rect id="Rectángulo_3511" data-name="Rectángulo 3511" width="23.319" height="18.8" fill="none"/>
    </clipPath>
    <clipPath id="clip-path-16">
      <rect id="Rectángulo_3512" data-name="Rectángulo 3512" width="34.117" height="19.233" fill="none"/>
    </clipPath>
    <clipPath id="clip-path-17">
      <rect id="Rectángulo_3513" data-name="Rectángulo 3513" width="11.908" height="14.967" fill="none"/>
    </clipPath>
    <clipPath id="clip-path-21">
      <rect id="Rectángulo_3517" data-name="Rectángulo 3517" width="40.905" height="40.905" fill="none"/>
    </clipPath>
    <clipPath id="clip-path-26">
      <rect id="Rectángulo_3522" data-name="Rectángulo 3522" width="99.7" height="101.197" fill="none"/>
    </clipPath>
  </defs>
  <g id="Grupo_9723" data-name="Grupo 9723" clip-path="url(#clip-path)">
    <rect id="Rectángulo_3466" data-name="Rectángulo 3466" width="398.322" height="0.199" transform="translate(0 260.858)" fill="#e6e6e6"/>
    <rect id="Rectángulo_3467" data-name="Rectángulo 3467" width="43.288" height="0.199" transform="translate(41.143 270.31)" fill="#e6e6e6"/>
    <rect id="Rectángulo_3468" data-name="Rectángulo 3468" width="16.299" height="0.199" transform="translate(183.659 265.984)" fill="#e6e6e6"/>
    <rect id="Rectángulo_3469" data-name="Rectángulo 3469" width="23.853" height="0.199" transform="translate(120.567 265.984)" fill="#e6e6e6"/>
    <rect id="Rectángulo_3470" data-name="Rectángulo 3470" width="50.463" height="0.199" transform="translate(291.226 268.275)" fill="#e6e6e6"/>
    <rect id="Rectángulo_3471" data-name="Rectángulo 3471" width="11.382" height="0.199" transform="translate(179.192 268.275)" fill="#e6e6e6"/>
    <rect id="Rectángulo_3472" data-name="Rectángulo 3472" width="10.622" height="0.199" transform="translate(92.145 270.31)" fill="#e6e6e6"/>
    <rect id="Rectángulo_3473" data-name="Rectángulo 3473" width="6.779" height="0.199" transform="translate(348.194 268.275)" fill="#e6e6e6"/>
    <g id="Grupo_9654" data-name="Grupo 9654">
      <g id="Grupo_9653" data-name="Grupo 9653" clip-path="url(#clip-path)">
        <path id="Trazado_6234" data-name="Trazado 6234" d="M196.585,225.328H42.754a4.552,4.552,0,0,1-4.547-4.547V4.547A4.553,4.553,0,0,1,42.754,0H196.585a4.553,4.553,0,0,1,4.546,4.547V220.781a4.552,4.552,0,0,1-4.546,4.547M42.754.2a4.353,4.353,0,0,0-4.348,4.348V220.781a4.353,4.353,0,0,0,4.348,4.348H196.585a4.353,4.353,0,0,0,4.347-4.348V4.547A4.353,4.353,0,0,0,196.585.2Z" transform="translate(-7.77)" fill="#e6e6e6"/>
        <path id="Trazado_6235" data-name="Trazado 6235" d="M412.883,225.328H259.051a4.552,4.552,0,0,1-4.546-4.547V4.547A4.553,4.553,0,0,1,259.051,0H412.883a4.553,4.553,0,0,1,4.547,4.547V220.781a4.552,4.552,0,0,1-4.547,4.547M259.051.2A4.352,4.352,0,0,0,254.7,4.547V220.781a4.352,4.352,0,0,0,4.347,4.348H412.883a4.353,4.353,0,0,0,4.348-4.348V4.547A4.353,4.353,0,0,0,412.883.2Z" transform="translate(-51.755)" fill="#e6e6e6"/>
        <rect id="Rectángulo_3474" data-name="Rectángulo 3474" width="177.568" height="103.212" transform="translate(150.778 24.387)" fill="#e6e6e6"/>
        <rect id="Rectángulo_3475" data-name="Rectángulo 3475" width="177.568" height="103.212" transform="translate(153.179 24.387)" fill="#f5f5f5"/>
        <rect id="Rectángulo_3476" data-name="Rectángulo 3476" width="168.943" height="93.525" transform="translate(157.492 29.23)" fill="#fff"/>
        <rect id="Rectángulo_3477" data-name="Rectángulo 3477" width="1.816" height="93.525" transform="translate(324.62 29.23)" fill="#e6e6e6"/>
        <rect id="Rectángulo_3478" data-name="Rectángulo 3478" width="174.001" height="6.503" transform="translate(154.964 93.686)" fill="#f5f5f5"/>
        <rect id="Rectángulo_3479" data-name="Rectángulo 3479" width="29.156" height="64.644" transform="translate(172.39 192.117)" fill="#e6e6e6"/>
        <rect id="Rectángulo_3480" data-name="Rectángulo 3480" width="128.358" height="4.096" transform="translate(177.989 256.761)" fill="#e6e6e6"/>
        <rect id="Rectángulo_3481" data-name="Rectángulo 3481" width="110.399" height="64.644" transform="translate(201.547 192.117)" fill="#f5f5f5"/>
        <rect id="Rectángulo_3482" data-name="Rectángulo 3482" width="87.472" height="21.201" transform="translate(213.011 200.074)" fill="#e6e6e6"/>
        <rect id="Rectángulo_3483" data-name="Rectángulo 3483" width="87.472" height="21.201" transform="translate(213.011 227.603)" fill="#e6e6e6"/>
        <path id="Trazado_6236" data-name="Trazado 6236" d="M331.721,265.536H305.5a1.288,1.288,0,0,1-1.284-1.284v-.339a1.288,1.288,0,0,1,1.284-1.285h26.222a1.288,1.288,0,0,1,1.284,1.285v.339a1.288,1.288,0,0,1-1.284,1.284" transform="translate(-61.864 -53.407)" fill="#f5f5f5"/>
        <path id="Trazado_6237" data-name="Trazado 6237" d="M331.721,300.092H305.5a1.288,1.288,0,0,1-1.284-1.284v-.339a1.288,1.288,0,0,1,1.284-1.284h26.222a1.288,1.288,0,0,1,1.284,1.284v.339a1.288,1.288,0,0,1-1.284,1.284" transform="translate(-61.864 -60.434)" fill="#f5f5f5"/>
        <path id="Trazado_6238" data-name="Trazado 6238" d="M125.341,274.843H63.222L54.657,68.774h62.119Z" transform="translate(-11.115 -13.986)" fill="#e6e6e6"/>
        <path id="Trazado_6239" data-name="Trazado 6239" d="M134.739,274.843H65.222L56.658,68.774h69.517Z" transform="translate(-11.522 -13.986)" fill="#f5f5f5"/>
        <path id="Trazado_6240" data-name="Trazado 6240" d="M74,269.5,66.031,77.774h55.177l7.969,191.73Z" transform="translate(-13.428 -15.816)" fill="#fff"/>
        <path id="Trazado_6241" data-name="Trazado 6241" d="M284.209,212.056c.772-21.765,1.6-51.918-.09-62.834l-2.752-2.124s.6,2.035.919,35.381.71,24.622.373,29.577Z" transform="translate(-57.218 -29.913)" fill="#e0e0e0"/>
        <path id="Trazado_6242" data-name="Trazado 6242" d="M289.695,135.131c5.082-6.889,15.782-11.786,26.86-11.761,4.349.01-12.952,8.013-19.956,16.844-5.44,6.861-11.442,18.4-13.4,24.808.939-13.478,1.41-23,6.492-29.892" transform="translate(-57.591 -25.088)" fill="#e0e0e0"/>
        <path id="Trazado_6243" data-name="Trazado 6243" d="M271.706,157.268c-4.669-7.175-15.064-12.691-26.125-13.314-4.342-.245,12.46,8.758,18.935,17.984,5.029,7.168,10.344,19.041,11.919,25.551-.147-13.511-.06-23.046-4.729-30.221" transform="translate(-49.797 -29.273)" fill="#e0e0e0"/>
        <path id="Trazado_6244" data-name="Trazado 6244" d="M274.625,118.647c-4.248-8.37-14.176-16.439-24.976-19.723-4.24-1.289,13.341,13.431,18.366,24.666,3.9,8.728,8.632,19.774,9.882,26.731.463-13.689.977-23.3-3.272-31.675" transform="translate(-50.635 -20.101)" fill="#e0e0e0"/>
        <path id="Trazado_6245" data-name="Trazado 6245" d="M280.836,234.759h0a10.115,10.115,0,0,0,10.1-9.535l.893-15.536H269.844l.893,15.536a10.115,10.115,0,0,0,10.1,9.535" transform="translate(-54.875 -42.641)" fill="#f0f0f0"/>
        <path id="Trazado_6246" data-name="Trazado 6246" d="M267.875,212.46h24.832l.711-6.442H267.164Z" transform="translate(-54.33 -41.895)" fill="#ebebeb"/>
        <rect id="Rectángulo_3484" data-name="Rectángulo 3484" width="16.444" height="44.612" transform="translate(319.116 19.29)" fill="#e6e6e6"/>
        <rect id="Rectángulo_3485" data-name="Rectángulo 3485" width="8.151" height="41.027" transform="translate(310.964 19.29)" fill="#f5f5f5"/>
        <rect id="Rectángulo_3486" data-name="Rectángulo 3486" width="16.444" height="44.612" transform="translate(294.521 19.29)" fill="#e6e6e6"/>
        <rect id="Rectángulo_3487" data-name="Rectángulo 3487" width="8.151" height="41.027" transform="translate(286.37 19.29)" fill="#f5f5f5"/>
        <rect id="Rectángulo_3488" data-name="Rectángulo 3488" width="16.444" height="44.612" transform="translate(269.926 19.29)" fill="#e6e6e6"/>
        <rect id="Rectángulo_3489" data-name="Rectángulo 3489" width="8.151" height="41.027" transform="translate(261.775 19.29)" fill="#f5f5f5"/>
        <rect id="Rectángulo_3490" data-name="Rectángulo 3490" width="16.444" height="44.612" transform="translate(245.331 19.29)" fill="#e6e6e6"/>
        <rect id="Rectángulo_3491" data-name="Rectángulo 3491" width="8.151" height="41.027" transform="translate(237.18 19.29)" fill="#f5f5f5"/>
        <rect id="Rectángulo_3492" data-name="Rectángulo 3492" width="16.444" height="44.612" transform="translate(220.736 19.29)" fill="#e6e6e6"/>
        <rect id="Rectángulo_3493" data-name="Rectángulo 3493" width="8.151" height="41.027" transform="translate(212.585 19.29)" fill="#f5f5f5"/>
        <rect id="Rectángulo_3494" data-name="Rectángulo 3494" width="16.444" height="44.612" transform="translate(196.142 19.29)" fill="#e6e6e6"/>
        <rect id="Rectángulo_3495" data-name="Rectángulo 3495" width="8.151" height="41.027" transform="translate(187.991 19.29)" fill="#f5f5f5"/>
        <rect id="Rectángulo_3496" data-name="Rectángulo 3496" width="16.444" height="44.612" transform="translate(171.548 19.29)" fill="#e6e6e6"/>
        <rect id="Rectángulo_3497" data-name="Rectángulo 3497" width="8.151" height="41.027" transform="translate(163.396 19.29)" fill="#f5f5f5"/>
        <rect id="Rectángulo_3498" data-name="Rectángulo 3498" width="16.444" height="44.612" transform="translate(146.953 19.29)" fill="#e6e6e6"/>
      </g>
    </g>
    <g id="Grupo_9656" data-name="Grupo 9656">
      <g id="Grupo_9655" data-name="Grupo 9655" clip-path="url(#clip-path)">
        <path id="Trazado_6247" data-name="Trazado 6247" d="M365.032,358.983c0,4.982-69.154,9.02-154.461,9.02s-154.46-4.038-154.46-9.02,69.154-9.02,154.46-9.02,154.461,4.039,154.461,9.02" transform="translate(-11.411 -71.167)" fill="#f5f5f5"/>
      </g>
    </g>
    <path id="Trazado_6248" data-name="Trazado 6248" d="M352.418,163.989l3.387,5.176,5.032-1.036-3.8-6.44Z" transform="translate(-71.667 -32.88)" fill="#9f5b53"/>
    <g id="Grupo_9682" data-name="Grupo 9682">
      <g id="Grupo_9681" data-name="Grupo 9681" clip-path="url(#clip-path)">
        <path id="Trazado_6249" data-name="Trazado 6249" d="M362.707,108.871c.712.869,1.315,1.642,1.926,2.483q.914,1.239,1.785,2.5c1.161,1.686,2.268,3.409,3.3,5.19s2.038,3.59,2.921,5.494c.464.931.868,1.919,1.294,2.881.382,1,.785,1.976,1.111,3.021l.255.771.128.391c.067.234.143.481.186.708a9.362,9.362,0,0,1,.179,2.525,14.409,14.409,0,0,1-.856,3.859,30.44,30.44,0,0,1-2.98,5.908,58.1,58.1,0,0,1-7.744,9.588l-3.445-2.727a112.244,112.244,0,0,0,5.241-10.072,28.48,28.48,0,0,0,1.731-4.882,6.907,6.907,0,0,0,.213-1.922.884.884,0,0,0-.09-.4c0-.014-.015,0-.015,0l-.128-.3-.26-.61a68.792,68.792,0,0,0-5.258-9.641c-1-1.581-2.066-3.137-3.136-4.688-1.054-1.536-2.224-3.107-3.275-4.515Z" transform="translate(-72.353 -22.14)" fill="#9f5b53"/>
        <path id="Trazado_6250" data-name="Trazado 6250" d="M360.079,103.9c5.485,1.257,11.776,16.212,11.776,16.212l-11.017,7.551a92.627,92.627,0,0,1-7.277-12.371c-3.251-6.845.909-12.678,6.517-11.392" transform="translate(-71.667 -21.093)" fill="#407bff"/>
        <g id="Grupo_9659" data-name="Grupo 9659" transform="translate(280.752 82.631)" opacity="0.8">
          <g id="Grupo_9658" data-name="Grupo 9658">
            <g id="Grupo_9657" data-name="Grupo 9657" clip-path="url(#clip-path-5)">
              <path id="Trazado_6251" data-name="Trazado 6251" d="M360.079,103.9c5.485,1.257,11.776,16.212,11.776,16.212l-11.017,7.551a92.627,92.627,0,0,1-7.277-12.371c-3.251-6.845.909-12.678,6.517-11.392" transform="translate(-352.418 -103.724)" fill="#fff"/>
            </g>
          </g>
        </g>
        <path id="Trazado_6252" data-name="Trazado 6252" d="M357.1,115.919l5.21,13.869-.518.358s-2.254-3.163-4.692-7.433Z" transform="translate(-72.619 -23.573)" fill="#407bff"/>
        <g id="Grupo_9662" data-name="Grupo 9662" transform="translate(284.481 92.346)" opacity="0.6">
          <g id="Grupo_9661" data-name="Grupo 9661">
            <g id="Grupo_9660" data-name="Grupo 9660" clip-path="url(#clip-path-6)">
              <path id="Trazado_6253" data-name="Trazado 6253" d="M357.1,115.919l5.21,13.869-.518.358s-2.254-3.163-4.692-7.433Z" transform="translate(-357.1 -115.919)" fill="#fff"/>
            </g>
          </g>
        </g>
        <path id="Trazado_6254" data-name="Trazado 6254" d="M338,351.232h-5.852l-.583-13.552h5.852Z" transform="translate(-67.425 -68.669)" fill="#9f5b53"/>
        <path id="Trazado_6255" data-name="Trazado 6255" d="M381.5,351.232h-5.852l-2.942-13.552h5.852Z" transform="translate(-75.792 -68.669)" fill="#9f5b53"/>
        <path id="Trazado_6256" data-name="Trazado 6256" d="M331.562,337.684l.3,6.986h5.855l-.3-6.986Z" transform="translate(-67.425 -68.67)" fill="#8a4743"/>
        <path id="Trazado_6257" data-name="Trazado 6257" d="M378.562,337.684h-5.855l1.519,6.986h5.855Z" transform="translate(-75.792 -68.67)" fill="#8a4743"/>
        <path id="Trazado_6258" data-name="Trazado 6258" d="M334.381,167.824s6.642,44.725,10.288,61.481c3.993,18.349,19.036,79.469,19.036,79.469h10.719s-9.919-59.639-12.2-77.806c-2.473-19.717-7.647-63.144-7.647-63.144Z" transform="translate(-67.999 -34.128)" fill="#407bff"/>
        <g id="Grupo_9665" data-name="Grupo 9665" transform="translate(266.383 133.696)" opacity="0.5">
          <g id="Grupo_9664" data-name="Grupo 9664">
            <g id="Grupo_9663" data-name="Grupo 9663" clip-path="url(#clip-path-7)">
              <path id="Trazado_6259" data-name="Trazado 6259" d="M334.381,167.824s6.642,44.725,10.288,61.481c3.993,18.349,19.036,79.469,19.036,79.469h10.719s-9.919-59.639-12.2-77.806c-2.473-19.717-7.647-63.144-7.647-63.144Z" transform="translate(-334.381 -167.824)"/>
            </g>
          </g>
        </g>
        <g id="Grupo_9668" data-name="Grupo 9668" transform="translate(268.851 149.572)" opacity="0.4">
          <g id="Grupo_9667" data-name="Grupo 9667">
            <g id="Grupo_9666" data-name="Grupo 9666" clip-path="url(#clip-path-8)">
              <path id="Trazado_6260" data-name="Trazado 6260" d="M339.209,187.813c7.68,1.506,6.867,30.145,5.943,44.875-2.215-10.412-5.457-30.448-7.672-44.668a2.624,2.624,0,0,1,1.729-.207" transform="translate(-337.48 -187.753)"/>
            </g>
          </g>
        </g>
        <path id="Trazado_6261" data-name="Trazado 6261" d="M320.336,167.824s-.806,43.757-.17,61.6c.662,18.563,7.147,79.346,7.147,79.346h9.913s.364-59.7.805-77.929c.48-19.875,2.881-63.021,2.881-63.021Z" transform="translate(-65.058 -34.128)" fill="#407bff"/>
        <g id="Grupo_9671" data-name="Grupo 9671" transform="translate(254.864 133.696)" opacity="0.5">
          <g id="Grupo_9670" data-name="Grupo 9670">
            <g id="Grupo_9669" data-name="Grupo 9669" clip-path="url(#clip-path-9)">
              <path id="Trazado_6262" data-name="Trazado 6262" d="M320.336,167.824s-.806,43.757-.17,61.6c.662,18.563,7.147,79.346,7.147,79.346h9.913s.364-59.7.805-77.929c.48-19.875,2.881-63.021,2.881-63.021Z" transform="translate(-319.922 -167.824)"/>
            </g>
          </g>
        </g>
        <path id="Trazado_6263" data-name="Trazado 6263" d="M362.5,160.763l-4.28.737,3.8,6.44s2.983-1.434,3.52-4.217Z" transform="translate(-72.847 -32.692)" fill="#9f5b53"/>
        <path id="Trazado_6264" data-name="Trazado 6264" d="M327.816,76.43c0,.472-.25.855-.559.855s-.559-.383-.559-.855.25-.855.559-.855.559.382.559.855" transform="translate(-66.436 -15.369)" fill="#263238"/>
        <path id="Trazado_6265" data-name="Trazado 6265" d="M327.265,77.721a16.89,16.89,0,0,1-2.255,4.037,2.723,2.723,0,0,0,2.255.423Z" transform="translate(-66.093 -15.805)" fill="#892b29"/>
        <path id="Trazado_6266" data-name="Trazado 6266" d="M329.561,73.094a.268.268,0,0,1-.162-.053,2.208,2.208,0,0,0-1.971-.361.277.277,0,0,1-.2-.518,2.752,2.752,0,0,1,2.494.429.278.278,0,0,1-.162.5" transform="translate(-66.508 -14.648)" fill="#263238"/>
        <path id="Trazado_6267" data-name="Trazado 6267" d="M343.861,83.48c-.84,4.281-1.677,12.127,1.318,14.983,0,0-1.17,4.342-9.126,4.342-8.747,0-4.18-4.342-4.18-4.342,4.774-1.14,4.651-4.682,3.819-8.009Z" transform="translate(-67.246 -16.976)" fill="#9f5b53"/>
        <path id="Trazado_6268" data-name="Trazado 6268" d="M346.367,103.116c.627-1.375,1.318-2.948-.111-3.441-1.571-.543-10.171-1.1-13.137-.078A3.058,3.058,0,0,0,331,103.4Z" transform="translate(-67.288 -20.138)" fill="#407bff"/>
        <path id="Trazado_6269" data-name="Trazado 6269" d="M373.069,354.713a1.883,1.883,0,0,1-1.405-.386.564.564,0,0,1,0-.658.643.643,0,0,1,.435-.323c.86-.2,2.471.906,2.539.953a.14.14,0,0,1,.058.14.138.138,0,0,1-.1.108,7.376,7.376,0,0,1-1.528.166m-.731-1.115a.771.771,0,0,0-.171.018.376.376,0,0,0-.256.187c-.125.228-.052.324-.027.356.25.328,1.447.334,2.32.186a4.569,4.569,0,0,0-1.867-.746" transform="translate(-75.56 -71.85)" fill="#407bff"/>
        <path id="Trazado_6270" data-name="Trazado 6270" d="M374.889,354.189a.143.143,0,0,1-.066-.017c-.6-.328-1.777-1.609-1.653-2.263a.455.455,0,0,1,.441-.364.776.776,0,0,1,.591.178c.68.556.819,2.244.825,2.316a.136.136,0,0,1-.063.127.129.129,0,0,1-.076.023m-1.181-2.372a.423.423,0,0,0-.062,0c-.181.022-.2.105-.2.14-.073.386.674,1.355,1.275,1.811a3.332,3.332,0,0,0-.691-1.834.493.493,0,0,0-.319-.121" transform="translate(-75.885 -71.488)" fill="#407bff"/>
        <path id="Trazado_6271" data-name="Trazado 6271" d="M328.878,354.709c-.75,0-1.475-.1-1.718-.441a.525.525,0,0,1,.011-.606.69.69,0,0,1,.44-.324c.969-.259,3.019.9,3.106.95a.139.139,0,0,1-.042.257,10.312,10.312,0,0,1-1.8.165m-.927-1.136a1.04,1.04,0,0,0-.268.032.42.42,0,0,0-.272.194c-.1.173-.062.257-.027.307.264.366,1.745.386,2.84.233a6.266,6.266,0,0,0-2.274-.766" transform="translate(-66.512 -71.846)" fill="#407bff"/>
        <path id="Trazado_6272" data-name="Trazado 6272" d="M331.034,354.189a.139.139,0,0,1-.057-.012c-.706-.316-2.106-1.581-2-2.244.025-.156.135-.349.516-.388a1.022,1.022,0,0,1,.769.237,3.954,3.954,0,0,1,.908,2.255.138.138,0,0,1-.138.152m-1.428-2.372c-.027,0-.055,0-.083,0-.25.026-.265.123-.271.156-.064.4.887,1.392,1.607,1.824a3.251,3.251,0,0,0-.772-1.8.735.735,0,0,0-.481-.18" transform="translate(-66.899 -71.488)" fill="#407bff"/>
        <path id="Trazado_6273" data-name="Trazado 6273" d="M373.549,353.841h6.575a.511.511,0,0,1,.5.4l1.156,5.2a.861.861,0,0,1-.857,1.04c-2.3-.039-3.41-.174-6.3-.174-1.779,0-5.444.185-7.9.185-2.4,0-2.778-2.429-1.772-2.65,4.509-.986,6.207-2.346,7.651-3.644a1.421,1.421,0,0,1,.95-.36" transform="translate(-74.108 -71.956)" fill="#263238"/>
        <path id="Trazado_6274" data-name="Trazado 6274" d="M328.732,353.841h6.392a.51.51,0,0,1,.5.4l1.156,5.2a.85.85,0,0,1-.841,1.04c-2.306-.039-5.637-.174-8.535-.174-3.388,0-6.314.185-10.288.185-2.4,0-3.069-2.429-2.063-2.65,4.578-1,8.316-1.108,12.272-3.548a2.716,2.716,0,0,1,1.41-.456" transform="translate(-63.975 -71.956)" fill="#263238"/>
        <path id="Trazado_6275" data-name="Trazado 6275" d="M311.183,117.694c-2.321,3.421-4.723,6.623-7.3,9.79a110.145,110.145,0,0,1-8.288,9.141l-1.152,1.085-.288.27-.206.188-.293.253a8.233,8.233,0,0,1-1.2.8,10.73,10.73,0,0,1-4.343,1.215,24.292,24.292,0,0,1-6.9-.568,52.336,52.336,0,0,1-11.83-4.158l1.459-4.145a93.759,93.759,0,0,0,11.3,1.543,20.734,20.734,0,0,0,4.994-.21,3.172,3.172,0,0,0,1.323-.515c.035-.029.03-.049.02-.05a.035.035,0,0,0-.017,0s-.014.013,0-.006l.059-.065.236-.26.943-1.038c2.49-2.838,4.9-5.861,7.246-8.955,2.347-3.073,4.688-6.261,6.928-9.354Z" transform="translate(-54.781 -22.91)" fill="#9f5b53"/>
        <path id="Trazado_6276" data-name="Trazado 6276" d="M323.619,120.131a27.768,27.768,0,0,1-6.182,13.4c-.127-2.8-.175-5.322-.167-7.576Z" transform="translate(-64.519 -24.429)" fill="#bed3fc"/>
        <path id="Trazado_6277" data-name="Trazado 6277" d="M343.615,73.218c-.356,5.8-.27,9.208-3.2,12.184-4.4,4.476-11.561,1.821-12.944-3.966-1.245-5.208-.453-13.815,5.221-16.122a7.922,7.922,0,0,1,10.92,7.9" transform="translate(-66.49 -13.158)" fill="#9f5b53"/>
        <path id="Trazado_6278" data-name="Trazado 6278" d="M331.265,67.136c.044,6.819,2.257,15.181,8.852,14.6,4.387-.382,7.717-8.378,8.17-11.76.693-5.18.77-6.164-2.117-6.762a2.715,2.715,0,0,0-1.245-4.763c-4.14-1.091-11.933-2.163-9.5-4.686-4.891.885-6.119,2.844-5.223,5.223-2.86-.221-4.624-1.721-4.535-3.983-4.736,1.9-7.813,12.76,5.6,12.126" transform="translate(-65.405 -10.934)" fill="#263238"/>
        <path id="Trazado_6279" data-name="Trazado 6279" d="M336.809,76.819a6.563,6.563,0,0,1-2.217,3.586c-1.475,1.194-2.658.127-2.62-1.6.034-1.554.843-4.049,2.5-4.577,1.635-.52,2.7.891,2.334,2.591" transform="translate(-67.508 -15.072)" fill="#9f5b53"/>
        <path id="Trazado_6280" data-name="Trazado 6280" d="M356.7,66.542a5.581,5.581,0,0,0-5.285-.387s3.281-4.486,5.285.387" transform="translate(-71.462 -13.07)" fill="#263238"/>
        <path id="Trazado_6281" data-name="Trazado 6281" d="M369.041,339.8c-.045,0,1.107,4.116,1.107,4.116h12.06l-.221-3.673Z" transform="translate(-75.047 -69.1)" fill="#407bff"/>
        <path id="Trazado_6282" data-name="Trazado 6282" d="M326.8,339.8c-.045,0,.559,4.116.559,4.116h12.06l.326-3.673Z" transform="translate(-66.457 -69.1)" fill="#407bff"/>
        <path id="Trazado_6283" data-name="Trazado 6283" d="M330.074,302.487a.1.1,0,0,1-.1-.089c-1.747-16.823-5.868-57.528-6.39-72.131-.531-14.906-.049-48.349.112-58.243a.108.108,0,0,1,.1-.1.1.1,0,0,1,.1.1c-.161,9.893-.643,43.332-.112,58.232.522,14.6,4.641,55.3,6.388,72.119a.1.1,0,0,1-.088.109h-.01" transform="translate(-65.754 -34.962)" fill="#407bff"/>
        <g id="Grupo_9674" data-name="Grupo 9674" transform="translate(257.589 136.963)" opacity="0.3">
          <g id="Grupo_9673" data-name="Grupo 9673">
            <g id="Grupo_9672" data-name="Grupo 9672" clip-path="url(#clip-path-10)">
              <path id="Trazado_6284" data-name="Trazado 6284" d="M330.074,302.487a.1.1,0,0,1-.1-.089c-1.747-16.823-5.868-57.528-6.39-72.131-.531-14.906-.049-48.349.112-58.243a.108.108,0,0,1,.1-.1.1.1,0,0,1,.1.1c-.161,9.893-.643,43.332-.112,58.232.522,14.6,4.641,55.3,6.388,72.119a.1.1,0,0,1-.088.109h-.01" transform="translate(-323.343 -171.925)"/>
            </g>
          </g>
        </g>
        <path id="Trazado_6285" data-name="Trazado 6285" d="M323.237,109.044c.772,5.541-10.147,19.7-10.147,19.7l-10.972-7.551s3.042-7.8,8.166-12.914c5.851-5.837,12.113-5.263,12.953.767" transform="translate(-61.438 -21.189)" fill="#407bff"/>
        <g id="Grupo_9677" data-name="Grupo 9677" transform="translate(240.68 83.008)" opacity="0.8">
          <g id="Grupo_9676" data-name="Grupo 9676">
            <g id="Grupo_9675" data-name="Grupo 9675" clip-path="url(#clip-path-11)">
              <path id="Trazado_6286" data-name="Trazado 6286" d="M323.237,109.044c.772,5.541-10.147,19.7-10.147,19.7l-10.972-7.551s3.042-7.8,8.166-12.914c5.851-5.837,12.113-5.263,12.953.767" transform="translate(-302.118 -104.197)" fill="#fff"/>
            </g>
          </g>
        </g>
        <path id="Trazado_6287" data-name="Trazado 6287" d="M320.143,103.862s-6.229,7.036-.347,50.584h31.3c.216-4.8-2.8-28.245,1.831-50.886a81.749,81.749,0,0,0-10.478-1.323,115.04,115.04,0,0,0-13.306,0,58.743,58.743,0,0,0-9,1.624" transform="translate(-64.519 -20.751)" fill="#407bff"/>
        <g id="Grupo_9680" data-name="Grupo 9680" transform="translate(252.75 81.291)" opacity="0.8">
          <g id="Grupo_9679" data-name="Grupo 9679">
            <g id="Grupo_9678" data-name="Grupo 9678" clip-path="url(#clip-path-12)">
              <path id="Trazado_6288" data-name="Trazado 6288" d="M320.143,103.862s-6.229,7.036-.347,50.584h31.3c.216-4.8-2.8-28.245,1.831-50.886a81.749,81.749,0,0,0-10.478-1.323,115.04,115.04,0,0,0-13.306,0,58.743,58.743,0,0,0-9,1.624" transform="translate(-317.269 -102.042)" fill="#fff"/>
            </g>
          </g>
        </g>
      </g>
    </g>
    <g id="Grupo_9717" data-name="Grupo 9717">
      <g id="Grupo_9716" data-name="Grupo 9716" clip-path="url(#clip-path)">
        <path id="Trazado_6289" data-name="Trazado 6289" d="M181.138,72.81a20.447,20.447,0,1,0-25.626-13.4,20.447,20.447,0,0,0,25.626,13.4" transform="translate(-31.433 -6.679)" fill="#407bff"/>
        <g id="Grupo_9685" data-name="Grupo 9685" transform="translate(123.138 26.166)" opacity="0.2">
          <g id="Grupo_9684" data-name="Grupo 9684">
            <g id="Grupo_9683" data-name="Grupo 9683" clip-path="url(#clip-path-14)">
              <path id="Trazado_6290" data-name="Trazado 6290" d="M181.138,72.81a20.447,20.447,0,1,0-25.626-13.4,20.447,20.447,0,0,0,25.626,13.4" transform="translate(-154.571 -32.845)" fill="#fff"/>
            </g>
          </g>
        </g>
        <path id="Trazado_6291" data-name="Trazado 6291" d="M171.652,87A26.483,26.483,0,0,1,148.4,68.437l.76-.238A25.691,25.691,0,0,0,171.715,86.2Z" transform="translate(-30.177 -13.869)" fill="#407bff"/>
        <g id="Grupo_9688" data-name="Grupo 9688" transform="translate(118.219 54.33)" opacity="0.2">
          <g id="Grupo_9687" data-name="Grupo 9687">
            <g id="Grupo_9686" data-name="Grupo 9686" clip-path="url(#clip-path-15)">
              <path id="Trazado_6292" data-name="Trazado 6292" d="M171.652,87A26.483,26.483,0,0,1,148.4,68.437l.76-.238A25.691,25.691,0,0,0,171.715,86.2Z" transform="translate(-148.396 -68.199)" fill="#fff"/>
            </g>
          </g>
        </g>
        <path id="Trazado_6293" data-name="Trazado 6293" d="M149.019,44.362l-.763-.228a26.6,26.6,0,0,1,34.117-17.556l-.26.754a25.8,25.8,0,0,0-33.094,17.03" transform="translate(-30.149 -5.11)" fill="#407bff"/>
        <g id="Grupo_9691" data-name="Grupo 9691" transform="translate(118.107 20.019)" opacity="0.2">
          <g id="Grupo_9690" data-name="Grupo 9690">
            <g id="Grupo_9689" data-name="Grupo 9689" clip-path="url(#clip-path-16)">
              <path id="Trazado_6294" data-name="Trazado 6294" d="M149.019,44.362l-.763-.228a26.6,26.6,0,0,1,34.117-17.556l-.26.754a25.8,25.8,0,0,0-33.094,17.03" transform="translate(-148.256 -25.129)" fill="#fff"/>
            </g>
          </g>
        </g>
        <path id="Trazado_6295" data-name="Trazado 6295" d="M208.294,45.018a25.77,25.77,0,0,0-11.148-14.288l.416-.68A26.565,26.565,0,0,1,209.054,44.78Z" transform="translate(-40.091 -6.111)" fill="#407bff"/>
        <g id="Grupo_9694" data-name="Grupo 9694" transform="translate(157.055 23.94)" opacity="0.2">
          <g id="Grupo_9693" data-name="Grupo 9693">
            <g id="Grupo_9692" data-name="Grupo 9692" clip-path="url(#clip-path-17)">
              <path id="Trazado_6296" data-name="Trazado 6296" d="M208.294,45.018a25.77,25.77,0,0,0-11.148-14.288l.416-.68A26.565,26.565,0,0,1,209.054,44.78Z" transform="translate(-197.146 -30.051)" fill="#fff"/>
            </g>
          </g>
        </g>
        <path id="Trazado_6297" data-name="Trazado 6297" d="M181.138,143.676a20.447,20.447,0,1,0-25.626-13.4,20.447,20.447,0,0,0,25.626,13.4" transform="translate(-31.433 -21.091)" fill="#407bff"/>
        <g id="Grupo_9697" data-name="Grupo 9697" transform="translate(123.138 82.622)" opacity="0.6">
          <g id="Grupo_9696" data-name="Grupo 9696">
            <g id="Grupo_9695" data-name="Grupo 9695" clip-path="url(#clip-path-14)">
              <path id="Trazado_6298" data-name="Trazado 6298" d="M181.138,143.676a20.447,20.447,0,1,0-25.626-13.4,20.447,20.447,0,0,0,25.626,13.4" transform="translate(-154.571 -103.712)" fill="#fff"/>
            </g>
          </g>
        </g>
        <path id="Trazado_6299" data-name="Trazado 6299" d="M181.138,214.542a20.447,20.447,0,1,0-25.626-13.4,20.447,20.447,0,0,0,25.626,13.4" transform="translate(-31.433 -35.502)" fill="#407bff"/>
        <g id="Grupo_9700" data-name="Grupo 9700" transform="translate(123.138 139.076)" opacity="0.6">
          <g id="Grupo_9699" data-name="Grupo 9699">
            <g id="Grupo_9698" data-name="Grupo 9698" clip-path="url(#clip-path-14)">
              <path id="Trazado_6300" data-name="Trazado 6300" d="M181.138,214.542a20.447,20.447,0,1,0-25.626-13.4,20.447,20.447,0,0,0,25.626,13.4" transform="translate(-154.571 -174.578)" fill="#fff"/>
            </g>
          </g>
        </g>
        <path id="Trazado_6301" data-name="Trazado 6301" d="M181.138,285.408a20.447,20.447,0,1,0-25.626-13.4,20.447,20.447,0,0,0,25.626,13.4" transform="translate(-31.433 -49.913)" fill="#407bff"/>
        <g id="Grupo_9703" data-name="Grupo 9703" transform="translate(123.138 195.531)" opacity="0.6">
          <g id="Grupo_9702" data-name="Grupo 9702">
            <g id="Grupo_9701" data-name="Grupo 9701" clip-path="url(#clip-path-14)">
              <path id="Trazado_6302" data-name="Trazado 6302" d="M181.138,285.408a20.447,20.447,0,1,0-25.626-13.4,20.447,20.447,0,0,0,25.626,13.4" transform="translate(-154.571 -245.444)" fill="#fff"/>
            </g>
          </g>
        </g>
        <path id="Trazado_6303" data-name="Trazado 6303" d="M110.272,72.81a20.447,20.447,0,1,0-25.626-13.4,20.447,20.447,0,0,0,25.626,13.4" transform="translate(-17.022 -6.679)" fill="#407bff"/>
        <g id="Grupo_9706" data-name="Grupo 9706" transform="translate(66.683 26.166)" opacity="0.6">
          <g id="Grupo_9705" data-name="Grupo 9705">
            <g id="Grupo_9704" data-name="Grupo 9704" clip-path="url(#clip-path-21)">
              <path id="Trazado_6304" data-name="Trazado 6304" d="M110.272,72.81a20.447,20.447,0,1,0-25.626-13.4,20.447,20.447,0,0,0,25.626,13.4" transform="translate(-83.705 -32.845)" fill="#fff"/>
            </g>
          </g>
        </g>
        <path id="Trazado_6305" data-name="Trazado 6305" d="M110.272,143.676a20.447,20.447,0,1,0-25.626-13.4,20.447,20.447,0,0,0,25.626,13.4" transform="translate(-17.022 -21.091)" fill="#407bff"/>
        <g id="Grupo_9709" data-name="Grupo 9709" transform="translate(66.683 82.622)" opacity="0.6">
          <g id="Grupo_9708" data-name="Grupo 9708">
            <g id="Grupo_9707" data-name="Grupo 9707" clip-path="url(#clip-path-21)">
              <path id="Trazado_6306" data-name="Trazado 6306" d="M110.272,143.676a20.447,20.447,0,1,0-25.626-13.4,20.447,20.447,0,0,0,25.626,13.4" transform="translate(-83.705 -103.712)" fill="#fff"/>
            </g>
          </g>
        </g>
        <path id="Trazado_6307" data-name="Trazado 6307" d="M110.272,214.542a20.447,20.447,0,1,0-25.626-13.4,20.447,20.447,0,0,0,25.626,13.4" transform="translate(-17.022 -35.502)" fill="#407bff"/>
        <g id="Grupo_9712" data-name="Grupo 9712" transform="translate(66.683 139.076)" opacity="0.6">
          <g id="Grupo_9711" data-name="Grupo 9711">
            <g id="Grupo_9710" data-name="Grupo 9710" clip-path="url(#clip-path-21)">
              <path id="Trazado_6308" data-name="Trazado 6308" d="M110.272,214.542a20.447,20.447,0,1,0-25.626-13.4,20.447,20.447,0,0,0,25.626,13.4" transform="translate(-83.705 -174.578)" fill="#fff"/>
            </g>
          </g>
        </g>
        <path id="Trazado_6309" data-name="Trazado 6309" d="M110.272,285.408a20.447,20.447,0,1,0-25.626-13.4,20.447,20.447,0,0,0,25.626,13.4" transform="translate(-17.022 -49.913)" fill="#407bff"/>
        <g id="Grupo_9715" data-name="Grupo 9715" transform="translate(66.683 195.531)" opacity="0.6">
          <g id="Grupo_9714" data-name="Grupo 9714">
            <g id="Grupo_9713" data-name="Grupo 9713" clip-path="url(#clip-path-21)">
              <path id="Trazado_6310" data-name="Trazado 6310" d="M110.272,285.408a20.447,20.447,0,1,0-25.626-13.4,20.447,20.447,0,0,0,25.626,13.4" transform="translate(-83.705 -245.444)" fill="#fff"/>
            </g>
          </g>
        </g>
      </g>
    </g>
    <g id="Grupo_9722" data-name="Grupo 9722">
      <g id="Grupo_9721" data-name="Grupo 9721" clip-path="url(#clip-path)">
        <path id="Trazado_6311" data-name="Trazado 6311" d="M269.931,135.79l-4.291-4.44-4.581,5.908s3.486,3.365,7.641,2.414Z" transform="translate(-53.088 -26.711)" fill="#9f5b53"/>
        <path id="Trazado_6312" data-name="Trazado 6312" d="M258.9,128.282l-1.961,6.2,3.281,2.152,4.581-5.908Z" transform="translate(-52.251 -26.087)" fill="#9f5b53"/>
        <path id="Trazado_6313" data-name="Trazado 6313" d="M182.97,111.388a7.72,7.72,0,0,1,10.873-4.381l-4.75-2.484A7.894,7.894,0,0,1,185.346,94.5a7.721,7.721,0,0,1,10.63-3.753l-4.75-2.484a7.894,7.894,0,0,1-3.747-10.028,7.721,7.721,0,0,1,10.63-3.752l-22.7-11.868a7.861,7.861,0,0,1-3.944-9.377,7.721,7.721,0,0,1,10.873-4.38l47.8,24.991L225.215,53.7a8.208,8.208,0,0,1,15.633-4.9l15.684,40.728a15.34,15.34,0,0,0,7.208,8.083l2.728,1.426a3.594,3.594,0,0,1,1.52,4.85l-19.1,36.532a3.594,3.594,0,0,1-4.85,1.52l-6.708-3.508a15.823,15.823,0,0,0-8.239-1.7,38.283,38.283,0,0,1-19.867-4.3l-22.308-11.664a7.859,7.859,0,0,1-3.944-9.377" transform="translate(-34.79 -8.854)" fill="#407bff"/>
        <path id="Trazado_6314" data-name="Trazado 6314" d="M245.389,143.238a4.755,4.755,0,0,1-2.211-.544l-6.709-3.508a14.677,14.677,0,0,0-7.617-1.57,39.489,39.489,0,0,1-20.488-4.433l-22.308-11.664a9.083,9.083,0,0,1-4.522-10.819,8.915,8.915,0,0,1,6.119-5.752,9.054,9.054,0,0,1-3.707-11.234,8.806,8.806,0,0,1,5.2-4.831c.212-.075.426-.141.641-.2a9.055,9.055,0,0,1-3.708-11.235,8.807,8.807,0,0,1,5.2-4.83c.2-.071.4-.135.608-.19l-17.333-9.063a9.084,9.084,0,0,1-4.522-10.82,8.915,8.915,0,0,1,12.558-5.056l45.453,23.766-4.295-17.578a9.4,9.4,0,0,1,17.908-5.611L257.343,88.8a14.136,14.136,0,0,0,6.648,7.453l2.727,1.426a4.8,4.8,0,0,1,2.024,6.463l-19.1,36.532a4.792,4.792,0,0,1-4.252,2.569M229.749,135.2a16.882,16.882,0,0,1,7.829,1.868l6.708,3.507a2.4,2.4,0,0,0,3.238-1.014l19.1-36.532a2.4,2.4,0,0,0-1.014-3.238l-2.728-1.426a16.527,16.527,0,0,1-7.77-8.712L239.429,48.926a7.012,7.012,0,0,0-13.357,4.183l4.922,20.147A1.195,1.195,0,0,1,229.28,74.6l-47.8-24.992a6.507,6.507,0,0,0-5.438-.262,6.439,6.439,0,0,0-3.751,3.968,6.678,6.678,0,0,0,3.367,7.934l22.7,11.868a1.2,1.2,0,0,1-1.107,2.118,6.526,6.526,0,0,0-5.178-.361,6.442,6.442,0,0,0-3.8,3.532,6.683,6.683,0,0,0,3.2,8.491l4.75,2.483a1.195,1.195,0,1,1-1.107,2.117l-.008,0a6.531,6.531,0,0,0-5.169-.357,6.441,6.441,0,0,0-3.8,3.532,6.682,6.682,0,0,0,3.2,8.491l4.741,2.478.009.006a1.195,1.195,0,1,1-1.107,2.117l-.009,0a6.526,6.526,0,0,0-9.18,3.71,6.678,6.678,0,0,0,3.367,7.934l22.308,11.664a37.121,37.121,0,0,0,19.248,4.163q.516-.029,1.029-.029m-47.082-24.117h0Z" transform="translate(-34.487 -8.549)" fill="#407bff"/>
        <path id="Trazado_6315" data-name="Trazado 6315" d="M205.3,127.213a1.186,1.186,0,0,1-.552-.136l-5.956-3.114a1.195,1.195,0,1,1,1.107-2.117l5.955,3.113a1.2,1.2,0,0,1-.554,2.254" transform="translate(-40.296 -24.75)" fill="#407bff"/>
        <path id="Trazado_6316" data-name="Trazado 6316" d="M207.981,106.8a1.186,1.186,0,0,1-.552-.136l-5.956-3.114a1.195,1.195,0,0,1,1.107-2.117l5.955,3.113a1.2,1.2,0,0,1-.554,2.255" transform="translate(-40.84 -20.598)" fill="#407bff"/>
        <path id="Trazado_6317" data-name="Trazado 6317" d="M210.659,86.381a1.186,1.186,0,0,1-.552-.136l-5.956-3.114a1.195,1.195,0,1,1,1.107-2.117l5.955,3.113a1.2,1.2,0,0,1-.554,2.255" transform="translate(-41.385 -16.447)" fill="#407bff"/>
        <g id="Grupo_9720" data-name="Grupo 9720" transform="translate(135.1 33.492)" opacity="0.3">
          <g id="Grupo_9719" data-name="Grupo 9719">
            <g id="Grupo_9718" data-name="Grupo 9718" clip-path="url(#clip-path-26)">
              <path id="Trazado_6318" data-name="Trazado 6318" d="M245.389,143.238a4.755,4.755,0,0,1-2.211-.544l-6.709-3.508a14.677,14.677,0,0,0-7.617-1.57,39.489,39.489,0,0,1-20.488-4.433l-22.308-11.664a9.083,9.083,0,0,1-4.522-10.819,8.915,8.915,0,0,1,6.119-5.752,9.054,9.054,0,0,1-3.707-11.234,8.806,8.806,0,0,1,5.2-4.831c.212-.075.426-.141.641-.2a9.055,9.055,0,0,1-3.708-11.235,8.807,8.807,0,0,1,5.2-4.83c.2-.071.4-.135.608-.19l-17.333-9.063a9.084,9.084,0,0,1-4.522-10.82,8.915,8.915,0,0,1,12.558-5.056l45.453,23.766-4.295-17.578a9.4,9.4,0,0,1,17.908-5.611L257.343,88.8a14.136,14.136,0,0,0,6.648,7.453l2.727,1.426a4.8,4.8,0,0,1,2.024,6.463l-19.1,36.532a4.792,4.792,0,0,1-4.252,2.569M229.749,135.2a16.882,16.882,0,0,1,7.829,1.868l6.708,3.507a2.4,2.4,0,0,0,3.238-1.014l19.1-36.532a2.4,2.4,0,0,0-1.014-3.238l-2.728-1.426a16.527,16.527,0,0,1-7.77-8.712L239.429,48.926a7.012,7.012,0,0,0-13.357,4.183l4.922,20.147A1.195,1.195,0,0,1,229.28,74.6l-47.8-24.992a6.507,6.507,0,0,0-5.438-.262,6.439,6.439,0,0,0-3.751,3.968,6.678,6.678,0,0,0,3.367,7.934l22.7,11.868a1.2,1.2,0,0,1-1.107,2.118,6.526,6.526,0,0,0-5.178-.361,6.442,6.442,0,0,0-3.8,3.532,6.683,6.683,0,0,0,3.2,8.491l4.75,2.483a1.195,1.195,0,1,1-1.107,2.117l-.008,0a6.531,6.531,0,0,0-5.169-.357,6.441,6.441,0,0,0-3.8,3.532,6.682,6.682,0,0,0,3.2,8.491l4.741,2.478.009.006a1.195,1.195,0,1,1-1.107,2.117l-.009,0a6.526,6.526,0,0,0-9.18,3.71,6.678,6.678,0,0,0,3.367,7.934l22.308,11.664a37.121,37.121,0,0,0,19.248,4.163q.516-.029,1.029-.029m-47.082-24.117h0Z" transform="translate(-169.587 -42.041)"/>
            </g>
          </g>
        </g>
      </g>
    </g>
  </g>
</svg>
