<svg id="Grupo_9461" data-name="Grupo 9461" xmlns="http://www.w3.org/2000/svg" xmlns:xlink="http://www.w3.org/1999/xlink" width="47.896" height="44.5" viewBox="0 0 47.896 44.5">
  <defs>
    <clipPath id="clip-path">
      <rect id="Rect치ngulo_3398" data-name="Rect치ngulo 3398" width="23.234" height="23.237" fill="#6b4b8b"/>
    </clipPath>
  </defs>
  <g id="Grupo_8822" data-name="Grupo 8822">
    <circle id="Elipse_161" data-name="Elipse 161" cx="22.228" cy="22.228" r="22.228" transform="translate(3.439 0.043)" fill="#e1dbe8"/>
    <g id="Exclusi칩n_5" data-name="Exclusi칩n 5" fill="none">
      <path d="M22,0A22,22,0,1,1,0,22,22,22,0,0,1,22,0Z" stroke="none"/>
      <path d="M 22 2 C 19.29912948608398 2 16.68012046813965 2.528518676757812 14.2157096862793 3.570880889892578 C 11.83435821533203 4.578098297119141 9.695270538330078 6.020450592041016 7.857860565185547 7.857860565185547 C 6.020450592041016 9.695270538330078 4.578098297119141 11.83435821533203 3.570880889892578 14.2157096862793 C 2.528518676757812 16.68012046813965 2 19.29912948608398 2 22 C 2 24.70085906982422 2.528518676757812 27.31987953186035 3.570880889892578 29.7842903137207 C 4.578098297119141 32.16563034057617 6.020450592041016 34.30471801757812 7.857860565185547 36.14212799072266 C 9.695270538330078 37.97954940795898 11.83435821533203 39.42189788818359 14.2157096862793 40.42911911010742 C 16.68012046813965 41.47148132324219 19.29912948608398 42 22 42 C 24.70085906982422 42 27.31986999511719 41.47148132324219 29.7842903137207 40.42911911010742 C 32.16563034057617 39.42189788818359 34.30471801757812 37.97954940795898 36.14212799072266 36.14212799072266 C 37.97954940795898 34.30471801757812 39.42189788818359 32.16563034057617 40.42911911010742 29.7842903137207 C 41.47148132324219 27.31986999511719 42 24.70085906982422 42 22 C 42 19.29912948608398 41.47148132324219 16.68012046813965 40.42911911010742 14.2157096862793 C 39.42189788818359 11.83435821533203 37.97954940795898 9.695270538330078 36.14212799072266 7.857860565185547 C 34.30471801757812 6.020450592041016 32.16563034057617 4.578098297119141 29.7842903137207 3.570880889892578 C 27.31987953186035 2.528518676757812 24.70085906982422 2 22 2 M 22 0 C 34.15026092529297 0 44 9.8497314453125 44 22 C 44 34.15026092529297 34.15026092529297 44 22 44 C 9.8497314453125 44 0 34.15026092529297 0 22 C 0 9.8497314453125 9.8497314453125 0 22 0 Z" stroke="none" fill="#6b4b8b"/>
    </g>
  </g>
  <g id="Grupo_9459" data-name="Grupo 9459" transform="translate(10.938 10.632)">
    <g id="Grupo_9458" data-name="Grupo 9458" clip-path="url(#clip-path)">
      <path id="Trazado_6117" data-name="Trazado 6117" d="M29.9,8.412a7.224,7.224,0,0,1,.546-2.483A8.684,8.684,0,0,1,36.573.509a8.836,8.836,0,1,1,3.806,17.249c-.332.065-.672.086-1.007.128l.006.007V13.785a4.752,4.752,0,0,0-.295-9.441,4.55,4.55,0,0,0-3.027.794A4.768,4.768,0,0,0,34,8.406h-4.1Z" transform="translate(-24.351 -0.192)" fill="#6b4b8b"/>
      <path id="Trazado_6118" data-name="Trazado 6118" d="M38.017,59.776a7.146,7.146,0,0,1-2.417-.523,8.734,8.734,0,0,1-5.54-6.411,11.625,11.625,0,0,1-.161-1.184l-.007.007H33.98a4.841,4.841,0,0,0,4.03,4.03v4.09Z" transform="translate(-24.351 -42.082)" fill="#6b4b8b"/>
      <path id="Trazado_6119" data-name="Trazado 6119" d="M3.1,87.186.268,84.351,6.079,78.54a10.356,10.356,0,0,0,2.835,2.831L3.1,87.186" transform="translate(-0.218 -63.983)" fill="#6b4b8b"/>
      <path id="Trazado_6120" data-name="Trazado 6120" d="M5.548,9.575c-.461,0-.922.007-1.383,0a.244.244,0,0,0-.269.167,2.033,2.033,0,0,1-3.88-.993A1.967,1.967,0,0,1,1.16,7.072c.033-.017.069-.029.1-.046s.065-.035.107-.058c0-.944,0-1.888-.005-2.832a.247.247,0,0,0-.123-.175,2.055,2.055,0,0,1-1.223-2.1A2.1,2.1,0,0,1,1.766.028,2.063,2.063,0,0,1,4.048,1.675,2.029,2.029,0,0,1,2.906,3.939c-.054.026-.109.05-.174.08,0,.95,0,1.9.005,2.854a.223.223,0,0,0,.118.156A2.075,2.075,0,0,1,3.921,8.092a.267.267,0,0,0,.2.12c.476.011.952.008,1.428.009l-.007-.006V9.581Z" transform="translate(-0.001 0)" fill="#6b4b8b"/>
      <path id="Trazado_6121" data-name="Trazado 6121" d="M69.079,95.459c0,.461.007.922,0,1.383a.241.241,0,0,0,.166.27,2,2,0,0,1,1.018,1.019c.029.06.107.138.163.138.967.008,1.934.006,2.9.006a2.04,2.04,0,1,1,0,1.362c-.955,0-1.914,0-2.874,0-.153,0-.162.1-.2.193a2.033,2.033,0,0,1-3.812-.35,2.013,2.013,0,0,1,1.108-2.355.275.275,0,0,0,.188-.3c-.009-.453,0-.907,0-1.36l-.006.007h1.367l-.006-.007" transform="translate(-54.059 -77.766)" fill="#6b4b8b"/>
      <path id="Trazado_6122" data-name="Trazado 6122" d="M60.951,32.365H59.575a3.333,3.333,0,0,1,3.276-2.713,3.418,3.418,0,0,1,3.428,3.238,3.369,3.369,0,0,1-2.712,3.47q0-.691,0-1.378a2.08,2.08,0,0,0,1.326-2.212A2.044,2.044,0,0,0,63.1,31.023a2.09,2.09,0,0,0-2.148,1.342" transform="translate(-48.533 -24.156)" fill="#6b4b8b"/>
      <path id="Trazado_6123" data-name="Trazado 6123" d="M59.568,51.72h1.388a2.076,2.076,0,0,0,1.225,1.224v1.39a3.265,3.265,0,0,1-2.614-2.614" transform="translate(-48.527 -42.134)" fill="#6b4b8b"/>
      <path id="Trazado_6124" data-name="Trazado 6124" d="M74.4,45.694a.681.681,0,1,1,.672-.684.689.689,0,0,1-.672.684" transform="translate(-60.049 -36.116)" fill="#6b4b8b"/>
    </g>
  </g>
</svg>
