<svg xmlns="http://www.w3.org/2000/svg" xmlns:xlink="http://www.w3.org/1999/xlink" width="33.1" height="13.262" viewBox="0 0 33.1 13.262">
  <defs>
    <clipPath id="clip-path">
      <rect id="Rectángulo_4053" data-name="Rectángulo 4053" width="33.1" height="13.262" transform="translate(0 0)" fill="none"/>
    </clipPath>
  </defs>
  <g id="Grupo_10613" data-name="Grupo 10613" transform="translate(0 0)">
    <g id="Grupo_10613-2" data-name="Grupo 10613" clip-path="url(#clip-path)">
      <path id="Trazado_7106" data-name="Trazado 7106" d="M18.209,0c.016.008.032.017.049.024a.2.2,0,0,1,.044.35c-.123.1-.248.2-.37.305-.152.129-.307.256-.451.394-.3.285-.6.569-.89.868a20.225,20.225,0,0,0-3.856,5.784,18.323,18.323,0,0,0-.74,1.957c-.117.381-.206.772-.316,1.156a.821.821,0,0,1-.127.248.271.271,0,0,1-.238.108c-.374,0-.749,0-1.124,0a.254.254,0,0,1-.24-.122,1.918,1.918,0,0,1-.177-.335C9.55,10.094,9.281,9.471,9,8.851q-.261-.582-.529-1.161A3.407,3.407,0,0,0,7.9,6.78a3.563,3.563,0,0,0-.354-.3c-.051-.042-.109-.074-.159-.115a.273.273,0,0,1-.029-.4,3.407,3.407,0,0,1,1.391-.93.366.366,0,0,1,.426.114,3.747,3.747,0,0,1,.35.5,8.71,8.71,0,0,1,.8,1.9c.053.174.1.35.148.525.04.139.122.162.215.05a2.752,2.752,0,0,0,.215-.327,20.092,20.092,0,0,1,1.35-1.981c.432-.561.881-1.11,1.336-1.652q.522-.621,1.081-1.211.837-.881,1.7-1.737c.28-.278.584-.535.888-.788A2.006,2.006,0,0,1,18.1,0Z" fill="#3a49a5"/>
      <path id="Trazado_7107" data-name="Trazado 7107" d="M0,4.973a2.4,2.4,0,0,0,.262.243A.932.932,0,0,0,1.5,5.077c.025-.026.048-.053.091-.1,0,.063.006.1.006.145v5.626a.427.427,0,0,1-.467.466h-.6A.455.455,0,0,1,0,10.862V4.973" fill="#3a49a5"/>
      <path id="Trazado_7108" data-name="Trazado 7108" d="M0,4.275l.046-.133a.794.794,0,0,1,1.311-.317.811.811,0,0,1,.178.874.8.8,0,0,1-.756.493A.8.8,0,0,1,.031,4.6C.021,4.562.01,4.528,0,4.493V4.275" fill="#3a49a5"/>
      <path id="Trazado_7109" data-name="Trazado 7109" d="M0,11.778c.13,0,.133,0,.133.124q0,.454,0,.911c0,.122-.015.132-.133.1Z" fill="#3a49a5"/>
      <path id="Trazado_7110" data-name="Trazado 7110" d="M17.75,6.053a2.228,2.228,0,0,1,1.973-.745,2.47,2.47,0,0,1,1.788,1.127c.079-.094.148-.176.215-.259a2.288,2.288,0,0,1,.643-.532,2.544,2.544,0,0,1,2.8.141,2.517,2.517,0,0,1,1.007,1.686,2.261,2.261,0,0,1,.026.358q0,1.593,0,3.184c0,.026,0,.051,0,.077.006.074-.027.1-.1.1q-.307,0-.611,0c-.079,0-.1-.035-.1-.107,0-.24,0-.48,0-.719,0-.3,0-.589,0-.884,0-.6-.007-1.191-.021-1.787a1.559,1.559,0,0,0-.337-.905,1.63,1.63,0,0,0-1.481-.677A1.719,1.719,0,0,0,22,7.524a2.687,2.687,0,0,0-.028.336c0,.138,0,.276,0,.414q.009,1.378.019,2.758v.087a.067.067,0,0,1-.076.072h-.677a.066.066,0,0,1-.074-.073q0-.049,0-.1c0-1.035,0-2.071,0-3.107a1.821,1.821,0,0,0-.5-1.281,1.613,1.613,0,0,0-1.413-.506,1.8,1.8,0,0,0-1.486,1.5,1.919,1.919,0,0,0-.007.24q0,1.565,0,3.129v.088c0,.1-.01.113-.113.114h-.577c-.115,0-.122-.008-.122-.126,0-.764,0-1.527,0-2.29q-.006-1.51-.019-3.019c0-.175,0-.175.172-.175h.536c.115,0,.122.009.122.126s0,.215,0,.345" fill="#3a49a5"/>
      <path id="Trazado_7111" data-name="Trazado 7111" d="M32.285,10.46c-.135.122-.248.236-.372.335a2.979,2.979,0,0,1-1.529.638,3.025,3.025,0,0,1-1.439-.161,3.074,3.074,0,0,1-1.618-1.36,2.874,2.874,0,0,1-.379-1.072,3.094,3.094,0,0,1,2.594-3.52A3.083,3.083,0,0,1,33.06,7.95a4.3,4.3,0,0,1,.038.532c0,.839,0,1.679,0,2.518,0,.036,0,.073,0,.109a.075.075,0,0,1-.084.08h-.643c-.072,0-.08-.048-.08-.1v-.513c0-.032,0-.063-.006-.114m.006-2.087a2.29,2.29,0,1,0-2.3,2.288,2.294,2.294,0,0,0,2.3-2.288" fill="#3a49a5"/>
      <path id="Trazado_7112" data-name="Trazado 7112" d="M3.079,6.019a.367.367,0,0,0,.047-.04,1.993,1.993,0,0,1,1.26-.655,2.409,2.409,0,0,1,1.977.548,2.467,2.467,0,0,1,.911,1.659,2.414,2.414,0,0,1,.019.282c0,.581,0,1.163,0,1.744,0,.487.012.974.019,1.46,0,.033,0,.066,0,.1,0,.048-.023.076-.073.076-.23,0-.459,0-.688,0-.022,0-.055-.04-.064-.067a.353.353,0,0,1,0-.108c0-1.051,0-2.1,0-3.152a1.689,1.689,0,0,0-.51-1.247,1.648,1.648,0,0,0-2.2-.158,1.816,1.816,0,0,0-.7,1.118,1.155,1.155,0,0,0-.012.228q0,1.608,0,3.216c0,.175,0,.175-.173.175s-.356,0-.534,0c-.073,0-.11-.027-.105-.1a.659.659,0,0,0,0-.077V5.759c0-.177,0-.177.183-.177s.349,0,.524,0c.073,0,.105.028.1.1,0,.108,0,.217,0,.325l.023.01" fill="#3a49a5"/>
      <path id="Trazado_7113" data-name="Trazado 7113" d="M15.415,8.379V5.762c0-.032,0-.065,0-.1,0-.052.023-.081.079-.081h.654a.066.066,0,0,1,.073.075c0,.03,0,.059,0,.088v5.288c0,.025,0,.05,0,.076a.071.071,0,0,1-.079.081h-.655a.067.067,0,0,1-.073-.075c0-.033,0-.066,0-.1V8.379" fill="#3a49a5"/>
      <path id="Trazado_7114" data-name="Trazado 7114" d="M15.812,5.084a.744.744,0,1,1,.755-.743.744.744,0,0,1-.755.743" fill="#3a49a5"/>
      <path id="Trazado_7115" data-name="Trazado 7115" d="M17.923,4.341a.724.724,0,0,1,.732-.742.733.733,0,0,1,.748.737.74.74,0,1,1-1.48.005" fill="#3a49a5"/>
      <path id="Trazado_7116" data-name="Trazado 7116" d="M22.229,4.346a.728.728,0,0,1-.739.737.741.741,0,0,1,0-1.482.721.721,0,0,1,.741.745" fill="#3a49a5"/>
      <path id="Trazado_7117" data-name="Trazado 7117" d="M25.066,4.349a.73.73,0,0,1-.735.732.74.74,0,1,1,0-1.479.732.732,0,0,1,.731.747" fill="#3a49a5"/>
      <path id="Trazado_7118" data-name="Trazado 7118" d="M27.9,4.327a.721.721,0,0,1-.729.75.732.732,0,0,1-.741-.728.724.724,0,0,1,.734-.742.714.714,0,0,1,.736.72" fill="#3a49a5"/>
      <path id="Trazado_7119" data-name="Trazado 7119" d="M30.006,3.62a.726.726,0,1,1-.727.7.735.735,0,0,1,.727-.7" fill="#3a49a5"/>
      <path id="Trazado_7120" data-name="Trazado 7120" d="M19.148,12.122l-.192.668-.014.053c-.013.043-.026.086-.082.087s-.074-.046-.087-.093c-.072-.258-.145-.517-.229-.776,0,.029-.005.057-.005.085,0,.229,0,.458,0,.687,0,.043,0,.1-.06.1s-.073-.048-.073-.1v-.949c0-.048,0-.1.067-.1s.128-.011.151.07l.093.336c.04.147.081.294.122.441a.077.077,0,0,0,.04.048c.03-.106.061-.212.091-.318.047-.164.094-.328.139-.492.015-.056.042-.089.106-.087s.089.022.089.083c0,.331,0,.662,0,.992,0,.04-.009.076-.057.077s-.074-.037-.074-.086c0-.167,0-.334,0-.5v-.217l-.022,0" fill="#3a49a5"/>
      <path id="Trazado_7121" data-name="Trazado 7121" d="M21.638,12.628c.038-.132.143-.168.259-.189.036-.006.072-.009.107-.018s.1-.018.086-.076a.207.207,0,0,0-.069-.123.163.163,0,0,0-.226.06c-.01.015-.016.039-.029.044a.131.131,0,0,1-.08.007c-.012,0-.023-.045-.017-.064.024-.079.064-.154.153-.169a1.029,1.029,0,0,1,.248-.009.147.147,0,0,1,.13.118.92.92,0,0,1,.027.181c.006.149.007.3.008.447a.443.443,0,0,1-.016.087c-.032-.009-.064-.017-.095-.029-.011-.005-.018-.021-.014-.016a1.614,1.614,0,0,1-.294.052c-.114,0-.163-.094-.2-.209l-.044.073a.266.266,0,0,1-.25.144.256.256,0,0,1-.244-.153.614.614,0,0,1,0-.557.267.267,0,0,1,.312-.145.259.259,0,0,1,.2.237c-.085.056-.087.057-.129-.02-.029-.054-.066-.1-.132-.1a.162.162,0,0,0-.151.108.511.511,0,0,0,.016.421.209.209,0,0,0,.128.084c.062.012.106-.036.135-.091.053-.1.053-.1.171-.1m.435-.1c-.072.017-.146.029-.217.052a.117.117,0,0,0-.084.153c.017.071.072.085.133.084.135,0,.214-.134.168-.289" fill="#3a49a5"/>
      <path id="Trazado_7122" data-name="Trazado 7122" d="M4.63,12.119v.651a.3.3,0,0,1-.008.108.1.1,0,0,1-.071.048c-.016,0-.041-.033-.052-.055a.174.174,0,0,1,0-.065c0-.3,0-.6,0-.9,0-.043-.018-.1.046-.119s.1.02.128.073c.111.2.224.407.337.61.024.044.049.088.088.156.006-.051.012-.076.012-.1,0-.2,0-.406,0-.609a.2.2,0,0,1,.007-.086.091.091,0,0,1,.064-.041.07.07,0,0,1,.054.04.222.222,0,0,1,.007.086v.882c0,.015,0,.031,0,.043-.016.033-.03.077-.057.091-.044.021-.082-.009-.105-.052s-.062-.107-.091-.161c-.1-.179-.194-.358-.292-.536a.674.674,0,0,0-.042-.062l-.023,0" fill="#3a49a5"/>
      <path id="Trazado_7123" data-name="Trazado 7123" d="M29.032,12.141a.235.235,0,0,1,.347.021,1.132,1.132,0,0,1,.236-.077.156.156,0,0,1,.184.146c.015.209.018.42.019.63,0,.023-.04.06-.066.066-.046.009-.06-.031-.06-.071,0-.149,0-.3,0-.447,0-.127-.037-.185-.115-.192s-.15.055-.159.182,0,.269-.006.4c0,.048.025.127-.062.123s-.049-.077-.05-.123c0-.116,0-.233,0-.349a1.114,1.114,0,0,0-.017-.14.1.1,0,0,0-.089-.1.123.123,0,0,0-.137.069.409.409,0,0,0-.033.147c-.007.116,0,.232,0,.348a.221.221,0,0,1-.005.086c-.012.025-.042.057-.063.057a.085.085,0,0,1-.059-.06,1.267,1.267,0,0,1-.006-.185c0-.16,0-.32,0-.48a.357.357,0,0,1,.039-.1l.107.046" fill="#3a49a5"/>
      <path id="Trazado_7124" data-name="Trazado 7124" d="M22.5,12.14c.154-.09.224-.085.348.023a1.169,1.169,0,0,1,.226-.078.164.164,0,0,1,.187.131.427.427,0,0,1,.019.128c0,.157,0,.313,0,.469,0,.047.019.115-.06.115s-.071-.069-.071-.121c0-.146,0-.291,0-.436,0-.11-.026-.147-.1-.154a.141.141,0,0,0-.157.144c-.01.127,0,.254-.006.381a.52.52,0,0,1,0,.119c-.007.026-.037.045-.057.067a.308.308,0,0,1-.067-.068.222.222,0,0,1,0-.086c0-.142,0-.284,0-.425,0-.09-.035-.127-.1-.132a.133.133,0,0,0-.153.122c-.014.155-.017.311-.027.466,0,.046.022.118-.054.121s-.058-.07-.058-.116c0-.2,0-.406,0-.61a.453.453,0,0,1,.033-.107l.106.047" fill="#3a49a5"/>
      <path id="Trazado_7125" data-name="Trazado 7125" d="M12.724,12.877a.814.814,0,0,1-.2.045.254.254,0,0,1-.219-.158.587.587,0,0,1,0-.535.246.246,0,0,1,.348-.12.092.092,0,0,0,.1-.006c.059-.033.1-.01.1.059,0,.29-.005.58-.024.868a.271.271,0,0,1-.288.232.256.256,0,0,1-.267-.194.3.3,0,0,1,0-.068.094.094,0,0,1,.123.043.159.159,0,0,0,.193.081c.087-.016.11-.087.127-.159a.605.605,0,0,0,.005-.088m.016-.38a.928.928,0,0,0-.052-.2.142.142,0,0,0-.27,0,.474.474,0,0,0,0,.408.142.142,0,0,0,.136.092.15.15,0,0,0,.141-.1,1.32,1.32,0,0,0,.043-.2" fill="#3a49a5"/>
      <path id="Trazado_7126" data-name="Trazado 7126" d="M28.345,12.913c-.117.028-.132.021-.164-.073l-.007-.021c-.029-.073-.057-.146-.086-.22-.109,0-.217-.011-.325-.007-.024,0-.055.042-.067.071-.027.067-.045.138-.066.208a.074.074,0,0,1-.1.057c-.058-.017-.037-.062-.025-.1l.306-.966c.016-.048.037-.085.1-.085a.1.1,0,0,1,.1.084q.165.5.331.992a.316.316,0,0,1,.006.059M27.92,12l-.026,0c-.035.118-.071.235-.1.352-.012.04-.025.086.035.092s.141,0,.232,0c-.05-.163-.093-.306-.136-.449" fill="#3a49a5"/>
      <path id="Trazado_7127" data-name="Trazado 7127" d="M17.137,12.161c0-.092,0-.164,0-.235,0-.054-.035-.145.066-.14s.064.091.065.147c0,.25,0,.5,0,.75,0,.051,0,.1,0,.153,0,.091-.033.107-.116.076a.1.1,0,0,0-.067-.005.274.274,0,0,1-.388-.182.646.646,0,0,1,.017-.477.254.254,0,0,1,.422-.087m.02.34a1.236,1.236,0,0,0-.076-.232.134.134,0,0,0-.214-.022.469.469,0,0,0,0,.509c.079.087.175.083.228-.022a1.161,1.161,0,0,0,.065-.233" fill="#3a49a5"/>
      <path id="Trazado_7128" data-name="Trazado 7128" d="M9.976,12.156c0-.1,0-.191,0-.278,0-.043-.005-.094.06-.1s.072.041.072.089c0,.323,0,.647,0,.97,0,.085-.035.1-.112.073a.117.117,0,0,0-.076,0,.269.269,0,0,1-.375-.173.682.682,0,0,1,0-.459.257.257,0,0,1,.433-.122m.016.345a1.032,1.032,0,0,0-.069-.228.129.129,0,0,0-.231,0,.5.5,0,0,0,0,.467.14.14,0,0,0,.261-.025,1.149,1.149,0,0,0,.043-.21" fill="#3a49a5"/>
      <path id="Trazado_7129" data-name="Trazado 7129" d="M20.517,12.894a.26.26,0,0,1-.4-.175.635.635,0,0,1,.01-.448.254.254,0,0,1,.377-.155.233.233,0,0,0,.045.008c0-.072,0-.14,0-.208a.169.169,0,0,1,.009-.085.106.106,0,0,1,.073-.045c.015,0,.035.036.048.059s0,.028,0,.043c0,.312,0,.624,0,.937,0,.033-.011.085-.031.093s-.069-.011-.129-.024m.066-.388a1.235,1.235,0,0,0-.094-.243c-.062-.093-.159-.08-.222.012a.55.55,0,0,0,0,.469.135.135,0,0,0,.245-.009,1.3,1.3,0,0,0,.07-.229" fill="#3a49a5"/>
      <path id="Trazado_7130" data-name="Trazado 7130" d="M14.039,12.919c-.063.043-.1-.018-.126-.043a1.491,1.491,0,0,1-.251.058.191.191,0,0,1-.223-.175.239.239,0,0,1,.115-.269,1.313,1.313,0,0,1,.2-.058c.061-.016.141,0,.151-.092a.116.116,0,0,0-.085-.125.172.172,0,0,0-.2.044.235.235,0,0,0-.024.037.082.082,0,0,1-.126.035.241.241,0,0,1,.225-.248.749.749,0,0,1,.142,0,.182.182,0,0,1,.183.18c.011.115.016.231.019.347,0,.1,0,.2,0,.307m-.153-.387c-.076.018-.154.032-.229.057a.122.122,0,0,0-.086.144.135.135,0,0,0,.157.086.212.212,0,0,0,.158-.287" fill="#3a49a5"/>
      <path id="Trazado_7131" data-name="Trazado 7131" d="M16.265,12.919c-.065.043-.1-.022-.124-.043a1.591,1.591,0,0,1-.254.058.187.187,0,0,1-.219-.165.238.238,0,0,1,.113-.279,1.313,1.313,0,0,1,.2-.058c.06-.016.14,0,.151-.092a.118.118,0,0,0-.085-.125.17.17,0,0,0-.2.044c-.016.019-.023.051-.043.061a.128.128,0,0,1-.088.013c-.01,0-.022-.054-.012-.072a.435.435,0,0,1,.093-.13.36.36,0,0,1,.389.005.194.194,0,0,1,.058.111c.013.129.017.259.022.389,0,.09,0,.181,0,.283m-.152-.389c-.072.018-.146.031-.217.054a.117.117,0,0,0-.091.156.13.13,0,0,0,.17.074.214.214,0,0,0,.138-.284" fill="#3a49a5"/>
      <path id="Trazado_7132" data-name="Trazado 7132" d="M8.285,12.326c.022-.162.1-.237.248-.244a.706.706,0,0,1,.13,0,.2.2,0,0,1,.18.2c0,.105,0,.21,0,.315,0,.076.014.151.017.227a.432.432,0,0,1-.018.1c-.034-.012-.068-.023-.1-.036-.009,0-.016-.014-.013-.012a1.452,1.452,0,0,1-.247.057.194.194,0,0,1-.224-.174.24.24,0,0,1,.143-.285c.075-.026.156-.034.231-.058.034-.011.089-.045.087-.06a.215.215,0,0,0-.064-.128.153.153,0,0,0-.233.056c-.037.055-.071.078-.137.041m.449.226-.025-.023a2.093,2.093,0,0,0-.239.062.118.118,0,0,0-.076.15.128.128,0,0,0,.16.076.217.217,0,0,0,.115-.076.957.957,0,0,0,.065-.189" fill="#3a49a5"/>
      <path id="Trazado_7133" data-name="Trazado 7133" d="M5.82,12.877a1.517,1.517,0,0,1-.25.057.2.2,0,0,1-.221-.179.25.25,0,0,1,.168-.292c.062-.02.128-.025.192-.04.045-.01.095-.016.1-.082a.119.119,0,0,0-.081-.127.173.173,0,0,0-.218.068c-.012.017-.021.042-.038.05a.086.086,0,0,1-.07,0,.071.071,0,0,1-.018-.064c.022-.075.058-.15.141-.165a.856.856,0,0,1,.267-.011c.094.013.144.1.149.214s0,.239,0,.359c0,.057.008.115.007.173a.36.36,0,0,1-.019.085.877.877,0,0,1-.094-.033c-.011-.005-.018-.02-.014-.015m-.035-.344c-.073.017-.148.03-.219.053a.11.11,0,0,0-.08.144.112.112,0,0,0,.128.092c.138,0,.217-.131.171-.289" fill="#3a49a5"/>
      <path id="Trazado_7134" data-name="Trazado 7134" d="M11.175,11.8c.109-.033.126-.027.158.079.074.251.146.5.219.753.008.028.019.054.035.1.016-.04.026-.06.033-.082.077-.25.152-.5.229-.751.006-.021.014-.041.021-.062a.072.072,0,0,1,.1-.051c.05.017.033.058.022.092-.044.142-.089.284-.134.426-.059.184-.12.366-.178.55-.015.045-.035.079-.089.079a.09.09,0,0,1-.094-.074q-.162-.51-.323-1.018a.118.118,0,0,1,0-.042" fill="#3a49a5"/>
      <path id="Trazado_7135" data-name="Trazado 7135" d="M30.269,12.545h-.175c-.051,0-.079.026-.06.076a.461.461,0,0,0,.073.143.14.14,0,0,0,.227,0c.02-.021.029-.054.052-.069a.134.134,0,0,1,.092-.025c.051.012.034.056.021.09a.315.315,0,0,1-.5.1.566.566,0,0,1,.029-.7.277.277,0,0,1,.4.021.438.438,0,0,1,.1.282c0,.066-.03.092-.093.09h-.164Zm-.048-.115h0c.029,0,.058,0,.086,0,.079-.005.092-.028.066-.1a.172.172,0,0,0-.151-.122.155.155,0,0,0-.148.09c-.055.085-.029.133.071.137h.076" fill="#3a49a5"/>
      <path id="Trazado_7136" data-name="Trazado 7136" d="M10.809,12.685a.292.292,0,0,1-.216.249.283.283,0,0,1-.331-.131.6.6,0,0,1,0-.585.263.263,0,0,1,.266-.136.242.242,0,0,1,.233.151,1.265,1.265,0,0,1,.063.218c.014.064-.018.095-.084.094-.105,0-.211,0-.316,0s-.11.027-.082.115a.208.208,0,0,0,.165.156c.08.013.127-.041.16-.106s.08-.064.141-.026m-.136-.265c0-.137-.065-.222-.164-.218s-.166.09-.162.218Z" fill="#3a49a5"/>
      <path id="Trazado_7137" data-name="Trazado 7137" d="M19.393,12.508a1.865,1.865,0,0,1,.064-.255.258.258,0,0,1,.263-.173.275.275,0,0,1,.264.177.848.848,0,0,1,.051.221c.009.056-.033.065-.077.066-.1,0-.211,0-.316,0s-.117.035-.089.123a.2.2,0,0,0,.16.147.154.154,0,0,0,.163-.1c.025-.053.059-.074.112-.042s.022.07.006.1a.3.3,0,0,1-.55-.022,1.263,1.263,0,0,1-.051-.244m.318-.078h0c.032,0,.065,0,.1,0,.072-.005.091-.03.071-.1a.164.164,0,0,0-.143-.13.159.159,0,0,0-.158.092c-.056.1-.037.133.079.135h.054" fill="#3a49a5"/>
      <path id="Trazado_7138" data-name="Trazado 7138" d="M23.344,12.522a2.2,2.2,0,0,1,.054-.243.29.29,0,0,1,.544-.015.733.733,0,0,1,.049.188c.012.064-.021.094-.086.093-.105,0-.211,0-.316,0-.087,0-.109.034-.085.117a.2.2,0,0,0,.166.154c.081.013.128-.038.162-.1.023-.044.053-.072.1-.045s.038.076.014.113a.286.286,0,0,1-.243.158.265.265,0,0,1-.282-.144,2.07,2.07,0,0,1-.081-.273m.161-.1h.333c0-.126-.059-.213-.152-.219s-.171.08-.181.219" fill="#3a49a5"/>
      <path id="Trazado_7139" data-name="Trazado 7139" d="M17.737,12.546h-.175c-.049,0-.072.023-.07.074a.222.222,0,0,0,.152.193c.07.02.123-.006.178-.09.012-.018.022-.045.038-.05a.1.1,0,0,1,.079,0,.067.067,0,0,1,.017.063.61.61,0,0,1-.142.17.289.289,0,0,1-.39-.105.6.6,0,0,1,0-.584.268.268,0,0,1,.3-.135.28.28,0,0,1,.237.229c.057.253.052.232-.166.231h-.054Zm.1-.117c0-.138-.061-.216-.149-.227a.2.2,0,0,0-.184.142c-.014.046-.009.083.047.084.093,0,.186,0,.286,0" fill="#3a49a5"/>
      <path id="Trazado_7140" data-name="Trazado 7140" d="M25.679,12.49a.463.463,0,0,1-.111.371.3.3,0,0,1-.46-.064.594.594,0,0,1,0-.575.3.3,0,0,1,.5-.014.431.431,0,0,1,.071.282m-.521.025a1,1,0,0,0,.076.226.149.149,0,0,0,.266-.008.447.447,0,0,0,.006-.437.155.155,0,0,0-.286,0,1.059,1.059,0,0,0-.062.219" fill="#3a49a5"/>
      <path id="Trazado_7141" data-name="Trazado 7141" d="M14.314,12.137a.513.513,0,0,1,.088-.046.209.209,0,0,1,.3.174,5.617,5.617,0,0,1,.011.609c0,.019-.037.054-.052.052a.109.109,0,0,1-.069-.052.2.2,0,0,1-.007-.085c0-.142,0-.284,0-.425,0-.1-.034-.137-.111-.147a.133.133,0,0,0-.165.106.534.534,0,0,0-.024.149c0,.123,0,.247,0,.37,0,.042,0,.085-.058.087s-.073-.039-.074-.087c0-.222,0-.443,0-.665,0-.028.025-.078.038-.079a.437.437,0,0,1,.125.039" fill="#3a49a5"/>
      <path id="Trazado_7142" data-name="Trazado 7142" d="M32.241,12.491c-.023.1-.041.183-.067.268a.3.3,0,0,1-.513.059.593.593,0,0,1,0-.617.288.288,0,0,1,.5.045,1.426,1.426,0,0,1,.077.245m-.134.019a1.487,1.487,0,0,0-.059-.206.159.159,0,0,0-.154-.1.166.166,0,0,0-.148.111.478.478,0,0,0,0,.39.17.17,0,0,0,.157.116.16.16,0,0,0,.15-.107,1.434,1.434,0,0,0,.057-.2" fill="#3a49a5"/>
      <path id="Trazado_7143" data-name="Trazado 7143" d="M3.413,12.506a1.348,1.348,0,0,1,.08-.263.289.289,0,0,1,.52-.01.547.547,0,0,1,0,.553.288.288,0,0,1-.519-.01,1.364,1.364,0,0,1-.08-.27m.548.018a1.409,1.409,0,0,0-.049-.2.161.161,0,0,0-.279-.058.443.443,0,0,0,0,.491.146.146,0,0,0,.254-.016.974.974,0,0,0,.075-.214" fill="#3a49a5"/>
      <path id="Trazado_7144" data-name="Trazado 7144" d="M2.866,12.88s-.022.017-.04.027a.216.216,0,0,1-.341-.156,4.933,4.933,0,0,1-.014-.6c0-.022.045-.044.068-.065.02.026.055.052.056.079.007.127,0,.254,0,.381,0,.043,0,.087,0,.13a.119.119,0,0,0,.106.12.124.124,0,0,0,.153-.073.616.616,0,0,0,.038-.179c.006-.123,0-.246,0-.37,0-.04,0-.085.055-.089s.076.034.076.083c0,.225,0,.45,0,.675,0,.026-.027.073-.044.074-.033,0-.067-.021-.121-.041" fill="#3a49a5"/>
      <path id="Trazado_7145" data-name="Trazado 7145" d="M7.189,12.937a.262.262,0,0,1-.236-.138.6.6,0,0,1,0-.582.29.29,0,0,1,.311-.133.306.306,0,0,1,.236.233.642.642,0,0,1-.013.417.293.293,0,0,1-.3.2m.224-.413a1.488,1.488,0,0,0-.054-.209.161.161,0,0,0-.274-.055.436.436,0,0,0,0,.5.142.142,0,0,0,.241-.009,1.063,1.063,0,0,0,.087-.225" fill="#3a49a5"/>
      <path id="Trazado_7146" data-name="Trazado 7146" d="M30.767,12.135a.733.733,0,0,1,.152-.051.2.2,0,0,1,.243.179,1.587,1.587,0,0,1,.017.249c0,.1,0,.21,0,.316,0,.048,0,.1-.07.1s-.061-.052-.062-.1c0-.156,0-.312,0-.468a.138.138,0,0,0-.2-.135.177.177,0,0,0-.1.161c-.006.072,0,.145,0,.217s0,.153,0,.229c0,.043,0,.1-.061.1s-.071-.05-.071-.1c0-.088,0-.175,0-.262,0-.12,0-.24,0-.359a.156.156,0,0,1,.043-.11c.02-.013.071.022.111.036" fill="#3a49a5"/>
      <path id="Trazado_7147" data-name="Trazado 7147" d="M.424,12.152a.224.224,0,0,1,.215-.07.192.192,0,0,1,.186.169c.016.2.018.4.024.6,0,.043-.016.08-.067.081s-.063-.039-.063-.081c0-.135,0-.269,0-.4a.592.592,0,0,0-.01-.119.117.117,0,0,0-.1-.11.137.137,0,0,0-.15.065.327.327,0,0,0-.037.133c0,.123,0,.247,0,.37a.2.2,0,0,1-.006.086c-.012.024-.042.054-.065.055S.3,12.889.284,12.867c-.006-.007,0-.021,0-.032,0-.218,0-.435,0-.653,0-.039,0-.09.051-.09.026,0,.052.033.091.06" fill="#3a49a5"/>
      <path id="Trazado_7148" data-name="Trazado 7148" d="M26.955,12.71c.045-.145.08-.265.118-.385.017-.059.035-.118.056-.176s.062-.076.129-.039c-.017.062-.032.125-.05.186-.08.256-.158.513-.241.768a.362.362,0,0,1-.092.156.16.16,0,0,1-.136.024c-.03-.009-.041-.071-.061-.111.195-.06.237-.147.181-.323-.064-.2-.128-.409-.189-.613-.012-.038-.045-.089.022-.107s.086.026.1.075c.045.15.087.3.132.449.007.024.015.047.031.1" fill="#3a49a5"/>
      <path id="Trazado_7149" data-name="Trazado 7149" d="M1.212,12.95a.276.276,0,0,1-.268-.194.106.106,0,0,1,.025-.091c.04-.029.073,0,.09.043a.165.165,0,0,0,.159.111.145.145,0,0,0,.144-.11c.008-.07-.042-.093-.1-.113a2.055,2.055,0,0,1-.2-.078.216.216,0,0,1-.121-.234.238.238,0,0,1,.2-.2c.154-.02.271.035.3.149.007.024-.01.056-.015.084a.356.356,0,0,1-.088-.023c-.021-.011-.031-.04-.05-.056a.12.12,0,0,0-.159-.017.124.124,0,0,0-.055.083.115.115,0,0,0,.06.079,1.975,1.975,0,0,0,.2.077.248.248,0,0,1,.039.433.851.851,0,0,1-.17.058" fill="#3a49a5"/>
      <path id="Trazado_7150" data-name="Trazado 7150" d="M26.009,12.937a.254.254,0,0,1-.267-.192.093.093,0,0,1,.027-.079.052.052,0,0,1,.086.03.172.172,0,0,0,.142.121.134.134,0,0,0,.154-.089c.018-.068-.006-.1-.091-.134-.064-.024-.131-.045-.192-.075a.23.23,0,0,1-.122-.255.246.246,0,0,1,.208-.181c.148-.015.254.031.29.137a.1.1,0,0,1-.011.092c-.033.027-.075.014-.1-.028a.138.138,0,0,0-.183-.073c-.029.011-.068.045-.069.069a.131.131,0,0,0,.05.1.736.736,0,0,0,.161.066c.165.059.223.149.194.3a.254.254,0,0,1-.277.193" fill="#3a49a5"/>
      <path id="Trazado_7151" data-name="Trazado 7151" d="M32.54,12.936a.234.234,0,0,1-.253-.164c-.016-.043-.029-.085.029-.108s.069.012.09.051a.156.156,0,0,0,.223.084.15.15,0,0,0,.067-.1.128.128,0,0,0-.061-.089,1.12,1.12,0,0,0-.173-.065.233.233,0,0,1-.17-.287c.019-.113.107-.176.249-.177.126,0,.208.042.238.132a.115.115,0,0,1-.01.1c-.035.032-.069.007-.1-.03-.059-.078-.13-.1-.194-.064a.128.128,0,0,0-.064.088c0,.029.038.067.069.082.061.031.129.047.193.073a.224.224,0,0,1,.158.252.246.246,0,0,1-.239.226c-.018,0-.036,0-.054,0" fill="#3a49a5"/>
      <path id="Trazado_7152" data-name="Trazado 7152" d="M24.227,12.137a.555.555,0,0,1,.106-.049.224.224,0,0,1,.3.233c0,.168,0,.335,0,.5,0,.014,0,.033,0,.043a.57.57,0,0,1-.058.063c-.017-.02-.045-.037-.05-.06a.67.67,0,0,1,0-.119c0-.12,0-.24,0-.36s-.048-.172-.136-.174-.158.056-.163.177,0,.261,0,.392a.2.2,0,0,1-.006.086.1.1,0,0,1-.065.055c-.02,0-.042-.036-.06-.059-.005-.007,0-.021,0-.032,0-.218,0-.436,0-.654a.114.114,0,0,1,.043-.086c.019-.008.057.022.1.042" fill="#3a49a5"/>
      <path id="Trazado_7153" data-name="Trazado 7153" d="M7.758,12.137a.592.592,0,0,1,.119-.051c.172-.035.281.057.288.248.007.167,0,.334,0,.5v.022c0,.041-.016.08-.061.07a.127.127,0,0,1-.067-.068.222.222,0,0,1,0-.086c0-.135,0-.269,0-.4,0-.093-.038-.14-.108-.153a.137.137,0,0,0-.171.114.577.577,0,0,0-.022.149c0,.124,0,.247,0,.371,0,.038-.006.077-.055.077s-.057-.038-.057-.076q0-.344,0-.687c0-.024.024-.069.034-.068a.379.379,0,0,1,.105.04" fill="#3a49a5"/>
      <path id="Trazado_7154" data-name="Trazado 7154" d="M15.29,12.63c.1.008.115.024.094.1a.281.281,0,0,1-.239.207.262.262,0,0,1-.294-.172.682.682,0,0,1,0-.51.274.274,0,0,1,.276-.172.243.243,0,0,1,.243.165c.012.036.037.078-.019.1s-.075,0-.1-.042a.146.146,0,0,0-.151-.1.166.166,0,0,0-.146.143,1.348,1.348,0,0,0,0,.311.174.174,0,0,0,.154.159c.064,0,.12-.046.159-.141.006-.013.012-.026.02-.046" fill="#3a49a5"/>
      <path id="Trazado_7155" data-name="Trazado 7155" d="M6.516,12.626c.1.017.113.031.09.11a.28.28,0,0,1-.491.1.634.634,0,0,1,0-.64.277.277,0,0,1,.291-.1.234.234,0,0,1,.192.171c.012.035.027.072-.024.091a.061.061,0,0,1-.089-.033.246.246,0,0,0-.034-.056.127.127,0,0,0-.207-.009.451.451,0,0,0-.021.5.142.142,0,0,0,.259-.037c.012-.026.022-.053.035-.085" fill="#3a49a5"/>
      <path id="Trazado_7156" data-name="Trazado 7156" d="M24.914,11.821v.165a.092.092,0,0,0,.059.1c.07.032.069.091,0,.123a.089.089,0,0,0-.057.093v.391c0,.052.012.092.073.1s.061.054.048.092a.107.107,0,0,1-.074.045.13.13,0,0,1-.159-.113c-.016-.11-.016-.223-.021-.335,0-.058,0-.117,0-.174a.192.192,0,0,0-.046-.1.075.075,0,0,1,0-.121.216.216,0,0,0,.051-.109c.013-.1.012-.105.135-.161" fill="#3a49a5"/>
      <path id="Trazado_7157" data-name="Trazado 7157" d="M1.72,11.831c0,.049.006.088.007.127,0,.058,0,.11.073.137a.06.06,0,0,1-.009.114c-.059.023-.064.06-.064.11,0,.12,0,.24,0,.359,0,.059.01.106.082.122.02,0,.044.049.041.072a.089.089,0,0,1-.058.06.132.132,0,0,1-.175-.115c-.016-.154-.017-.311-.023-.466A.194.194,0,0,0,1.55,12.2c-.018-.017-.007-.071,0-.106s.039-.077.041-.116a.141.141,0,0,1,.128-.147" fill="#3a49a5"/>
      <path id="Trazado_7158" data-name="Trazado 7158" d="M3.293,11.83c0,.06.006.11.007.159s.006.083.062.1c.024.006.057.041.056.063s-.039.041-.058.064-.056.05-.057.076c-.006.13,0,.261,0,.392a.107.107,0,0,0,.077.116.094.094,0,0,1,.044.079.1.1,0,0,1-.076.055c-.1.009-.157-.052-.16-.162,0-.137,0-.275,0-.413,0-.06.013-.123-.061-.16-.014-.007-.013-.089,0-.1.06-.034.059-.084.059-.139s.023-.105.107-.13" fill="#3a49a5"/>
      <path id="Trazado_7159" data-name="Trazado 7159" d="M2.3,11.826c0,.067,0,.117,0,.167a.082.082,0,0,0,.066.1.094.094,0,0,1,.052.067c0,.017-.03.05-.052.055-.056.013-.067.048-.066.1,0,.124,0,.247,0,.371,0,.058.01.1.081.122.021.005.044.055.042.083s-.042.047-.068.051a.142.142,0,0,1-.168-.152c0-.149,0-.3,0-.447,0-.05,0-.1-.055-.13a.059.059,0,0,1,0-.107c.055-.033.056-.078.058-.129,0-.085.007-.086.114-.143" fill="#3a49a5"/>
      <path id="Trazado_7160" data-name="Trazado 7160" d="M31.443,11.828c0,.063,0,.113,0,.162s.008.082.063.1a.09.09,0,0,1,.055.064c0,.022-.04.041-.059.063s-.055.051-.056.077c0,.127,0,.254,0,.381a.133.133,0,0,0,.089.136c.018.007.033.054.029.08s-.039.04-.062.044c-.1.015-.168-.049-.172-.162,0-.138,0-.276,0-.413,0-.061.011-.123-.061-.16a.115.115,0,0,1,0-.1c.061-.035.059-.085.059-.14s.024-.1.114-.131" fill="#3a49a5"/>
      <path id="Trazado_7161" data-name="Trazado 7161" d="M8.972,12.35c0-.156,0-.312,0-.468,0-.042-.007-.1.056-.1s.076.045.076.1q0,.479,0,.957c0,.046-.007.092-.066.093s-.065-.054-.066-.1c0-.16,0-.319,0-.479" fill="#3a49a5"/>
      <path id="Trazado_7162" data-name="Trazado 7162" d="M28.515,12.355v.435a.222.222,0,0,1-.007.086.092.092,0,0,1-.058.049.089.089,0,0,1-.06-.047.156.156,0,0,1-.007-.075q0-.452,0-.9v-.043c0-.046.017-.078.07-.076s.06.034.061.074c0,.072,0,.145,0,.217v.283" fill="#3a49a5"/>
      <path id="Trazado_7163" data-name="Trazado 7163" d="M13.342,12.357c0,.16,0,.32,0,.479,0,.04,0,.089-.053.091s-.058-.051-.06-.094c0-.025,0-.051,0-.076v-.741a.962.962,0,0,1,0-.152c.005-.029.029-.073.051-.077.056-.011.059.039.06.08v.49" fill="#3a49a5"/>
      <path id="Trazado_7164" data-name="Trazado 7164" d="M13.1,12.515v.326c0,.04,0,.085-.056.088s-.075-.035-.075-.084q0-.338,0-.673c0-.049.019-.088.076-.083s.055.049.055.089v.337" fill="#3a49a5"/>
      <path id="Trazado_7165" data-name="Trazado 7165" d="M20.807,12.5c0-.1,0-.2,0-.3,0-.048,0-.1.068-.1s.063.051.063.1q0,.321,0,.643c0,.044,0,.095-.062.1s-.068-.053-.069-.1c0-.109,0-.218,0-.327" fill="#3a49a5"/>
      <path id="Trazado_7166" data-name="Trazado 7166" d="M1.9,12.509c0-.1,0-.211,0-.316,0-.048,0-.1.068-.1s.063.052.063.1c0,.215,0,.429,0,.644,0,.044,0,.095-.063.1s-.067-.054-.068-.1c0-.1,0-.211,0-.316" fill="#3a49a5"/>
      <path id="Trazado_7167" data-name="Trazado 7167" d="M15.569,12.51c0,.112,0,.225,0,.337,0,.028-.029.073-.051.078-.055.01-.06-.039-.06-.08,0-.225,0-.45,0-.674a.1.1,0,0,1,.051-.078c.055-.01.059.039.06.08,0,.112,0,.225,0,.337" fill="#3a49a5"/>
      <path id="Trazado_7168" data-name="Trazado 7168" d="M6.793,12.517v.315c0,.043,0,.1-.059.1s-.054-.049-.054-.089q0-.332,0-.663c0-.041,0-.087.059-.085s.053.05.054.09v.337" fill="#3a49a5"/>
      <path id="Trazado_7169" data-name="Trazado 7169" d="M12.163,12.509v.337c0,.042-.006.09-.061.078-.022,0-.05-.05-.05-.078,0-.225,0-.449,0-.674,0-.042.006-.09.061-.079.022,0,.048.051.05.079.005.112,0,.225,0,.337" fill="#3a49a5"/>
      <path id="Trazado_7170" data-name="Trazado 7170" d="M28.757,12.509v.337c0,.042-.006.09-.061.079a.1.1,0,0,1-.05-.079c0-.224,0-.449,0-.674,0-.041.006-.09.061-.078.022,0,.048.05.05.078.005.112,0,.225,0,.337" fill="#3a49a5"/>
      <path id="Trazado_7171" data-name="Trazado 7171" d="M32.947,12.837c0-.056.026-.079.08-.078s.072.038.071.087-.02.085-.075.085-.078-.042-.076-.094" fill="#3a49a5"/>
      <path id="Trazado_7172" data-name="Trazado 7172" d="M13.1,11.862c0,.059-.016.093-.069.087s-.062-.044-.061-.087.016-.079.068-.08.06.049.062.08" fill="#3a49a5"/>
      <path id="Trazado_7173" data-name="Trazado 7173" d="M1.867,11.863c.043-.037.066-.073.094-.078.049-.009.066.032.067.077s-.014.093-.07.084c-.027,0-.049-.043-.091-.083" fill="#3a49a5"/>
      <path id="Trazado_7174" data-name="Trazado 7174" d="M20.792,11.874c.016-.057.025-.095.08-.092s.064.041.064.084-.02.092-.074.08c-.027-.005-.047-.047-.07-.072" fill="#3a49a5"/>
      <path id="Trazado_7175" data-name="Trazado 7175" d="M15.584,11.877c-.023.024-.044.065-.071.069-.054.008-.062-.043-.055-.081s.028-.073.049-.078c.054-.012.061.034.077.09" fill="#3a49a5"/>
      <path id="Trazado_7176" data-name="Trazado 7176" d="M12.035,11.854c.024-.024.045-.065.071-.068.054-.008.062.042.055.081s-.028.072-.05.077c-.053.013-.06-.034-.076-.09" fill="#3a49a5"/>
      <path id="Trazado_7177" data-name="Trazado 7177" d="M28.789,11.869c-.043.037-.067.074-.093.076-.055,0-.058-.049-.05-.086s.035-.051.053-.076l.09.086" fill="#3a49a5"/>
      <path id="Trazado_7178" data-name="Trazado 7178" d="M6.665,11.854c.024-.024.045-.065.071-.068.054-.008.062.042.054.081s-.027.072-.049.077c-.054.013-.06-.034-.076-.09" fill="#3a49a5"/>
    </g>
  </g>
</svg>
