<svg xmlns="http://www.w3.org/2000/svg" width="26.518" height="24.018" viewBox="0 0 26.518 24.018">
  <g id="Grupo_10023" data-name="Grupo 10023" transform="translate(-377.705 -357.533)">
    <ellipse id="Elipse_1200" data-name="Elipse 1200" cx="12.009" cy="12.009" rx="12.009" ry="12.009" transform="translate(380.205 357.533)" fill="#aac2f4" opacity="0.473"/>
    <g id="Grupo_9842" data-name="Grupo 9842" transform="translate(378.205 358.533)">
      <path id="Exclusión_12" data-name="Exclusión 12" d="M17.1,20.472H4.8a1.9,1.9,0,0,1-.649-.105,1.374,1.374,0,0,1-.494-.3,1.419,1.419,0,0,1-.324-.485,2.032,2.032,0,0,1-.141-.65c-.039-.623-.088-1.253-.136-1.861-.029-.374-.062-.8-.092-1.213-.008-.115-.055-.135-.143-.135H2.81c-.173,0-.348,0-.522,0s-.32,0-.459,0A1.478,1.478,0,0,1,.367,14.246c0-.375,0-.752,0-1.117,0-.184,0-.394,0-.6q0-.217,0-.434c0-.465,0-.883,0-1.3,0-.118-.006-.192-.14-.231A.336.336,0,0,1,0,10.207c0-.254,0-.518,0-.75,0-.489,0-.93,0-1.375a.367.367,0,0,1,.415-.4l.239,0h.4l.087,0,.085,0a.294.294,0,0,0,.329-.233c.038-.122.2-.138.329-.138h.973c.173,0,.4,0,.633,0H3.5a.165.165,0,0,0,.125-.034.172.172,0,0,0,.03-.13c-.009-.24-.009-.5,0-.8a.154.154,0,0,0-.028-.115.108.108,0,0,0-.082-.026H3.514a1.386,1.386,0,0,1-.139.008.725.725,0,0,1-.134-.011.357.357,0,0,1-.319-.382V5.662c0-.41,0-.833,0-1.25a.354.354,0,0,1,.4-.386l.054,0,.059,0a.231.231,0,0,0,.18-.054.29.29,0,0,0,.043-.225,1.139,1.139,0,0,1,.127-.66,1.09,1.09,0,0,1,.508-.445c.109-.051.1-.131.09-.209a.315.315,0,0,1,0-.11c.022-.092-.026-.128-.111-.156a.363.363,0,0,1-.255-.387c0-.211,0-.43,0-.635V1.118c0-.231,0-.47,0-.7a.423.423,0,0,1,.1-.306.411.411,0,0,1,.3-.1L5.84,0,7.255,0a.42.42,0,0,1,.306.1.416.416,0,0,1,.106.3c0,.246,0,.491,0,.761,0,.189,0,.4,0,.609a.367.367,0,0,1-.251.391c-.079.028-.138.056-.114.153a.313.313,0,0,1,0,.112h0c-.01.078-.02.159.087.209a1.053,1.053,0,0,1,.64,1.126.279.279,0,0,0,.043.215.179.179,0,0,0,.138.046.594.594,0,0,0,.075-.005.521.521,0,0,1,.067,0c.034,0,.069,0,.113.006h.006c.035,0,.072.005.106.005A.247.247,0,0,0,8.727,4c.071-.053.059-.159.046-.27v0a.839.839,0,0,1-.009-.16,1.142,1.142,0,0,1,.174-.541.991.991,0,0,1,.43-.358.193.193,0,0,0,.124-.226.442.442,0,0,1,0-.094c.02-.109-.032-.15-.136-.186a.343.343,0,0,1-.23-.357c0-.134,0-.282,0-.464,0-.311,0-.633,0-.953A.357.357,0,0,1,9.518,0L11,0c.477,0,.945,0,1.393,0a.358.358,0,0,1,.385.386c0,.357,0,.718,0,1.067q0,.175,0,.35a.336.336,0,0,1-.212.345c-.111.04-.169.087-.156.221,0,.015,0,.03,0,.049a.246.246,0,0,0,.15.258,1.016,1.016,0,0,1,.582,1c0,.163,0,.253.041.3s.13.043.3.043c.383,0,.383,0,.384-.37a1.135,1.135,0,0,1,.151-.592,1.029,1.029,0,0,1,.456-.4A.19.19,0,0,0,14.6,2.45v0a.473.473,0,0,1,0-.082c.021-.127-.038-.173-.14-.208a.329.329,0,0,1-.226-.336v-.03c0-.462,0-.94,0-1.41A.386.386,0,0,1,14.347.1a.4.4,0,0,1,.285-.1l1.483,0c.477,0,.945,0,1.393,0a.38.38,0,0,1,.279.1.406.406,0,0,1,.1.285c0,.283,0,.569,0,.846v.05c0,.163,0,.332,0,.5a.369.369,0,0,1-.257.387h0c-.068.023-.128.043-.105.133a.331.331,0,0,1,0,.12c-.012.08-.024.162.076.208a1.089,1.089,0,0,1,.535.482,1.291,1.291,0,0,1,.118.706.212.212,0,0,0,.032.162.2.2,0,0,0,.155.041h.074a.474.474,0,0,1,.379.111.619.619,0,0,1,.095.417q0,.173,0,.346c0,.283,0,.575,0,.865a.512.512,0,0,1-.092.337.373.373,0,0,1-.3.111l-.066,0-.059,0a.224.224,0,0,0-.174.054.3.3,0,0,0-.041.233,3.929,3.929,0,0,1,0,.639.184.184,0,0,0,.029.142.2.2,0,0,0,.149.039h.013c.165,0,.335,0,.553,0h.54c.126,0,.292,0,.458,0h.013a.51.51,0,0,1,.269.062.348.348,0,0,1,.155.22.1.1,0,0,0,.111.086h.575l.379,0a.366.366,0,0,1,.41.408c0,.4,0,.812,0,1.231v.119c0,.247,0,.5,0,.752,0,.2-.071.325-.212.366s-.155.138-.155.254v.014c0,1.008,0,2.1,0,3.336a1.481,1.481,0,0,1-1.56,1.56h-.463c-.155,0-.283,0-.4,0H19.1c-.1,0-.147.021-.155.141-.029.407-.061.822-.092,1.222l0,.05v.009c-.046.588-.093,1.2-.13,1.793a2.013,2.013,0,0,1-.142.647,1.416,1.416,0,0,1-.326.483,1.381,1.381,0,0,1-.5.3A1.923,1.923,0,0,1,17.1,20.472ZM2.4,14.985c.116,0,.21,0,.3.008h.035a.158.158,0,0,0,.121-.036.224.224,0,0,0,.027-.169c-.055-.676-.106-1.353-.155-2.008-.025-.33-.056-.74-.086-1.13,0-.063,0-.133,0-.2a.67.67,0,0,0-.08-.436.288.288,0,0,0-.225-.074,1.793,1.793,0,0,0-.183.013H2.143a1.769,1.769,0,0,1-.193.015l-.048,0H1.855a.359.359,0,0,1-.377-.266c-.031-.1-.085-.113-.129-.113a.417.417,0,0,0-.071.008h-.01a.432.432,0,0,1-.071.009H1.179l-.024,0a.065.065,0,0,0-.052.019c-.02.023-.014.064-.008.1h0a.321.321,0,0,1,0,.044c0,.464,0,.95,0,1.342,0,.065,0,.131,0,.2v.2q0,.278,0,.555v.093c0,.333,0,.678,0,1.017a.761.761,0,0,0,.826.82h.254Zm17.069-4.024c-.128,0-.156.074-.164.22-.02.355-.049.712-.077,1.056-.013.156-.027.337-.041.513-.017.229-.034.458-.051.691v.006c-.033.45-.067.915-.106,1.372a.181.181,0,0,0,.025.141.149.149,0,0,0,.115.033H19.2c.09,0,.189-.006.31-.006l.216,0h.271a.761.761,0,0,0,.819-.827c0-.4,0-.8,0-1.19q0-.238,0-.476,0-.173,0-.347V12.1c0-.438,0-.892,0-1.338a.287.287,0,0,1,0-.043c.005-.034.012-.072-.007-.094a.065.065,0,0,0-.053-.018h-.016a.547.547,0,0,1-.089-.011h0a.5.5,0,0,0-.086-.01.108.108,0,0,0-.114.08.428.428,0,0,1-.179.241.518.518,0,0,1-.275.063l-.064,0-.079,0-.1,0-.106,0a1.075,1.075,0,0,1-.13-.007A.453.453,0,0,0,19.467,10.961Z" transform="translate(0 1.1)" fill="#3a49a5" stroke="rgba(0,0,0,0)" stroke-width="1"/>
      <path id="Trazado_6465" data-name="Trazado 6465" d="M345.362,57.462c0,.2-.005.393.006.589.007.124-.04.146-.153.148-.581.012-.581.016-.58-.556,0-.06,0-.121,0-.181l.029-.027a1.3,1.3,0,0,1,.665,0l.029.027" transform="translate(-325.284 -54.17)" fill="#3a49a5"/>
      <path id="Trazado_6466" data-name="Trazado 6466" d="M25.966.741c0-.2.005-.393-.006-.589C25.952.028,26,.006,26.112,0c.581-.012.581-.016.58.556,0,.06,0,.121,0,.181L26.66.768a1.3,1.3,0,0,1-.665,0L25.966.741" transform="translate(-24.501 -0.002)" fill="#3a49a5"/>
      <path id="Trazado_6467" data-name="Trazado 6467" d="M13.648,13.8c-.2,0-.393-.005-.588.006-.124.007-.146-.04-.148-.153-.012-.582-.016-.582.556-.581l.181,0-.007-.006a.968.968,0,0,1,.035.7l-.029.032" transform="translate(-12.184 -12.338)" fill="#3a49a5"/>
      <path id="Trazado_6468" data-name="Trazado 6468" d="M356.293,45.625c.2,0,.393.005.588-.006.124-.007.146.04.148.153.012.581.016.582-.555.581l-.181,0,.007.006a.967.967,0,0,1-.035-.7l.029-.032" transform="translate(-336.214 -43.057)" fill="#3a49a5"/>
      <path id="Trazado_6469" data-name="Trazado 6469" d="M332.261,46.408c-.2,0-.393-.006-.588.006-.124.007-.146-.039-.148-.153-.013-.582-.016-.582.555-.581l.181,0,.028.032a.965.965,0,0,1-.035.7Z" transform="translate(-312.906 -43.117)" fill="#3a49a5"/>
      <path id="Trazado_6470" data-name="Trazado 6470" d="M344.578,33.292c0-.2.006-.393-.006-.589-.007-.124.039-.146.153-.148.581-.012.581-.016.58.556,0,.06,0,.121,0,.181l.006-.007a.8.8,0,0,1-.737,0l.006.007" transform="translate(-325.223 -30.725)" fill="#3a49a5"/>
      <path id="Trazado_6471" data-name="Trazado 6471" d="M26.693,24.8c0,.2-.005.393.006.589.007.124-.04.146-.153.148-.581.012-.581.016-.58-.556,0-.06,0-.121,0-.181l-.006.007a.964.964,0,0,1,.7-.035l.032.029" transform="translate(-24.505 -23.339)" fill="#3a49a5"/>
      <path id="Trazado_6472" data-name="Trazado 6472" d="M37.576,13.073c.2,0,.393.006.588-.006.124-.007.146.039.148.153.012.582.016.582-.556.581l-.181,0,.007.006a.807.807,0,0,1,0-.738Z" transform="translate(-35.388 -12.333)" fill="#3a49a5"/>
      <path id="Trazado_6473" data-name="Trazado 6473" d="M59.839,215.057a3.752,3.752,0,0,1-.078-.788c-.137-1.694-.257-3.389-.384-5.084-.039-.514-.08-1.029-.13-1.542-.019-.2.022-.286.247-.27.3.022.607-.007.91.01.205.012.3-.047.26-.259a.51.51,0,0,1,.006-.113.821.821,0,0,1,.716,0c.018.368.018.368.4.368H72.983c.106,0,.213,0,.319.007a.226.226,0,0,1,.056.19c-.059.8-.122,1.606-.183,2.408-.053.7-.11,1.393-.16,2.09-.033.454-.084.908-.1,1.363a.288.288,0,0,1-.044.151.245.245,0,0,1-.208.071c-.21-.015-.26.1-.248.28a2.746,2.746,0,0,1,0,.318.453.453,0,0,1-.492.5c-.106.006-.212.006-.318,0-.159-.007-.289.015-.3.215a.146.146,0,0,1-.071.112.7.7,0,0,1-.335.046q-5.344,0-10.688,0a.527.527,0,0,1-.371-.075" transform="translate(-55.916 -195.31)" fill="#6378f8"/>
      <path id="Trazado_6474" data-name="Trazado 6474" d="M42.231,170.184h-.716c-.017-.363-.017-.363-.379-.363-.66,0-1.32,0-1.979,0-.148,0-.213-.022-.209-.193.014-.546.009-1.093.011-1.64a.491.491,0,0,1,.37-.075c.92,0,1.841,0,2.761,0q6.971,0,13.942,0c.148,0,.307-.037.438.075,0,.563,0,1.126.009,1.689,0,.109-.033.153-.142.142a1.479,1.479,0,0,0-.16,0H42.611c-.363,0-.363,0-.38.363" transform="translate(-36.761 -158.484)" fill="#6378f8"/>
      <path id="Trazado_6475" data-name="Trazado 6475" d="M69.8,222.593l11.064,0,.342,0c.069.322.3.321.563.305a1.624,1.624,0,0,0,.642-.107.961.961,0,0,0,.545-.736,4.51,4.51,0,0,0,.015-.7c0-.124-.11-.153-.164-.228.024-.84.109-1.675.181-2.512.045-.52.059-1.043.1-1.563.053-.678.118-1.355.178-2.032a.828.828,0,0,0,0-.091c.342,0,.684,0,1.026-.009.132,0,.175.046.165.174-.038.492-.068.985-.106,1.477s-.084.983-.123,1.474q-.112,1.4-.219,2.792c-.051.666-.109,1.332-.143,2a.784.784,0,0,1-.886.859c-4.069,0-8.138-.007-12.207.008-.648,0-1.015-.338-.97-.965,0-.045,0-.091,0-.137" transform="translate(-65.88 -202.846)" fill="#aac2f4"/>
      <path id="Trazado_6476" data-name="Trazado 6476" d="M78.437,105a4.3,4.3,0,0,1-.5,0c-.192-.02-.262.045-.23.234a.615.615,0,0,1-.006.136c-.106.094-.234.064-.357.067s-.252.028-.358-.067c-.019-.366-.019-.366-.4-.366q-5.7,0-11.406,0c-.2,0-.267-.044-.26-.256.017-.479.005-.48.487-.48H78.164c.091,0,.182,0,.273.007a.781.781,0,0,1,0,.717" transform="translate(-61.279 -98.419)" fill="#6378f8"/>
      <path id="Trazado_6479" data-name="Trazado 6479" d="M56.563,163.232H39.052c-.018-.364-.018-.364.338-.364H56.225c.356,0,.356,0,.338.364" transform="translate(-36.853 -153.724)" fill="#aac2f4"/>
      <path id="Trazado_6480" data-name="Trazado 6480" d="M262.616,136.246c-.805,0-1.61,0-2.415.009-.11,0-.146-.032-.141-.142.01-.2.007-.4.009-.593a.3.3,0,0,1,.23-.072c.407,0,.813-.011,1.22,0,.288-.015.577-.006.865,0a.388.388,0,0,1,.239.058.863.863,0,0,1-.008.739" transform="translate(-245.457 -127.84)" fill="#aac2f4"/>
      <path id="Trazado_6481" data-name="Trazado 6481" d="M171.585,136.246c-.805,0-1.61,0-2.415.009-.11,0-.146-.032-.141-.142.01-.2.007-.4.009-.593a.3.3,0,0,1,.23-.072c.407,0,.813-.011,1.22,0,.288-.015.577-.006.865,0a.388.388,0,0,1,.239.058.863.863,0,0,1-.008.739" transform="translate(-159.537 -127.84)" fill="#aac2f4"/>
      <path id="Trazado_6482" data-name="Trazado 6482" d="M80.551,136.246c-.805,0-1.61,0-2.415.009-.11,0-.146-.032-.141-.142.009-.2.007-.4.009-.593a.3.3,0,0,1,.23-.072c.407,0,.813-.011,1.22,0,.288-.015.577-.006.865,0a.387.387,0,0,1,.239.058.863.863,0,0,1-.008.739" transform="translate(-73.616 -127.84)" fill="#aac2f4"/>
      <path id="Trazado_6483" data-name="Trazado 6483" d="M262.606,78.983c-.8,0-1.61,0-2.415.009-.109,0-.151-.03-.141-.141.008-.083,0-.167,0-.251a.313.313,0,0,1,.343-.34c.721,0,1.443,0,2.164.007a.652.652,0,0,1,.047.715" transform="translate(-245.447 -73.867)" fill="#aac2f4"/>
      <path id="Trazado_6484" data-name="Trazado 6484" d="M171.573,78.982c-.8,0-1.61,0-2.415.009-.109,0-.151-.03-.141-.141.008-.083,0-.167,0-.251a.313.313,0,0,1,.343-.34c.721,0,1.443,0,2.164.007a.653.653,0,0,1,.047.715" transform="translate(-159.526 -73.867)" fill="#aac2f4"/>
      <path id="Trazado_6485" data-name="Trazado 6485" d="M80.541,78.983c-.8,0-1.61,0-2.415.009-.109,0-.151-.03-.141-.141.008-.083,0-.167,0-.251a.313.313,0,0,1,.343-.34c.721,0,1.443,0,2.164.007a.653.653,0,0,1,.047.715" transform="translate(-73.606 -73.867)" fill="#aac2f4"/>
      <path id="Trazado_6486" data-name="Trazado 6486" d="M271.68,32.631c.552,0,1.1,0,1.657-.009.122,0,.17.029.175.163.02.57.025.571-.538.57-.431,0-.863,0-1.294-.007a.828.828,0,0,1,0-.717" transform="translate(-256.347 -30.791)" fill="#6378f8"/>
      <path id="Trazado_6487" data-name="Trazado 6487" d="M89.616,32.631c.552,0,1.1,0,1.657-.009.122,0,.17.029.175.163.02.57.025.571-.538.57-.431,0-.863,0-1.294-.007a.829.829,0,0,1,0-.717" transform="translate(-84.506 -30.791)" fill="#6378f8"/>
      <path id="Trazado_6488" data-name="Trazado 6488" d="M180.648,32.632c.552,0,1.1,0,1.657-.009.122,0,.17.029.175.163.02.57.025.571-.538.57-.431,0-.863,0-1.294-.007a.828.828,0,0,1,0-.717" transform="translate(-170.427 -30.792)" fill="#6378f8"/>
      <path id="Trazado_6489" data-name="Trazado 6489" d="M363.984,169.7a3.723,3.723,0,0,1,.006-.59c.048-.3.292-.1.441-.131.088-.021.281-.1.282.13,0,.394.027.79-.008,1.181-.027.3-.289.1-.438.131-.088.021-.281.1-.282-.13,0-.2,0-.394,0-.591" transform="translate(-343.536 -159.459)" fill="#6378f8"/>
      <path id="Trazado_6490" data-name="Trazado 6490" d="M13.589,169.724a3.844,3.844,0,0,1-.005.567c-.043.284-.276.111-.418.131-.1.014-.3.114-.3-.13-.006-.394-.025-.79.006-1.181.023-.284.273-.111.415-.13.1-.014.3-.114.305.13.006.2,0,.409,0,.614" transform="translate(-12.128 -159.461)" fill="#6378f8"/>
      <path id="Trazado_6491" data-name="Trazado 6491" d="M143.062,130.778c0-.541,0-.534.536-.542.16,0,.208.037.2.2-.015.258-.008.517,0,.776,0,.1-.027.143-.127.127a.119.119,0,0,0-.023,0c-.582.02-.582.02-.582-.559" transform="translate(-135.029 -122.925)" fill="#f7f9fa"/>
      <path id="Trazado_6492" data-name="Trazado 6492" d="M305.568,104.968v-.717c.318,0,.636,0,.954-.009.105,0,.14.028.147.139.034.594.038.594-.556.593-.182,0-.364,0-.545-.007" transform="translate(-288.41 -98.39)" fill="#6378f8"/>
      <path id="Trazado_6493" data-name="Trazado 6493" d="M234.793,130.805v.023c0,.606,0,.6-.619.548-.091-.008-.113-.036-.112-.121,0-.289,0-.578,0-.867,0-.093.034-.122.119-.112a.525.525,0,0,0,.068,0c.544-.006.544-.006.544.529" transform="translate(-220.918 -122.96)" fill="#f7f9fa"/>
      <path id="Trazado_6494" data-name="Trazado 6494" d="M261.581,124.535l-1.451,0c-.019-.365-.019-.365.336-.365h.365c.376,0,.376,0,.4-.365l.359.006a.811.811,0,0,1,0,.722" transform="translate(-245.517 -116.856)" fill="#82a8f5"/>
      <path id="Trazado_6495" data-name="Trazado 6495" d="M286.075,124.533q0-.361,0-.722l.356-.006c.019.366.019.366.4.366h.364c.355,0,.355,0,.337.364a.272.272,0,0,1-.355.005l-1.1-.006" transform="translate(-270.011 -116.854)" fill="#82a8f5"/>
      <path id="Trazado_6496" data-name="Trazado 6496" d="M79.516,130.68l-1.451,0c-.019-.365-.019-.366.336-.364.372,0,.744,0,1.116.007a.266.266,0,0,1,0,.355" transform="translate(-73.675 -123.001)" fill="#82a8f5"/>
      <path id="Trazado_6497" data-name="Trazado 6497" d="M104.01,130.642q0-.178,0-.355c.44,0,.881,0,1.321-.01.106,0,.155.025.141.138-.009.075-.006.152-.008.227a.272.272,0,0,1-.355.005l-1.1-.006" transform="translate(-98.17 -122.964)" fill="#82a8f5"/>
      <path id="Trazado_6498" data-name="Trazado 6498" d="M170.549,130.681l-1.451,0c-.019-.365-.019-.366.336-.364.372,0,.744,0,1.116.007a.266.266,0,0,1,0,.355" transform="translate(-159.597 -123.002)" fill="#82a8f5"/>
      <path id="Trazado_6499" data-name="Trazado 6499" d="M195.043,130.642q0-.178,0-.355c.44,0,.881,0,1.321-.01.106,0,.155.025.141.138-.009.075-.006.152-.008.227a.272.272,0,0,1-.355.005l-1.1-.006" transform="translate(-184.091 -122.964)" fill="#82a8f5"/>
      <path id="Trazado_6500" data-name="Trazado 6500" d="M92.111,59c-.318,0-.636,0-.954.011-.161.007-.141-.087-.141-.186s-.02-.193.141-.186c.317.014.636.008.954.011a.261.261,0,0,1,0,.351" transform="translate(-85.905 -55.345)" fill="#aac2f4"/>
      <path id="Trazado_6501" data-name="Trazado 6501" d="M274.175,59c-.318,0-.636,0-.954.011-.161.007-.141-.087-.141-.186s-.02-.193.141-.186c.317.014.636.008.954.011a.261.261,0,0,1,0,.351" transform="translate(-257.746 -55.344)" fill="#aac2f4"/>
      <path id="Trazado_6502" data-name="Trazado 6502" d="M183.143,59c-.318,0-.636,0-.954.011-.161.007-.141-.087-.141-.186s-.02-.193.141-.186c.317.014.636.008.954.011a.261.261,0,0,1,0,.351" transform="translate(-171.825 -55.345)" fill="#aac2f4"/>
      <path id="Trazado_6503" data-name="Trazado 6503" d="M266.967,32.684V33.4c-.362.017-.362.017-.362-.336V33.02c0-.354,0-.354.362-.336" transform="translate(-251.635 -30.844)" fill="#aac2f4"/>
      <path id="Trazado_6504" data-name="Trazado 6504" d="M123.526,136.794l.355-.005c0,.129.007.258.007.387,0,.357,0,.357-.367.339q0-.36.005-.72" transform="translate(-116.585 -129.109)" fill="#aac2f4"/>
      <path id="Trazado_6505" data-name="Trazado 6505" d="M214.557,136.8l.355-.005c0,.129.007.258.007.387,0,.357,0,.357-.367.339q0-.36.005-.72" transform="translate(-202.504 -129.11)" fill="#aac2f4"/>
      <path id="Trazado_6506" data-name="Trazado 6506" d="M305.589,136.794l.355-.005c0,.129.007.258.007.387,0,.357,0,.357-.367.339q0-.36.005-.72" transform="translate(-288.425 -129.109)" fill="#aac2f4"/>
      <path id="Trazado_6507" data-name="Trazado 6507" d="M175.936,32.684V33.4c-.362.017-.362.017-.362-.336v-.045c0-.354,0-.354.362-.336" transform="translate(-165.715 -30.845)" fill="#aac2f4"/>
      <path id="Trazado_6508" data-name="Trazado 6508" d="M84.9,32.684q0,.359,0,.717c-.362.017-.362.017-.362-.336V33.02c0-.354,0-.354.362-.336" transform="translate(-79.794 -30.844)" fill="#aac2f4"/>
      <path id="Trazado_6509" data-name="Trazado 6509" d="M304.8,78.954a2.493,2.493,0,0,0-.047-.715.309.309,0,0,1,.378.178.655.655,0,0,1,.008.508c-.04.092-.221.029-.34.029" transform="translate(-287.641 -73.839)" fill="#aac2f4"/>
      <path id="Trazado_6510" data-name="Trazado 6510" d="M213.769,78.954a2.5,2.5,0,0,0-.047-.715.309.309,0,0,1,.378.178.655.655,0,0,1,.008.508c-.04.092-.221.029-.34.029" transform="translate(-201.721 -73.839)" fill="#aac2f4"/>
      <path id="Trazado_6511" data-name="Trazado 6511" d="M122.736,78.954a2.5,2.5,0,0,0-.047-.715.309.309,0,0,1,.378.178.655.655,0,0,1,.008.508c-.04.092-.221.029-.34.029" transform="translate(-115.8 -73.839)" fill="#aac2f4"/>
      <path id="Trazado_6512" data-name="Trazado 6512" d="M110.516,59.013v-.351l.135-.007c.128,0,.24-.027.24.183s-.112.187-.24.183l-.135-.007" transform="translate(-104.31 -55.36)" fill="#82a8f5"/>
      <path id="Trazado_6513" data-name="Trazado 6513" d="M201.548,59.013v-.351l.135-.007c.128,0,.241-.027.241.183s-.112.187-.24.183l-.135-.007" transform="translate(-190.231 -55.36)" fill="#82a8f5"/>
      <path id="Trazado_6514" data-name="Trazado 6514" d="M292.58,59.013v-.351l.135-.007c.128,0,.241-.027.241.183s-.112.187-.241.183l-.135-.007" transform="translate(-276.151 -55.36)" fill="#82a8f5"/>
      <path id="Trazado_6515" data-name="Trazado 6515" d="M344.576,45.623h.737v.738h-.737Z" transform="translate(-325.227 -43.062)" fill="#f7f9fa"/>
      <path id="Trazado_6516" data-name="Trazado 6516" d="M26.7,13.071v.738h-.737v-.738Z" transform="translate(-24.506 -12.338)" fill="#f7f9fa"/>
      <path id="Trazado_6517" data-name="Trazado 6517" d="M145.973,246.821c-.335,0-.669,0-1,0s-.46-.126-.462-.472c0-.274-.006-.548,0-.822,0-.127-.034-.175-.166-.171-.289.008-.578,0-.867,0s-.428-.134-.429-.435q0-1.028,0-2.055c0-.3.132-.43.431-.433.281,0,.563-.009.844,0,.155.006.193-.051.188-.2-.01-.281-.005-.563,0-.845s.134-.423.417-.424q1.049,0,2.1,0a.365.365,0,0,1,.4.413c0,.289.007.579,0,.868,0,.137.033.189.178.183.289-.011.578-.006.867,0a.37.37,0,0,1,.418.423q0,1.039,0,2.078a.371.371,0,0,1-.419.422c-.281,0-.563.01-.844,0-.165-.008-.207.052-.2.208.012.274,0,.548,0,.822,0,.3-.132.433-.429.436-.342,0-.684,0-1.026,0" transform="translate(-135.014 -227.441)" fill="#3a49a5"/>
      <path id="Trazado_6518" data-name="Trazado 6518" d="M274.59,325.438c.179-.014.257.054.236.247a5.1,5.1,0,0,0,0,.523,1.054,1.054,0,0,1-1.064,1.067h-.386c-.365,0-.365,0-.382-.368.017-.363.017-.363.382-.363.717,0,.72,0,.72-.72,0-.354,0-.354.5-.386" transform="translate(-257.661 -307.164)" fill="#3a49a5"/>
      <path id="Trazado_6519" data-name="Trazado 6519" d="M158.944,257.135q-.007.427-.015.854a.877.877,0,0,1-.255.059,3.241,3.241,0,0,1-1.191-.059q0-.32-.007-.639c0-.292-.076-.385-.363-.463-.064-.291-.277-.3-.517-.292a.869.869,0,0,1-.573-.068c0-.312,0-.623-.01-.935,0-.136.047-.167.171-.163.258.008.516,0,.774,0,.407,0,.517-.108.517-.508,0-.266,0-.532,0-.8,0-.115.028-.161.152-.159q.581.011,1.162,0c.124,0,.154.045.151.159-.007.258,0,.517,0,.775,0,.431.1.53.54.53.25,0,.5.006.752,0,.124,0,.176.027.171.163-.011.311-.008.623-.01.935a.392.392,0,0,1-.3.074c-.289,0-.577,0-.866,0-.137,0-.218.049-.213.2a1.359,1.359,0,0,1-.067.334" transform="translate(-147.252 -239.708)" fill="#fff"/>
      <path id="Trazado_6520" data-name="Trazado 6520" d="M208.04,300.163c-.031-.606-.031-.606.563-.606l.883,0a.217.217,0,0,1,0,.022c.014.345.014.345-.321.345-.219,0-.439.01-.657,0a.459.459,0,0,0-.471.243" transform="translate(-196.349 -282.736)" fill="#f3f3f3"/>
      <path id="Trazado_6521" data-name="Trazado 6521" d="M181.94,325.6h1.446c0,.007,0,.015,0,.022.014.345.014.345-.319.345-.294,0-.589-.014-.882,0-.207.013-.292-.051-.256-.259a1.047,1.047,0,0,0,.008-.113" transform="translate(-171.709 -307.317)" fill="#f3f3f3"/>
      <path id="Trazado_6522" data-name="Trazado 6522" d="M155.926,299.556l.724,0c.433,0,.353-.036.366.358-.28,0-.56-.008-.839.012-.205.014-.3-.047-.258-.258a1.024,1.024,0,0,0,.008-.113" transform="translate(-147.155 -282.737)" fill="#f3f3f3"/>
    </g>
  </g>
</svg>
