<svg xmlns="http://www.w3.org/2000/svg" width="128" height="127"><defs><filter id="a" x="0" y="0" width="128" height="127" filterUnits="userSpaceOnUse"><feOffset/><feGaussianBlur stdDeviation="6" result="b"/><feFlood flood-opacity=".161"/><feComposite operator="in" in2="b"/><feComposite in="SourceGraphic"/></filter><style>.d{fill:#3f2e63}</style></defs><g transform="translate(18 18)"><g transform="translate(-18 -18)" filter="url(#a)"><ellipse cx="46" cy="45.5" rx="46" ry="45.5" transform="translate(18 18)" fill="#fff"/></g><circle cx="35.211" cy="35.211" r="35.211" transform="translate(16.777 9.909)" fill="#aac2f4"/><g fill="none"><path d="M46.5 10A35.5 35.5 0 1111 45.5 35.5 35.5 0 0146.5 10z"/><path d="M46.5 12a33.39 33.39 0 00-23.688 9.812A33.39 33.39 0 0013 45.5a33.391 33.391 0 009.812 23.688A33.391 33.391 0 0046.5 79a33.391 33.391 0 0023.688-9.812A33.391 33.391 0 0080 45.5a33.391 33.391 0 00-9.812-23.688A33.391 33.391 0 0046.5 12m0-2C66.106 10 82 25.894 82 45.5S66.106 81 46.5 81 11 65.106 11 45.5 26.894 10 46.5 10z" fill="#3f2e63"/></g></g><path class="d" d="M49.222 57.646V50.72a1.7 1.7 0 00-.48-3.331h-6.523a1.7 1.7 0 00-.477 3.331v6.926a11.3 11.3 0 107.478 0zm-3.74 21.016a10.351 10.351 0 01-3.119-20.223.476.476 0 00.333-.454v-7.673a.476.476 0 00-.476-.476.75.75 0 110-1.5h6.522a.75.75 0 110 1.5.476.476 0 00-.476.476v7.677a.476.476 0 00.333.454 10.351 10.351 0 01-3.12 20.219z"/><path class="d" d="M54.985 68.389a.473.473 0 00-.394-.114 16.187 16.187 0 01-8.388-.525 15.469 15.469 0 00-10.031-.484.476.476 0 00-.337.416c-.016.19-.023.4-.023.632a9.671 9.671 0 0019.332.455.475.475 0 00-.159-.38zm-9.5 8.641c-4.813-.006 4.434.007 0 0zm.705-16.067a1.292 1.292 0 10-1.292-1.292 1.292 1.292 0 001.292 1.292zm1.646 5.689a1.292 1.292 0 10-1.292-1.292 1.292 1.292 0 001.292 1.292z"/><path class="d" d="M41.8 72.316a1.292 1.292 0 10-1.292-1.292 1.292 1.292 0 001.292 1.292zm22.928-18.065v1.265h-6.7v-1.265a.659.659 0 00-1.125-.466l-2.36 2.363a.659.659 0 000 .932l2.363 2.363a.659.659 0 001.125-.466v-1.264h6.7v1.265a.659.659 0 001.125.466l2.363-2.363a.659.659 0 000-.932l-2.369-2.364a.659.659 0 00-1.122.466zM85.904 54.978h5.421l-6.266-6.267v5.421a.846.846 0 00.845.846z"/><path class="d" d="M72.933 77.067h16.424a2.5 2.5 0 002.464-2.536V56.668h-5.752a2.5 2.5 0 01-2.464-2.536v-5.916H72.933a2.5 2.5 0 00-2.464 2.536v23.779a2.5 2.5 0 002.464 2.536zm4.927-15.271h8.209a.846.846 0 010 1.69H77.86a.846.846 0 010-1.69zm0 3.381h8.209a.846.846 0 010 1.69H77.86a.846.846 0 010-1.69zm0 3.381h8.209a.846.846 0 010 1.69H77.86a.846.846 0 010-1.69zm-3.285-6.762a.846.846 0 11-.821.845.834.834 0 01.821-.845zm0 3.381a.846.846 0 11-.821.845.834.834 0 01.821-.845zm0 3.381a.846.846 0 11-.821.845.834.834 0 01.821-.845z"/></svg>