<svg id="Grupo_27555" data-name="Grupo 27555" xmlns="http://www.w3.org/2000/svg" width="95.233" height="23.082" viewBox="0 0 95.233 23.082">
  <g id="Surfaces" transform="translate(0)">
    <g id="Reader_Surface">
      <g id="Outline_no_shadow_copy_2">
        <path id="Trazado_1010" data-name="Trazado 1010" d="M4.189,0H19.524a4.217,4.217,0,0,1,4.189,4.189v14.7a4.192,4.192,0,0,1-4.189,4.189H4.189A4.158,4.158,0,0,1,0,18.932V4.189A4.217,4.217,0,0,1,4.189,0Z" fill="#d9ab12"/>
      </g>
    </g>
  </g>
  <rect id="Rectángulo_2617" data-name="Rectángulo 2617" width="86.33" height="20.516" rx="5" transform="translate(8.404 1.202)" fill="none" stroke="#d9ab2f" stroke-width="1"/>
  <text id="Descargar_PDF_Consolidado" data-name="Descargar PDF
Consolidado" transform="translate(26.739 11.202)" fill="#d9ab2f" font-size="9" font-family="OpenSans, Open Sans"><tspan x="0" y="0">Descargar PDF</tspan><tspan x="0" y="8">Consolidado</tspan></text>
  <g id="Outlined_Mnemonics_Logos" transform="translate(4.641 4.466)">
    <g id="DC_Trefoil">
      <path id="_256" d="M26.15,20.232a3.643,3.643,0,0,0-2.687-.751,13.47,13.47,0,0,0-2.174.2,11.2,11.2,0,0,1-1.265-1.462,12.98,12.98,0,0,1-.79-1.225,12.963,12.963,0,0,0,.711-3.478c0-1.067-.435-2.213-1.62-2.213a1.164,1.164,0,0,0-.988.593c-.514.87-.316,2.648.514,4.506-.277.83-.593,1.66-.949,2.569a14.891,14.891,0,0,1-1.107,2.253c-1.225.474-3.794,1.66-4.031,2.964a1.007,1.007,0,0,0,.356,1.028,1.462,1.462,0,0,0,1.067.356c1.541,0,3.083-2.134,4.15-3.992.593-.2,1.186-.4,1.818-.553.672-.158,1.3-.316,1.9-.435a6.045,6.045,0,0,0,3.834,1.66c.988,0,1.383-.435,1.5-.79A1.155,1.155,0,0,0,26.15,20.232Zm-1.067.751c-.04.277-.356.474-.751.474a1.094,1.094,0,0,1-.356-.04A5.677,5.677,0,0,1,21.8,20.311a10.642,10.642,0,0,1,1.581-.119,9.689,9.689,0,0,1,1.067.079C24.806,20.351,25.2,20.509,25.083,20.983Zm-7.074-8.735a.576.576,0,0,1,.356-.237c.4,0,.474.435.474.83a10.08,10.08,0,0,1-.474,2.648C17.692,13.79,17.771,12.644,18.008,12.249Zm2.213,7.588c-.435.079-.869.2-1.3.316-.316.079-.632.2-.988.277.158-.356.316-.711.474-1.028.2-.435.356-.87.514-1.3.158.237.277.435.435.632.277.4.593.751.869,1.107Zm-4.782,2.292c-.988,1.581-1.976,2.609-2.529,2.609a.424.424,0,0,1-.237-.079.319.319,0,0,1-.119-.356c.079-.593,1.225-1.423,2.885-2.174Z" transform="translate(-11.74 -11.3)" fill="#fff"/>
    </g>
  </g>
</svg>
