<svg xmlns="http://www.w3.org/2000/svg" width="93.694" height="80.986" viewBox="0 0 93.694 80.986">
  <g id="Grupo_10619" data-name="Grupo 10619" transform="translate(0 1)">
    <g id="comprobado" transform="translate(7.281)">
      <circle id="Elipse_162" data-name="Elipse 162" cx="37.92" cy="37.92" r="37.92" transform="translate(10.573 1.573)" fill="#aac2f4"/>
      <g id="Grupo_6226" data-name="Grupo 6226">
        <path id="Trazado_688" data-name="Trazado 688" d="M39.493,78.986A39.493,39.493,0,0,1,11.567,11.567,39.493,39.493,0,0,1,67.419,67.419,39.234,39.234,0,0,1,39.493,78.986Zm0-75.84A36.346,36.346,0,1,0,75.84,39.493,36.388,36.388,0,0,0,39.493,3.147Z" transform="translate(0)" fill="#3f2e63" stroke="#3f2e63" stroke-width="2"/>
      </g>
    </g>
    <g id="Grupo_27525" data-name="Grupo 27525" transform="translate(0 5.599)">
      <g id="_6c76b8131e188618bd43935e1f04960d" data-name="6c76b8131e188618bd43935e1f04960d" transform="translate(0 35.671) rotate(-48)">
        <path id="Trazado_13796" data-name="Trazado 13796" d="M0,0H48V48H0Z" transform="translate(0 0)" fill="none"/>
        <path id="Trazado_13797" data-name="Trazado 13797" d="M23.3,8a12,12,0,1,0,0,8H32v8h8V16h4V8ZM12,16a4,4,0,1,1,4-4A4,4,0,0,1,12,16Z" transform="translate(2 12)" fill="#3f2e63"/>
      </g>
      <path id="Trazado_13799" data-name="Trazado 13799" d="M10.969,3.3a.756.756,0,0,1,1.457,0l2.125,7.66a.756.756,0,0,0,.421.489l6.514,2.9a.756.756,0,0,1,0,1.382l-6.514,2.9a.756.756,0,0,0-.421.489l-2.125,7.66a.756.756,0,0,1-1.457,0l-2.125-7.66a.756.756,0,0,0-.421-.489l-6.514-2.9a.756.756,0,0,1,0-1.382l6.514-2.9a.756.756,0,0,0,.421-.489Z" transform="translate(53.166 7.827)" fill="#3f2e63"/>
      <path id="Trazado_13800" data-name="Trazado 13800" d="M7.6,3.1a.488.488,0,0,1,.94,0L9.909,8.043a.488.488,0,0,0,.272.315l4.2,1.871a.488.488,0,0,1,0,.892l-4.2,1.871a.488.488,0,0,0-.272.315L8.537,18.252a.488.488,0,0,1-.94,0L6.225,13.308a.488.488,0,0,0-.272-.315l-4.2-1.871a.488.488,0,0,1,0-.892l4.2-1.871a.488.488,0,0,0,.272-.315Z" transform="translate(39.95 36.827)" fill="#3f2e63"/>
      <path id="Trazado_13801" data-name="Trazado 13801" d="M6.17,3.016a.375.375,0,0,1,.722,0L7.945,6.811a.375.375,0,0,0,.209.242l3.227,1.436a.375.375,0,0,1,0,.684L8.153,10.61a.375.375,0,0,0-.209.242L6.892,14.646a.375.375,0,0,1-.722,0L5.118,10.852a.375.375,0,0,0-.209-.242L1.682,9.173a.375.375,0,0,1,0-.684L4.909,7.053a.375.375,0,0,0,.209-.242Z" transform="translate(61.258 36.827)" fill="#3f2e63"/>
    </g>
  </g>
</svg>
