<svg id="Grupo_10135" data-name="Grupo 10135" xmlns="http://www.w3.org/2000/svg" xmlns:xlink="http://www.w3.org/1999/xlink" width="19.248" height="20.233" viewBox="0 0 19.248 20.233">
  <defs>
    <clipPath id="clip-path">
      <rect id="Rectángulo_3782" data-name="Rectángulo 3782" width="19.248" height="20.233" fill="#fff"/>
    </clipPath>
  </defs>
  <g id="Grupo_10134" data-name="Grupo 10134" clip-path="url(#clip-path)">
    <path id="Trazado_6758" data-name="Trazado 6758" d="M50.045,62.016q0-2.884,0-5.767c0-.357.069-.421.455-.421h2.287c.327,0,.416.082.416.38q0,5.807,0,11.614c0,.3-.094.384-.415.384H50.48c-.351,0-.435-.077-.435-.4q0-2.893,0-5.787" transform="translate(-45.843 -51.41)" fill="#fff"/>
    <path id="Trazado_6759" data-name="Trazado 6759" d="M109.541,93.927q0,2.213,0,4.426c0,.361-.08.435-.47.435h-2.288c-.31,0-.408-.086-.408-.372q0-4.5,0-9.01c0-.277.1-.366.393-.367q1.186,0,2.372,0c.3,0,.4.1.4.383q0,2.252,0,4.5" transform="translate(-97.443 -81.992)" fill="#fff"/>
    <path id="Trazado_6760" data-name="Trazado 6760" d="M162.672,122.024q0-1.639,0-3.277c0-.341.082-.418.442-.418h2.328c.3,0,.4.089.4.379q0,3.336,0,6.673c0,.288-.1.38-.4.38q-1.185,0-2.37,0c-.3,0-.4-.094-.4-.38q0-1.678,0-3.356" transform="translate(-149.014 -108.964)" fill="#fff"/>
    <path id="Trazado_6761" data-name="Trazado 6761" d="M2.444,22.634H18.782a1.369,1.369,0,0,1,.21,0,.264.264,0,0,1,.255.286.259.259,0,0,1-.256.265,1.981,1.981,0,0,1-.231,0H2.444v.4c0,.336,0,.672,0,1.008a.3.3,0,0,1-.309.326.286.286,0,0,1-.286-.323c0-.46,0-.92,0-1.409H1.4c-.357,0-.714,0-1.071,0-.21,0-.329-.109-.327-.281s.123-.275.334-.276c.5,0,.991,0,1.512,0v-.287q0-8.388,0-16.776c0-.072,0-.145,0-.217a.269.269,0,0,1,.288-.258.277.277,0,0,1,.3.23.963.963,0,0,1,.008.217q0,8.408,0,16.816v.277" transform="translate(0 -4.691)" fill="#fff"/>
    <path id="Trazado_6762" data-name="Trazado 6762" d="M56.942,1.733A1.239,1.239,0,0,1,54.95,1.7a1.057,1.057,0,0,1,.065-1.26A1.224,1.224,0,0,1,56.29.046a1.1,1.1,0,0,1,.828.967.258.258,0,0,0,.212.263c.746.262,1.487.536,2.227.812a.253.253,0,0,0,.308-.052A1.161,1.161,0,0,1,61.123,1.8a1.046,1.046,0,0,1,.732.971.19.19,0,0,0,.154.195c.8.286,1.606.573,2.405.869a.275.275,0,0,0,.293-.065,1.186,1.186,0,0,1,1.3-.08,1.023,1.023,0,0,1,.583,1.077,1.07,1.07,0,0,1-.814.936,1.145,1.145,0,0,1-1.523-1.1c.01-.2-.063-.255-.232-.314-.779-.273-1.553-.557-2.329-.836-.006,0-.014,0,0,.035a3.6,3.6,0,0,1-.673.372A1.15,1.15,0,0,1,59.515,2.83c0-.138-.054-.189-.183-.234-.8-.282-1.59-.572-2.39-.862" transform="translate(-50.174 0)" fill="#fff"/>
  </g>
</svg>
