<svg xmlns="http://www.w3.org/2000/svg" width="11.67" height="17.491" viewBox="0 0 11.67 17.491">
  <g id="Grupo_12689" data-name="Grupo 12689" transform="translate(0)">
    <path id="Trazado_11171" data-name="Trazado 11171" d="M239.231.747c.471.122.957.205,1.412.373a5.811,5.811,0,0,1,2.079,9.625.783.783,0,0,0-.257.675c.095,1.9.17,3.8.251,5.705,0,.091.008.181.008.272a.79.79,0,0,1-.447.758.733.733,0,0,1-.861-.143q-1.269-1.086-2.535-2.178l-.233-.2c-.593.507-1.18,1.009-1.766,1.512-.324.278-.646.56-.971.837a.761.761,0,0,1-.892.168.812.812,0,0,1-.446-.835c.087-1.992.176-3.985.244-5.978a.8.8,0,0,0-.2-.53,5.664,5.664,0,0,1-1.552-5.845A5.633,5.633,0,0,1,237.5.868c.186-.043.373-.08.559-.121Zm-.567,10.533a4.686,4.686,0,1,0-4.713-4.64,4.719,4.719,0,0,0,4.713,4.64m-2.706.491c-.07,1.615-.137,3.183-.208,4.839.2-.165.324-.269.449-.376l1.824-1.573a.8.8,0,0,1,1.262.008q.645.561,1.294,1.118c.3.257.6.511.969.819-.071-1.655-.139-3.223-.209-4.832a5.962,5.962,0,0,1-5.38,0" transform="translate(-232.807 -0.747)" fill="#fff"/>
    <path id="Trazado_11172" data-name="Trazado 11172" d="M249.835,23.346l2.238-2.248a2.281,2.281,0,0,1,.279-.268.556.556,0,0,1,.776.031.533.533,0,0,1,.019.772c-.252.294-.541.556-.815.831q-.988.989-1.978,1.976c-.4.4-.665.4-1.054.008q-.687-.686-1.363-1.383c-.315-.323-.344-.62-.094-.88s.59-.221.914.1c.351.344.7.69,1.078,1.064" transform="translate(-244.742 -16.756)" fill="#fff"/>
  </g>
</svg>
