<svg id="PrecargaObjetivosCalidad" xmlns="http://www.w3.org/2000/svg" width="82.137" height="77" viewBox="0 0 82.137 77">
  <g id="Grupo_6855" data-name="Grupo 6855" transform="translate(-3.211 0.497)">
    <circle id="Elipse_161" data-name="Elipse 161" cx="35.535" cy="35.535" r="35.535" transform="translate(14.279 4.04)" fill="#aac2f4"/>
    <g id="Elipse_162" data-name="Elipse 162" transform="translate(3.211 -0.497)" fill="none" stroke="#3f2e63" stroke-width="6">
      <ellipse cx="38" cy="38.5" rx="38" ry="38.5" stroke="none"/>
      <ellipse cx="38" cy="38.5" rx="35" ry="35.5" fill="none"/>
    </g>
    <g id="Grupo_12689" data-name="Grupo 12689" transform="translate(22.588 10.092)">
      <path id="Trazado_11171" data-name="Trazado 11171" d="M253.308.747c1.5.39,3.055.656,4.506,1.189a18.547,18.547,0,0,1,6.635,30.717,2.5,2.5,0,0,0-.821,2.155c.3,6.067.543,12.139.8,18.209.011.29.025.579.025.868a2.522,2.522,0,0,1-1.427,2.42,2.34,2.34,0,0,1-2.747-.458q-4.05-3.467-8.089-6.95c-.217-.187-.437-.371-.744-.631-1.891,1.619-3.765,3.22-5.636,4.826-1.035.888-2.062,1.787-3.1,2.672a2.429,2.429,0,0,1-2.846.537,2.591,2.591,0,0,1-1.424-2.665c.277-6.359.56-12.718.78-19.078a2.543,2.543,0,0,0-.64-1.692c-5.185-5.294-7-11.57-4.955-18.655S240.6,2.809,247.8,1.132c.592-.138,1.19-.257,1.785-.385ZM251.5,34.364a14.956,14.956,0,1,0-15.041-14.808A15.06,15.06,0,0,0,251.5,34.364m-8.637,1.566c-.222,5.155-.437,10.158-.665,15.445.628-.527,1.034-.859,1.432-1.2q2.911-2.508,5.821-5.021c1.5-1.3,2.514-1.286,4.027.027q2.06,1.789,4.128,3.568c.958.821,1.928,1.629,3.093,2.612-.228-5.283-.445-10.286-.667-15.421a19.028,19.028,0,0,1-17.17-.009" transform="translate(-232.807 -0.747)" fill="#3f2e63"/>
      <path id="Trazado_11172" data-name="Trazado 11172" d="M254.569,29.172q3.563-3.579,7.142-7.173a7.284,7.284,0,0,1,.891-.857,1.773,1.773,0,0,1,2.476.1,1.7,1.7,0,0,1,.059,2.464c-.8.938-1.726,1.775-2.6,2.652q-3.153,3.156-6.312,6.306c-1.272,1.262-2.123,1.269-3.365.027q-2.191-2.189-4.349-4.412c-1.006-1.031-1.1-1.98-.3-2.81s1.884-.707,2.918.308c1.119,1.1,2.231,2.2,3.441,3.4" transform="translate(-238.317 -8.138)" fill="#3f2e63"/>
    </g>
  </g>
</svg>
