<svg xmlns="http://www.w3.org/2000/svg" xmlns:xlink="http://www.w3.org/1999/xlink" width="48.638" height="45.5" viewBox="0 0 48.638 45.5">
  <defs>
    <clipPath id="clip-path">
      <rect id="Rect치ngulo_2919" data-name="Rect치ngulo 2919" width="44.5" height="44.5" fill="#6b4b8b"/>
    </clipPath>
    <clipPath id="clip-path-2">
      <rect id="Rect치ngulo_3101" data-name="Rect치ngulo 3101" width="26.91" height="19.949" transform="translate(0 0)" fill="#6b4b8b"/>
    </clipPath>
  </defs>
  <g id="Grupo_9049" data-name="Grupo 9049" transform="translate(-596.611 -160)">
    <circle id="Elipse_161" data-name="Elipse 161" cx="22.228" cy="22.228" r="22.228" transform="translate(600.793 161.043)" fill="#e1dbe8"/>
    <g id="Grupo_8761" data-name="Grupo 8761" transform="translate(596.611 160)">
      <g id="Grupo_8760" data-name="Grupo 8760" clip-path="url(#clip-path)">
        <path id="Trazado_5873" data-name="Trazado 5873" d="M22.3,0A22.25,22.25,0,1,1,0,22.166,22.285,22.285,0,0,1,22.3,0m-.078,41.8A19.551,19.551,0,1,0,2.7,22.217,19.55,19.55,0,0,0,22.217,41.8" transform="translate(0 0)" fill="#6b4b8b"/>
        <g id="Grupo_9086" data-name="Grupo 9086" transform="translate(8.796 12.275)">
          <g id="Grupo_9085" data-name="Grupo 9085" clip-path="url(#clip-path-2)">
            <path id="Trazado_6008" data-name="Trazado 6008" d="M27.773,22.786,29.927,24.4q.538.4,1.076.806c.364.272.515.264.852-.054q1.254-1.183,2.5-2.371c.079-.075.161-.149.274-.253v7.039H18.9V18.919H34.652c0,.4,0,.8,0,1.2a2.915,2.915,0,0,1-.038,1.08c-.138.317-.5.54-.769.8Q32.791,23,31.73,24c-.115.109-.232.215-.357.331L28.43,22.122c-.127-.1-.253-.192-.383-.283a.476.476,0,0,0-.755.076q-1.378,1.549-2.754,3.1c-.174.2-.356.384-.518.589a.221.221,0,0,1-.333.058c-.154-.087-.314-.164-.474-.238-.351-.162-.633-.3-.684-.8a1.3,1.3,0,0,0-1.473-1.073,1.379,1.379,0,0,0-1.225,1.457,1.335,1.335,0,0,0,1.319,1.3,2.231,2.231,0,0,0,.863-.261.34.34,0,0,1,.349-.019c.412.218.831.421,1.248.63s.55.179.868-.18q1.589-1.794,3.182-3.583c.03-.034.066-.062.114-.107m-.512,5.833h.871V24.49h-.871Zm3.7.006h.894V26.348h-.894ZM21.65,27.27h-.893v1.357h.893Zm1.9,1.35h.874v-.88h-.874Z" transform="translate(-15.176 -15.191)" fill="#6b4b8b"/>
            <path id="Trazado_6009" data-name="Trazado 6009" d="M31.931,2.984,28.91,5.564V4.273l-.933.876V4.032c0-.215,0-.43,0-.645,0-.432-.164-.593-.59-.593h-16.4c-.509,0-.647.136-.647.649q0,5.605,0,11.21c0,.513.137.649.647.649H27.33c.5,0,.647-.142.647-.649q0-3.98,0-7.959a.534.534,0,0,1,.194-.46c.234-.2.45-.413.707-.652V16.23H9.421v-.314q0-6.7,0-13.4c0-.53.135-.668.656-.668H28.241c.519,0,.655.139.655.67s0,1.057,0,1.654c.224-.18.4-.317.566-.455.566-.459,1.135-.913,1.693-1.381a.368.368,0,0,0,.118-.29A1.616,1.616,0,0,1,32.583.027a1.6,1.6,0,0,1,1.875,1.411,1.517,1.517,0,0,1-.624,1.474,1.579,1.579,0,0,1-1.639.2c-.086-.034-.167-.082-.263-.131" transform="translate(-7.564 0)" fill="#6b4b8b"/>
            <path id="Trazado_6010" data-name="Trazado 6010" d="M8.357,87.094c0,.151,0,.3,0,.445A1.329,1.329,0,0,0,9.665,88.9q1.933.036,3.867,0a1.32,1.32,0,0,0,1.294-1.262c.015-.184.017-.369.027-.583H22.49c.565,0,.7.132.7.686,0,.5,0,.99,0,1.485,0,.476-.148.622-.617.622H.628c-.488,0-.625-.139-.626-.635,0-.542,0-1.084,0-1.625a.465.465,0,0,1,.513-.529q3.868-.007,7.736,0a.64.64,0,0,1,.1.031" transform="translate(0 -69.903)" fill="#6b4b8b"/>
            <path id="Trazado_6011" data-name="Trazado 6011" d="M47.021,87.14h4.647c0,.155.006.3,0,.447a.462.462,0,0,1-.483.476q-1.834.01-3.669,0a.47.47,0,0,1-.492-.469c-.011-.145,0-.292,0-.454" transform="translate(-37.752 -69.968)" fill="#6b4b8b"/>
            <path id="Trazado_6012" data-name="Trazado 6012" d="M28.7,48.05a.456.456,0,1,1,.46-.459.457.457,0,0,1-.46.459" transform="translate(-22.671 -37.849)" fill="#6b4b8b"/>
          </g>
        </g>
      </g>
    </g>
  </g>
</svg>
