<svg xmlns="http://www.w3.org/2000/svg" width="128" height="127"><defs><filter id="a" x="0" y="0" width="128" height="127" filterUnits="userSpaceOnUse"><feOffset/><feGaussianBlur stdDeviation="6" result="b"/><feFlood flood-opacity=".161"/><feComposite operator="in" in2="b"/><feComposite in="SourceGraphic"/></filter><style>.d{fill:#3f2e63}</style></defs><g transform="translate(18 18)"><g transform="translate(-18 -18)" filter="url(#a)"><ellipse cx="46" cy="45.5" rx="46" ry="45.5" transform="translate(18 18)" fill="#fff"/></g><circle cx="35.211" cy="35.211" r="35.211" transform="translate(16.777 9.909)" fill="#aac2f4"/><g fill="none"><path d="M46.5 10A35.5 35.5 0 1111 45.5 35.5 35.5 0 0146.5 10z"/><path d="M46.5 12a33.39 33.39 0 00-23.688 9.812A33.39 33.39 0 0013 45.5a33.391 33.391 0 009.812 23.688A33.391 33.391 0 0046.5 79a33.391 33.391 0 0023.688-9.812A33.391 33.391 0 0080 45.5a33.391 33.391 0 00-9.812-23.688A33.391 33.391 0 0046.5 12m0-2C66.106 10 82 25.894 82 45.5S66.106 81 46.5 81 11 65.106 11 45.5 26.894 10 46.5 10z" fill="#3f2e63"/></g></g><path class="d" d="M69.296 84.161c-.262.067-.535.105-.8.163v-1.719a1.123 1.123 0 00-1.124-1.124h-6.743a1.123 1.123 0 00-1.124 1.124v1.719c-.266-.057-.539-.1-.8-.163a1.124 1.124 0 00-.557 2.177c.446.114.9.187 1.359.275v2.734a1.123 1.123 0 001.124 1.124h6.743a1.123 1.123 0 001.124-1.124v-2.732c.454-.088.913-.161 1.359-.275a1.124 1.124 0 00-.558-2.177zm-3.049 4.063h-4.5v-4.5h4.5zM77.105 80.325a21.246 21.246 0 01-2.928 1.918 1.125 1.125 0 001.076 1.975 23.718 23.718 0 003.235-2.122 1.124 1.124 0 10-1.383-1.771zM84.257 73.243a1.124 1.124 0 00-1.523.452 21.135 21.135 0 01-1.918 2.923 1.123 1.123 0 101.769 1.385 23.282 23.282 0 002.125-3.236 1.123 1.123 0 00-.453-1.524zM43.339 68.796c-.067-.262-.105-.535-.162-.8h1.719a1.123 1.123 0 001.124-1.124v-6.743a1.123 1.123 0 00-1.124-1.124h-1.719c.057-.266.1-.539.162-.8a1.124 1.124 0 00-2.177-.557c-.113.445-.187.9-.274 1.359h-2.735a1.123 1.123 0 00-1.124 1.121v6.743a1.123 1.123 0 001.124 1.124h2.735c.088.454.161.914.274 1.359a1.124 1.124 0 102.177-.558zm-4.063-7.544h4.5v4.5h-4.5zM53.804 82.24a21.465 21.465 0 01-2.926-1.922 1.124 1.124 0 00-1.383 1.771 23.506 23.506 0 003.233 2.124 1.124 1.124 0 101.075-1.973zM45.256 73.677a1.125 1.125 0 00-1.975 1.076 23.735 23.735 0 002.122 3.235 1.125 1.125 0 001.774-1.383 21.221 21.221 0 01-1.921-2.928zM45.413 48.998a23.281 23.281 0 00-2.125 3.236 1.124 1.124 0 101.975 1.071 21.135 21.135 0 011.918-2.923 1.123 1.123 0 10-1.769-1.385zM52.747 42.781a23.719 23.719 0 00-3.235 2.122 1.124 1.124 0 101.383 1.771 21.248 21.248 0 012.928-1.918 1.125 1.125 0 00-1.076-1.976zM75.271 42.79a1.124 1.124 0 10-1.075 1.973 21.469 21.469 0 012.926 1.922 1.124 1.124 0 001.383-1.771 23.528 23.528 0 00-3.234-2.124zM82.745 53.323a1.125 1.125 0 001.975-1.075 23.738 23.738 0 00-2.122-3.235 1.124 1.124 0 00-1.773 1.383 21.235 21.235 0 011.92 2.927zM69.854 40.662c-.446-.114-.9-.187-1.359-.275v-2.734a1.123 1.123 0 00-1.123-1.124h-6.743a1.123 1.123 0 00-1.124 1.124v2.734c-.454.088-.913.161-1.359.275a1.124 1.124 0 00.557 2.177c.262-.067.535-.105.8-.163v1.72a1.123 1.123 0 001.124 1.124h6.743a1.123 1.123 0 001.124-1.124v-1.719c.266.057.539.1.8.163a1.124 1.124 0 00.558-2.177zm-3.606 2.61h-4.5v-4.5h4.5zM89.848 59.005h-2.733c-.088-.454-.161-.914-.274-1.359a1.124 1.124 0 10-2.177.557c.067.262.105.535.162.8h-1.721a1.123 1.123 0 00-1.124 1.124v6.743a1.123 1.123 0 001.124 1.124h1.718c-.057.266-.1.539-.162.8a1.124 1.124 0 002.177.557c.113-.445.187-.9.274-1.359h2.735a1.123 1.123 0 001.124-1.124v-6.743a1.123 1.123 0 00-1.123-1.12zm-1.124 6.743h-4.5v-4.5h4.5z"/><path class="d" d="M69.296 84.161c-.262.067-.535.105-.8.163v-1.719a1.123 1.123 0 00-1.124-1.124h-6.743a1.123 1.123 0 00-1.124 1.124v1.719c-.266-.057-.539-.1-.8-.163a1.124 1.124 0 00-.557 2.177c.446.114.9.187 1.359.275v2.734a1.123 1.123 0 001.122 1.124h6.743a1.123 1.123 0 001.124-1.124v-2.734c.454-.088.913-.161 1.359-.275a1.124 1.124 0 00-.558-2.177zm-3.049 4.063h-4.5v-4.495h4.5zm10.858-7.9a21.247 21.247 0 01-2.928 1.918 1.125 1.125 0 001.075 1.975 23.719 23.719 0 003.235-2.122 1.124 1.124 0 10-1.381-1.766zm7.151-7.082a1.124 1.124 0 00-1.523.452 21.135 21.135 0 01-1.918 2.923 1.123 1.123 0 101.769 1.385 23.281 23.281 0 002.125-3.236 1.123 1.123 0 00-.452-1.523zm-40.917-4.446c-.067-.262-.105-.535-.162-.8h1.719a1.123 1.123 0 001.123-1.125v-6.742a1.123 1.123 0 00-1.124-1.124h-1.718c.057-.266.1-.539.162-.8a1.124 1.124 0 10-2.177-.557c-.113.445-.187.9-.274 1.359h-2.735a1.123 1.123 0 00-1.124 1.122v6.743a1.123 1.123 0 001.124 1.124h2.735c.088.454.161.914.274 1.359a1.124 1.124 0 102.177-.558zm-4.062-3.048v-4.5h4.5v4.5zm14.528 16.489a21.47 21.47 0 01-2.926-1.922 1.124 1.124 0 00-1.383 1.771 23.505 23.505 0 003.233 2.124 1.124 1.124 0 101.075-1.973zm-8.549-8.56a1.125 1.125 0 00-1.975 1.076 23.738 23.738 0 002.122 3.235 1.125 1.125 0 001.774-1.383 21.222 21.222 0 01-1.922-2.928zm.16-24.68a23.281 23.281 0 00-2.125 3.232 1.124 1.124 0 101.975 1.071 21.135 21.135 0 011.918-2.923 1.123 1.123 0 10-1.769-1.385zm7.331-6.216a23.718 23.718 0 00-3.235 2.122 1.124 1.124 0 101.383 1.771 21.247 21.247 0 012.928-1.918 1.125 1.125 0 00-1.076-1.976zm22.524.009a1.124 1.124 0 10-1.075 1.973 21.469 21.469 0 012.926 1.922 1.124 1.124 0 001.383-1.771 23.528 23.528 0 00-3.234-2.124zm7.474 10.533a1.125 1.125 0 001.975-1.075 23.738 23.738 0 00-2.122-3.235 1.124 1.124 0 00-1.769 1.382 21.229 21.229 0 011.916 2.928zM69.854 40.662c-.446-.114-.9-.187-1.359-.275v-2.734a1.123 1.123 0 00-1.124-1.124h-6.742a1.123 1.123 0 00-1.124 1.124v2.734c-.454.088-.913.161-1.359.275a1.124 1.124 0 00.557 2.177c.262-.067.535-.105.8-.163v1.72a1.123 1.123 0 001.126 1.124h6.743a1.123 1.123 0 001.124-1.124v-1.719c.266.057.539.1.8.163a1.124 1.124 0 00.558-2.177zm-3.606 2.61h-4.5v-4.5h4.5zm23.6 15.733h-2.736c-.088-.454-.161-.914-.274-1.359a1.124 1.124 0 10-2.177.557c.067.262.105.535.162.8h-1.718a1.123 1.123 0 00-1.124 1.126v6.743a1.123 1.123 0 001.124 1.124h1.718c-.057.266-.1.539-.162.8a1.124 1.124 0 002.177.557c.113-.445.187-.9.274-1.359h2.735a1.123 1.123 0 001.124-1.124v-6.741a1.123 1.123 0 00-1.124-1.124zm-1.124 6.743h-4.495v-4.5h4.5z"/><path class="d" d="M61.299 37.386h6.303v6.303h-6.303zM83.809 59.898h5.403v7.203h-5.403zM38.788 59.898h5.403v7.203h-5.403zM60.398 83.308h6.303v6.303h-6.303z"/></svg>