<svg xmlns="http://www.w3.org/2000/svg" width="128" height="127"><defs><filter id="a" x="0" y="0" width="128" height="127" filterUnits="userSpaceOnUse"><feOffset/><feGaussianBlur stdDeviation="6" result="b"/><feFlood flood-opacity=".161"/><feComposite operator="in" in2="b"/><feComposite in="SourceGraphic"/></filter><style>.d{fill:#3f2e63}</style></defs><g transform="translate(18 18)"><g transform="translate(-18 -18)" filter="url(#a)"><ellipse cx="46" cy="45.5" rx="46" ry="45.5" transform="translate(18 18)" fill="#fff"/></g><circle cx="35.211" cy="35.211" r="35.211" transform="translate(16.777 9.909)" fill="#aac2f4"/><g fill="none"><path d="M46.5 10A35.5 35.5 0 1111 45.5 35.5 35.5 0 0146.5 10z"/><path d="M46.5 12a33.39 33.39 0 00-23.688 9.812A33.39 33.39 0 0013 45.5a33.391 33.391 0 009.812 23.688A33.391 33.391 0 0046.5 79a33.391 33.391 0 0023.688-9.812A33.391 33.391 0 0080 45.5a33.391 33.391 0 00-9.812-23.688A33.391 33.391 0 0046.5 12m0-2C66.106 10 82 25.894 82 45.5S66.106 81 46.5 81 11 65.106 11 45.5 26.894 10 46.5 10z" fill="#3f2e63"/></g></g><path class="d" d="M67.189 55.537a11.648 11.648 0 10-11.652 11.652 11.661 11.661 0 0011.652-11.652zm-21.839 0a10.192 10.192 0 1110.187 10.191 10.2 10.2 0 01-10.192-10.191z"/><path class="d" d="M64.272 55.537a8.736 8.736 0 10-8.736 8.736 8.745 8.745 0 008.736-8.736zm-2.911-2.184a2.184 2.184 0 11-2.184 2.184 2.187 2.187 0 012.184-2.184zm-11.648 4.368a2.184 2.184 0 112.188-2.184 2.187 2.187 0 01-2.188 2.184zm3.64-2.184a2.184 2.184 0 112.184 2.184 2.187 2.187 0 01-2.184-2.184zM53.605 68.482a6.019 6.019 0 01.427 1.615h3.01a6.019 6.019 0 01.427-1.615 13.109 13.109 0 01-1.932.159 13.092 13.092 0 01-1.931-.159zM57.138 71.552H53.95l-1.982 9.91a3.627 3.627 0 00-.071.714v.3a3.64 3.64 0 107.28 0v-.3a3.627 3.627 0 00-.071-.714zm-1.6 13.1a2.184 2.184 0 112.184-2.184 2.187 2.187 0 01-2.185 2.184zM85.384 75.92H75.192a.728.728 0 00-.728.728v8.736a.728.728 0 00.728.728h10.192a.728.728 0 00.728-.728v-8.736a.728.728 0 00-.728-.728zm-9.464 4.368h5.824v1.456H75.92zm8.736 4.368H75.92V83.2h8.736zm0-2.912H83.2v-1.456h1.456zm0-2.912H75.92v-1.456h8.736zM85.384 59.904H75.192a.729.729 0 00-.728.728v8.736a.728.728 0 00.728.728h10.192a.728.728 0 00.728-.728v-8.736a.729.729 0 00-.728-.728zm-3.64 8.736H75.92v-1.456h5.824zm2.912 0H83.2v-1.456h1.456zm0-2.912H75.92v-1.456h8.736zm0-2.912H75.92V61.36h8.736zM85.384 43.889H75.192a.729.729 0 00-.728.728v8.736a.729.729 0 00.728.728h10.192a.729.729 0 00.728-.728v-8.736a.729.729 0 00-.728-.728zm-9.464 4.368h1.456v1.456H75.92zm8.736 4.368H75.92v-1.456h8.736zm0-2.912h-5.824v-1.456h5.824zm0-2.912H75.92v-1.456h8.736zM67.095 61.698a13.2 13.2 0 01-.788 1.27l2.76 2.76h3.945v-1.456H69.67zM61.76 67.045a12.9 12.9 0 01-1.329.629l9.277 14.07h3.3v-1.456h-2.52zM67.609 50.442a13.062 13.062 0 01.526 1.532l2.262-2.262h2.611v-1.455h-3.214z"/></svg>