<svg id="Componente_104_1" data-name="Componente 104 – 1" xmlns="http://www.w3.org/2000/svg" width="12.283" height="16.067" viewBox="0 0 12.283 16.067">
  <g id="Componente_103_1" data-name="Componente 103 – 1">
    <path id="Trazado_7188" data-name="Trazado 7188" d="M2.068,9.8l1.915,1.934-2.606.691Z" transform="translate(0 -0.188)" fill="#3f2e63"/>
    <path id="Trazado_7189" data-name="Trazado 7189" d="M7.766,4.116l.145-.145a1.258,1.258,0,0,1,1.777,0l.138.138a1.257,1.257,0,0,1,0,1.778l-.4.4L7.513,4.368Z" transform="translate(0 -0.188)" fill="#3f2e63"/>
    <path id="Trazado_7190" data-name="Trazado 7190" d="M9,6.717,7.331,8.386,4.3,11.412,2.389,9.478,7.082,4.8Z" transform="translate(0 -0.188)" fill="#3f2e63"/>
    <path id="Trazado_7193" data-name="Trazado 7193" d="M12.281,1.958A1.7,1.7,0,0,0,10.838.213a.26.26,0,0,1-.057-.025H6.141v0l-4.364,0A1.711,1.711,0,0,0,0,1.972Q0,8.229,0,14.485A1.7,1.7,0,0,0,1.444,16.23a.26.26,0,0,1,.057.025h4.64v0l4.364,0a1.711,1.711,0,0,0,1.776-1.78c0-3.128,0-9.7,0-9.7s0-1.77,0-2.813M10.5,15.2q-2.181.006-4.362,0-2.164,0-4.331,0a.675.675,0,0,1-.758-.751q0-6.234,0-12.469a.667.667,0,0,1,.727-.75q2.181-.006,4.362,0h4.331a.675.675,0,0,1,.758.751q0,6.234,0,12.469a.667.667,0,0,1-.727.75" transform="translate(0 -0.188)" fill="#3f2e63"/>
  </g>
</svg>
