<svg xmlns="http://www.w3.org/2000/svg" width="16.712" height="16.712" viewBox="0 0 16.712 16.712">
  <g id="apoyo-tecnico" transform="translate(0 0.001)">
    <path id="Trazado_708" data-name="Trazado 708" d="M94.323,88.591a4.811,4.811,0,0,0-.663-1.6l.625-.626-1.444-1.443-.625.625a4.811,4.811,0,0,0-1.6-.663V84H88.575v.884a4.81,4.81,0,0,0-1.6.663l-.625-.625-1.444,1.443.625.626a4.811,4.811,0,0,0-.663,1.6h-.886v2.041h.887a4.805,4.805,0,0,0,.663,1.6l-.628.628L86.346,94.3l.628-.628a4.8,4.8,0,0,0,1.6.663v.89h2.041v-.89a4.807,4.807,0,0,0,1.6-.663l.628.628,1.443-1.444-.628-.628a4.805,4.805,0,0,0,.663-1.6h.887V88.591ZM89.6,91.985a2.371,2.371,0,1,1,2.371-2.371A2.371,2.371,0,0,1,89.6,91.985Zm0,0" transform="translate(-81.24 -81.259)" fill="#3f2e63"/>
    <path id="Trazado_709" data-name="Trazado 709" d="M2.939,12.924a1.363,1.363,0,0,0-.658.168A7.707,7.707,0,0,1,9.89.8a.326.326,0,0,0,.129-.64A8.418,8.418,0,0,0,8.356,0,8.356,8.356,0,0,0,1.8,13.534a1.371,1.371,0,1,0,1.141-.61ZM3.447,14.8a.718.718,0,1,1,.21-.508A.713.713,0,0,1,3.447,14.8Zm0,0" fill="#3f2e63"/>
    <path id="Trazado_710" data-name="Trazado 710" d="M205.951,34.182a1.368,1.368,0,1,0-.482.443,7.707,7.707,0,0,1-7.595,12.29.326.326,0,1,0-.128.64,8.425,8.425,0,0,0,1.648.162,8.356,8.356,0,0,0,6.558-13.535Zm-1.649-.252a.718.718,0,1,1,.508.21A.713.713,0,0,1,204.3,33.929Zm0,0" transform="translate(-191.038 -31.005)" fill="#3f2e63"/>
    <path id="Trazado_713" data-name="Trazado 713" d="M338.4,18.462a.327.327,0,1,0-.231-.1A.329.329,0,0,0,338.4,18.462Zm0,0" transform="translate(-327.043 -17.228)" fill="#3f2e63"/>
    <path id="Trazado_714" data-name="Trazado 714" d="M154.685,474.359a.326.326,0,1,0,.231.1A.329.329,0,0,0,154.685,474.359Zm0,0" transform="translate(-149.321 -458.876)" fill="#3f2e63"/>
  </g>
</svg>
