<svg id="Grupo_9355" data-name="Grupo 9355" xmlns="http://www.w3.org/2000/svg" xmlns:xlink="http://www.w3.org/1999/xlink" width="19.32" height="19.298" viewBox="0 0 19.32 19.298">
  <defs>
    <clipPath id="clip-path">
      <rect id="Rectángulo_3332" data-name="Rectángulo 3332" width="19.32" height="19.298" fill="#6b4b8b"/>
    </clipPath>
  </defs>
  <g id="Grupo_9354" data-name="Grupo 9354" clip-path="url(#clip-path)">
    <path id="Trazado_6101" data-name="Trazado 6101" d="M16.12,8.021a8.025,8.025,0,0,1-1.654,4.853c-.146.192-.142.3.031.47q2.217,2.2,4.418,4.41c.478.478.536.943.163,1.309s-.826.305-1.309-.177q-2.207-2.207-4.41-4.417c-.158-.159-.258-.176-.446-.037a7.9,7.9,0,0,1-9.279.306A7.943,7.943,0,0,1,1.14,3.974,7.826,7.826,0,0,1,8.379,0a8.068,8.068,0,0,1,7.627,6.82c.053.4.076.8.113,1.2M1.63,8.033A6.431,6.431,0,1,0,8.063,1.608,6.446,6.446,0,0,0,1.63,8.033" transform="translate(0 0)" fill="#6b4b8b"/>
    <path id="Trazado_6102" data-name="Trazado 6102" d="M315.943,134.145q0,1.719,0,3.438c0,.443-.131.572-.576.573s-.885,0-1.327,0c-.363,0-.509-.149-.51-.517q0-3.5,0-7c0-.388.136-.523.53-.528q.678-.01,1.357,0c.39.006.524.142.525.533,0,1.166,0,2.332,0,3.5" transform="translate(-303.861 -126.098)" fill="#6b4b8b"/>
    <path id="Trazado_6103" data-name="Trazado 6103" d="M211.589,211.171c0,.743,0,1.487,0,2.23,0,.467-.126.586-.594.587-.442,0-.884,0-1.326,0-.337,0-.488-.141-.49-.474q-.01-2.336,0-4.672c0-.34.142-.473.484-.48.472-.01.944-.009,1.417,0,.373.006.5.139.508.52.007.763,0,1.527,0,2.291" transform="translate(-202.724 -201.93)" fill="#6b4b8b"/>
    <path id="Trazado_6104" data-name="Trazado 6104" d="M107.122,288.24c0,.362.006.723,0,1.085s-.144.509-.513.513q-.693.007-1.386,0c-.357,0-.505-.135-.51-.486q-.015-1.13,0-2.26c0-.323.146-.46.466-.467q.738-.016,1.476,0c.323.007.454.143.463.469.011.381,0,.763,0,1.145h0" transform="translate(-101.476 -277.78)" fill="#6b4b8b"/>
  </g>
</svg>
